<?xml version="1.0" standalone="no"?>
<!DOCTYPE svg PUBLIC "-//W3C//DTD SVG 1.1//EN" "http://www.w3.org/Graphics/SVG/1.1/DTD/svg11.dtd" >
<svg>
<metadata>
Created by FontForge 20090914 at Sun Jul 26 10:11:34 2020
 By www-data
Typeface &#194;&#169; Magique Fonts 2012. All Rights Reserved
</metadata>
<defs>
<font id="Cleanwork" horiz-adv-x="1172" >
  <font-face 
    font-family="Cleanwork"
    font-weight="400"
    font-stretch="normal"
    units-per-em="2048"
    panose-1="2 0 5 0 0 0 0 0 0 0"
    ascent="1638"
    descent="-410"
    x-height="1431"
    cap-height="1431"
    bbox="-107 -417.998 2235 1842"
    underline-thickness="150"
    underline-position="-142"
    unicode-range="U+0020-U+2265"
  />
<missing-glyph 
d="M-1 0v1434h1072v-1434h-1072zM49 50h972v1334h-972v-1334zM658 342v-214h-262v214h262zM396 490c0 189.333 71.6689 304.665 215.002 345.998c21.333 5.33301 38.333 11 51 17c40 26.667 60 66.667 60 120c0.666992 57.333 -20.333 94 -63 110
c-20.667 8.66699 -57.334 15.334 -110.001 20.001l-1 194l76 -2c235.333 -32.667 353 -140 353 -322v-15c-1.33301 -168.667 -65 -274.667 -191 -318l3 2c-24.667 -12.667 -52.334 -23.667 -83.001 -33c-40.667 -19.333 -59.667 -64.666 -57 -135.999l1 -82h-254v99z
M510.002 1103c-59.333 -16 -100 -33 -122 -51c-26 -20 -44.333 -62 -55 -126l-110 7l-133 16v12c24 116.667 62 196.667 114 240c88.667 65.333 190 98 304 98z" />
    <glyph glyph-name=".notdef" 
d="M-1 0v1434h1072v-1434h-1072zM49 50h972v1334h-972v-1334zM658 342v-214h-262v214h262zM396 490c0 189.333 71.6689 304.665 215.002 345.998c21.333 5.33301 38.333 11 51 17c40 26.667 60 66.667 60 120c0.666992 57.333 -20.333 94 -63 110
c-20.667 8.66699 -57.334 15.334 -110.001 20.001l-1 194l76 -2c235.333 -32.667 353 -140 353 -322v-15c-1.33301 -168.667 -65 -274.667 -191 -318l3 2c-24.667 -12.667 -52.334 -23.667 -83.001 -33c-40.667 -19.333 -59.667 -64.666 -57 -135.999l1 -82h-254v99z
M510.002 1103c-59.333 -16 -100 -33 -122 -51c-26 -20 -44.333 -62 -55 -126l-110 7l-133 16v12c24 116.667 62 196.667 114 240c88.667 65.333 190 98 304 98z" />
    <glyph glyph-name="space" unicode=" " horiz-adv-x="599" 
 />
    <glyph glyph-name="space" unicode="&#xa0;" horiz-adv-x="599" 
 />
    <glyph glyph-name="exclam" unicode="!" horiz-adv-x="421" 
d="M326 264v-264h-326v264h326zM0 329v1108h326v-1108h-326z" />
    <glyph glyph-name="quotedbl" unicode="&#x22;" horiz-adv-x="794" 
d="M314 1438l1 -622l-316 -2l2 625zM697 1438l-2 -622l-316 -2l-1 625z" />
    <glyph glyph-name="numbersign" unicode="#" horiz-adv-x="1487" 
d="M302 0h-310l541 1437h310zM852 0h-310l541 1437h310zM150 795v264h190l-100 -264h-90zM648 795l96 264h154l-99 -264h-151zM1395 1059v-264h-205l97 264h108zM3 401v264h187l-100 -264h-87zM505 401l96 264h149l-99 -264h-146zM1248 665v-264h-203l97 264h106z" />
    <glyph glyph-name="dollar" unicode="$" horiz-adv-x="1255" 
d="M368 325c61.333 -35.333 119.666 -56.333 174.999 -63l29 -5l-2 -257c-174 -4.66699 -307.333 31 -400 107c-103.333 66.667 -158.666 182.667 -165.999 348l301 29c5.33301 -70 26.333 -121.667 63 -155v-4zM476 612c-288 52 -432 185.667 -432 401v19
c0 224.667 145.333 357 436 397l90 2l2 -239c-65.333 -5.33301 -110.666 -13.333 -135.999 -24c-52.667 -20 -78.334 -65.333 -77.001 -136c0 -66 83.667 -114.333 251 -145c42 -7.33301 76.333 -14.333 103 -21c296.667 -49.333 445 -190.666 445 -423.999v-20
c0 -239.333 -145.333 -380.333 -436 -423l-98 -3v253c69.333 7.33301 116.666 16.666 141.999 27.999c52.667 21.333 78.334 69.666 77.001 144.999c0 70.667 -82.667 125.334 -248 164.001c-37.333 11.333 -78.333 21 -123 29zM619 1434
c143.333 0 269.668 -40.334 379.001 -121.001c64 -53.333 110.667 -152 140 -296v-14l-164 -20l-136 -9c-12.667 78.667 -35.334 130.334 -68.001 155.001c-26.667 22.667 -76.667 43.667 -150 63zM747.002 1752v-264h-308v264h308zM753.002 -49.001v-264h-308v264h308z" />
    <glyph glyph-name="percent" unicode="%" horiz-adv-x="1481" 
d="M563 0h-310l541 1440h310zM1131 741c90 -3.33301 156 -30.333 198 -81l2 2v-2l-2 -3c31.333 -48 47 -98 47 -150v-267c0 -60 -25.333 -116 -76 -168c-29.333 -41.333 -85.666 -65 -168.999 -71v140c51.333 18 77 53 77 105v269c-10.667 50.667 -36.334 79 -77.001 85v141
zM1095 601c-40.667 -6.66699 -66.333 -35 -77 -85v-270c0 -52 25.667 -86.667 77 -104v-141c-83.333 6.66699 -142 28.667 -176 66c-46 56 -69 114 -69 174v266c0 52.667 15.667 103 47 151l-2 2v3l2 -3c42 51.333 108 78.333 198 81v-140zM279.001 1437
c90 -3.33301 156 -30.333 198 -81l2 2v-2l-2 -3c31.333 -48 47 -98 47 -150v-267c0 -60 -25.333 -116 -76 -168c-29.333 -41.333 -85.666 -65 -168.999 -71v140c51.333 18 77 53 77 105v269c-10.667 50.667 -36.334 79 -77.001 85v141zM243.001 1297
c-40.667 -6.66699 -66.333 -35 -77 -85v-270c0 -52 25.667 -86.667 77 -104v-141c-83.333 6.66699 -142 28.667 -176 66c-46 56 -69 114 -69 174v266c0 52.667 15.667 103 47 151l-2 2v3l2 -3c42 51.333 108 78.333 198 81v-140z" />
    <glyph glyph-name="ampersand" unicode="&#x26;" horiz-adv-x="1301" 
d="M500 1163c-54 -5.33301 -94.334 -27.001 -121.001 -65.001h-5l-10 -25l-5 -36c0 -68.667 30.333 -116 91 -142c21.333 0 38 -1.33301 50 -4v-269c-53.333 -4.66699 -85.333 -15.334 -96 -32.001c-52.667 -32.667 -76.334 -75 -71.001 -127v-41
c2 -76.667 46 -129 132 -157h35v-259c-30 -0.666992 -48.333 -1 -55 -1h-5l-86 5c-125.333 28 -212 75.667 -260 143c-40.667 48.667 -64.334 91 -71.001 127c-11.333 13.333 -19.666 62.333 -24.999 147c0 18 1.66699 33.333 5 46c14 119.333 71.667 209 173 269
c16.667 8 38 19 64 33l-24 8l-46 26c-49.333 38.667 -84.666 89.334 -105.999 152.001c-18 24.667 -26.667 55.334 -26 92.001v25c0 42 7 79.333 21 112c60.667 162.667 206.334 244 437.001 244h4v-271zM869.999 74.999l-1.00195 -1
c-45.333 -27.333 -102.666 -48.666 -171.999 -63.999l-86 -5h-5c-6.66699 0 -25 0.333008 -55 1v259h38c84 28 127 80.333 129 157v41c5.33301 52 -18.334 94.333 -71.001 127c-10.667 16.667 -42.667 27.334 -96 32.001v269c12 2.66699 28.667 4 50 4
c60.667 26 91 73.333 91 142l-5 36l-10 25c-30 38 -72 59.667 -126 65v271h4c230.667 0 376.334 -81.333 437.001 -244c14 -32.667 21 -70 21 -112v-25c0.666992 -36.667 -8 -67.334 -26 -92.001c-21.333 -62.667 -56.666 -113.334 -105.999 -152.001l-46 -26l-24 -8
c22.667 -12.667 42 -22.667 58 -30l21 58h310l-140 -383l154 -420h-310l-29 78c-2 -1.33301 -3.66699 -2.33301 -5 -3z" />
    <glyph glyph-name="quotesingle" unicode="'" horiz-adv-x="424" 
d="M323 1432v-617h-326v617h326z" />
    <glyph glyph-name="parenleft" unicode="(" horiz-adv-x="754" 
d="M652 1666l0.000976562 -265l-141 1c-98 -4.66699 -158.333 -63 -181 -175v-1018c0 -102.667 51 -170.667 153 -204c20 -3.33301 39 -5 57 -5l112 -1v-270h-88c-204.667 0 -347.334 44.333 -428.001 133c-88.667 108 -133 220.333 -133 337v1012
c0 101.333 30.667 200.333 92 297c87.333 105.333 227 158 419 158h138z" />
    <glyph glyph-name="parenright" unicode=")" horiz-adv-x="757" 
d="M141 1666c192 0 331.668 -52.667 419.001 -158c61.333 -96.667 92 -195.667 92 -297v-1012c0 -116.667 -44.333 -229 -133 -337c-80.667 -88.667 -223.334 -133 -428.001 -133h-88v270l112 1c18 0 37 1.66699 57 5c102 33.333 153 101.333 153 204v1018
c-22.667 112 -83 170.333 -181 175l-141 -1v265h138z" />
    <glyph glyph-name="asterisk" unicode="*" horiz-adv-x="717" 
d="M300 1294l-73 281h172l-72 -283l245 158l54 -164l-287 -19l221 -192l-142 -97l-103 275l-101 -271l-142 97l218 188l-288 20l54 164z" />
    <glyph glyph-name="plus" unicode="+" horiz-adv-x="873" 
d="M518 1079v-670h-271v670h271zM209 611h-209v264h209v-264zM562 875h199v-264h-199v264z" />
    <glyph glyph-name="comma" unicode="," horiz-adv-x="421" 
d="M326 284v-617h-326v617h326z" />
    <glyph glyph-name="hyphen" unicode="-" horiz-adv-x="775" 
d="M672 885v-264h-672v264h672z" />
    <glyph glyph-name="hyphen" unicode="&#xad;" horiz-adv-x="775" 
d="M672 885v-264h-672v264h672z" />
    <glyph glyph-name="period" unicode="." horiz-adv-x="427" 
d="M326 264v-264h-326v264h326z" />
    <glyph glyph-name="slash" unicode="/" horiz-adv-x="898" 
d="M302 0h-310l541 1437h310z" />
    <glyph glyph-name="zero" unicode="0" horiz-adv-x="1169" 
d="M557 -20c-44.667 2.66699 -84.001 8.15918 -118.001 16.4922s-64 19 -90 32s-49 27.5 -69 43.5s-38 33 -54 51c-19.333 22 -39.166 49 -59.499 81s-39 72.5 -56 121.5s-31 108 -42 177s-16.5 151.5 -16.5 247.5c0 14 0.333008 34.5 1 61.5s3 57.833 7 92.5
s10.167 71.834 18.5 111.501s20.5 79.5 36.5 119.5s36.167 78.833 60.5 116.5s54.166 71.334 89.499 101.001s77 54.334 125 74.001s103.667 31.834 167 36.501v-249c-13.333 -3.33301 -28.833 -7.83301 -46.5 -13.5s-37.167 -17.167 -58.5 -34.5
c-18.667 -16.667 -34.5 -36.334 -47.5 -59.001s-23.833 -47 -32.5 -73s-15.334 -52.667 -20.001 -80s-8.16699 -53.833 -10.5 -79.5s-3.66602 -49.667 -3.99902 -72s-0.5 -41.166 -0.5 -56.499c0 -39.333 1.33301 -78.166 4 -116.499s6.66699 -74.666 12 -108.999
s12 -66.166 20 -95.499s17.333 -54.666 28 -75.999c18.667 -34.667 40.834 -61.167 66.501 -79.5s55.5 -30.833 89.5 -37.5v-252zM610.999 1462.99c12.667 -0.666992 26.668 -1.33301 42.001 -2s31.5 -2.33398 48.5 -5.00098s34.833 -6.66699 53.5 -12
s38 -12.666 58 -21.999c48 -22.667 89 -51.834 123 -87.501s62.167 -74.5 84.5 -116.5s39.833 -85.833 52.5 -131.5s22.167 -89.834 28.5 -132.501s10.166 -82.667 11.499 -120s2 -68.666 2 -93.999c0 -60 -2.83301 -119.333 -8.5 -178s-15.667 -115 -30 -169
s-33.666 -104.5 -57.999 -151.5s-55.166 -88.667 -92.499 -125s-82 -66.333 -134 -90s-112.333 -39.167 -181 -46.5v252c44 8 80.333 26.833 109 56.5s51.167 67.167 67.5 112.5s27.666 97 33.999 155s9.5 119.333 9.5 184c0 66.667 -3.83301 127.834 -11.5 183.501
s-20.334 104 -38.001 145s-40.5 74 -68.5 99s-62 40.5 -102 46.5v249z" />
    <glyph glyph-name="one" unicode="1" horiz-adv-x="1169" 
d="M159 973v219.002c10 -0.666992 25.667 -1.33398 47 -2.00098s45 0.5 71 3.5s53 8.66699 81 17s54 21.166 78 38.499v-276h-277zM492 1312c2 5.33301 4.66699 10.1699 8 14.5029s6 9.16602 8 14.499c9.33301 21.333 15.5 39.666 18.5 54.999s5.5 28.666 7.5 39.999h258
v-1436h-300v1312z" />
    <glyph glyph-name="two" unicode="2" horiz-adv-x="1169" 
d="M87 0v260h988v-260h-988zM95 917c0 11.333 0.331055 27.6689 0.998047 49.002s3.33398 47 8.00098 77c2 25.333 6.83301 50.166 14.5 74.499s16.5 48.166 26.5 71.499c18 38.667 38.167 71.834 60.5 99.501s45.666 51.167 69.999 70.5s49.5 34.833 75.5 46.5
s51.333 21 76 28s48.334 12.167 71.001 15.5s43.334 6 62.001 8v-270l-30 -4.5c-10.667 -1.66699 -21.667 -4.83398 -33 -9.50098s-22.833 -11.167 -34.5 -19.5s-23.167 -19.833 -34.5 -34.5c-16.667 -22 -28.667 -48.833 -36 -80.5s-11 -63.167 -11 -94.5v-18
c0 -6 0.666992 -13.333 2 -22zM170.998 314.003l152.5 124.998l107.5 89.5l73 63c19.333 17 36 32.333 50 46s26.5 26.5 37.5 38.5l35.5 40c15.333 17.333 30.833 36.833 46.5 58.5s29.834 44.5 42.501 68.5s23 49.333 31 76s12 53.667 12 81c0 36 -5.5 65.333 -16.5 88
s-24.167 40.667 -39.5 54s-31.333 23 -48 29s-30.667 10.667 -42 14v272c30 -1.33301 61.5 -5.16602 94.5 -11.499s65.5 -16.5 97.5 -30.5s62.667 -32.167 92 -54.5s55.166 -49.666 77.499 -81.999s40 -70.166 53 -113.499s19.5 -93 19.5 -149
c0 -72.667 -12 -139.334 -36 -200.001s-57.167 -118.667 -99.5 -174s-92.833 -109.5 -151.5 -162.5l-192 -165.5h-397z" />
    <glyph glyph-name="three" unicode="3" horiz-adv-x="1169" 
d="M555 -20c-28.667 0.666992 -55.501 3.16895 -80.501 7.50195s-47.5 9.33301 -67.5 15s-37.333 11.5 -52 17.5s-26.334 11 -35.001 15c-39.333 19.333 -72.5 41.666 -99.5 66.999s-49.5 52 -67.5 80s-32 56.667 -42 86s-17.667 58 -23 86s-8.66602 54.333 -9.99902 79
s-2.33301 46.667 -3 66l283 13c-0.666992 -13.333 -1 -28.833 -1 -46.5s1.66699 -36.334 5 -56.001s8.83301 -39.5 16.5 -59.5s18.834 -38.333 33.501 -55s33.5 -31.167 56.5 -43.5s51.833 -20.833 86.5 -25.5v-246zM107.999 982.002
c0.666992 21.333 2.16797 47.333 4.50098 78s8.16602 62.667 17.499 96s23.166 67 41.499 101s43.833 65 76.5 93s74 51.667 124 71s111 31.333 183 36v-239c-41.333 -8 -73.166 -21.667 -95.499 -41s-38.833 -41.333 -49.5 -66s-17 -50 -19 -76s-3.33301 -49.667 -4 -71z
M609 224.002c32 5.33301 59.8311 15.167 83.498 29.5s43.167 31.5 58.5 51.5s26.666 41.667 33.999 65s11 46.666 11 69.999c0 20.667 -3.33301 43 -10 67s-18.5 46.167 -35.5 66.5s-40.333 37.166 -70 50.499s-67.167 20 -112.5 20c-18 0 -34.167 -0.833008 -48.5 -2.5
l-47.5 -5.5v245c10 -1.33301 21.833 -2.66602 35.5 -3.99902s28.167 -2 43.5 -2c28.667 0 55.334 3.5 80.001 10.5s46.334 17.667 65.001 32s33.334 32.333 44.001 54s16 46.834 16 75.501c0 4 -0.833008 13.667 -2.5 29s-7 32.166 -16 50.499s-23.5 36 -43.5 53
s-48.333 28.5 -85 34.5v245c31.333 -1.33301 62.5 -4.83301 93.5 -10.5s61 -13.667 90 -24s56.5 -23.666 82.5 -39.999s49.667 -36.166 71 -59.499c26 -30 47.667 -66.333 65 -109s26 -91 26 -145c0 -64.667 -14.167 -122.834 -42.5 -174.501s-74.5 -91.834 -138.5 -120.501
c52 -12 93.833 -32.167 125.5 -60.5s56 -59.166 73 -92.499s28.333 -66.666 34 -99.999s8.5 -61 8.5 -83c0 -30 -3.5 -61.833 -10.5 -95.5s-18.333 -66.834 -34 -99.501s-36 -64 -61 -94s-55.667 -57 -92 -81s-78.5 -43.833 -126.5 -59.5s-102.667 -25.167 -164 -28.5v242z
" />
    <glyph glyph-name="four" unicode="4" horiz-adv-x="1169" 
d="M45 607l537 748v-407l-283 -397h283v-243h-537v299zM636 0v1432h283v-881h194v-243h-194v-308h-283z" />
    <glyph glyph-name="five" unicode="5" horiz-adv-x="1169" 
d="M547 -18c-74.667 1.33301 -138.832 11.3291 -192.499 29.9961s-99 42.334 -136 71.001s-66.667 60.334 -89 95.001s-39.833 68.334 -52.5 101.001s-21.334 62.5 -26.001 89.5s-8 47.5 -10 61.5l292 12c2 -17.333 5.33301 -37.333 10 -60s14 -44.667 28 -66
s34.833 -40.166 62.5 -56.499s65.5 -26.833 113.5 -31.5v-246zM99.002 641.996l81.998 473h253l-43 -200c12 8 23.5 14.833 34.5 20.5s22.333 11 34 16s24.5 9.66699 38.5 14l49 14.5v-238c-7.33301 -0.666992 -18.666 -2.16699 -33.999 -4.5s-31.833 -7 -49.5 -14
s-35.167 -17 -52.5 -30s-31.666 -30.167 -42.999 -51.5h-269zM189 1169l45 265h811l-26 -265h-830zM603 231.996c29.333 7.33301 54.499 17.5 75.499 30.5s38.667 27.667 53 44s25.833 33.666 34.5 51.999s15.334 36.166 20.001 53.499s7.83398 33.5 9.50098 48.5
s2.5 27.833 2.5 38.5c0 37.333 -5 70 -15 98s-23.833 51.833 -41.5 71.5s-38.334 35.5 -62.001 47.5s-49.167 20.667 -76.5 26v244c81.333 4.66699 152.5 -5.83301 213.5 -31.5s111.833 -61 152.5 -106s71.167 -97.167 91.5 -156.5s30.5 -120.666 30.5 -183.999
c0 -34.667 -3.33301 -71.167 -10 -109.5s-17.5 -76 -32.5 -113s-34.833 -72.667 -59.5 -107s-55 -65.166 -91 -92.499s-78.333 -50 -127 -68s-104.667 -29.333 -168 -34v248z" />
    <glyph glyph-name="six" unicode="6" horiz-adv-x="1169" 
d="M578 -18c-17.333 0.666992 -39.001 2.49805 -65.001 5.49805s-54.167 9.16699 -84.5 18.5s-61.833 23.5 -94.5 42.5s-64.334 45.167 -95.001 78.5c-20 22 -39.833 48.333 -59.5 79s-37.5 68.834 -53.5 114.501s-28.833 99.834 -38.5 162.501s-14.5 136.667 -14.5 222
c0 52 2.33301 104.167 7 156.5s13.167 103.5 25.5 153.5s29.5 98 51.5 144s50 88.667 84 128c46 52 96.167 90.833 150.5 116.5s116.5 42.167 186.5 49.5v-237c-9.33301 -2 -19.5 -4.33301 -30.5 -7s-22.333 -7 -34 -13s-23.667 -14 -36 -24s-24.833 -23 -37.5 -39
c-8.66699 -11.333 -18 -25.666 -28 -42.999s-19.5 -38 -28.5 -62s-16.833 -51.667 -23.5 -83s-11 -66 -13 -104c10.667 12.667 24.167 27.5 40.5 44.5s37 33.333 62 49s54.833 28.834 89.5 39.501s76 16 124 16c52.667 0 100.167 -6.66699 142.5 -20
s80.166 -31.5 113.499 -54.5s62 -50.167 86 -81.5s43.833 -64.833 59.5 -100.5s27.334 -72.834 35.001 -111.501s11.5 -76.667 11.5 -114c0 -32 -3 -66.667 -9 -104s-16 -74.833 -30 -112.5s-32.833 -74.334 -56.5 -110.001s-53.167 -67.834 -88.5 -96.501
s-77.166 -52.167 -125.499 -70.5s-104.166 -29.166 -167.499 -32.499v246l30 8.5c12.667 3.66699 26.5 9.16699 41.5 16.5s30.167 17.166 45.5 29.499s29.166 28.166 41.499 47.499s22.5 42.5 30.5 69.5s12 59.167 12 96.5c0 46 -6.83301 84.833 -20.5 116.5
s-31.5 57.167 -53.5 76.5s-46.5 33.333 -73.5 42s-53.833 13 -80.5 13c-28 0 -56 -4.66699 -84 -14s-53.167 -24.166 -75.5 -44.499s-40.666 -46.666 -54.999 -78.999s-21.5 -71.833 -21.5 -118.5c0 -10.667 0.666992 -23.667 2 -39s4.33301 -31.666 9 -48.999
s11.5 -34.833 20.5 -52.5s21.167 -34.334 36.5 -50.001s34.333 -29.667 57 -42s50 -21.5 82 -27.5v-246zM808.999 1064c-3.33301 18.667 -7.99902 37 -13.999 55s-15.167 34.333 -27.5 49s-29.166 26.667 -50.499 36s-49 14.666 -83 15.999v237
c81.333 -1.33301 149.166 -13.333 203.499 -36s98.333 -51.667 132 -87s59.167 -75.166 76.5 -119.499s29.666 -88.833 36.999 -133.5z" />
    <glyph glyph-name="seven" unicode="7" horiz-adv-x="1169" 
d="M102 1164v266h949v-266h-949zM278 0c4 42.667 8.16699 83.833 12.5 123.5s10 79.5 17 119.5s15.5 80.667 25.5 122s22.667 85 38 131c14.667 46 31.5 91.5 50.5 136.5s38.667 88.167 59 129.5s41 80.333 62 117s41.167 70.167 60.5 100.5s37 56.666 53 78.999
s29.333 39.833 40 52.5h300c-4 -5.33301 -14.5 -18.166 -31.5 -38.499s-37.667 -48.333 -62 -84s-51 -78.5 -80 -128.5s-57.167 -107.333 -84.5 -172c-46 -110 -80.667 -222.667 -104 -338s-35 -232 -35 -350h-321z" />
    <glyph glyph-name="eight" unicode="8" horiz-adv-x="1169" 
d="M557 -20c-10 0.666992 -23.5039 1.49805 -40.5039 2.49805s-36.333 3.16699 -58 6.5s-45 8.16602 -70 14.499s-50.5 15.5 -76.5 27.5c-44 20 -81.833 44.333 -113.5 73s-57.667 60.334 -78 95.001s-35.5 71.5 -45.5 110.5s-15 79.167 -15 120.5
c0 55.333 7 102.333 21 141s31.167 71.167 51.5 97.5s41.833 47.5 64.5 63.5s43 29.333 61 40c-24 12.667 -45.667 28.834 -65 48.501s-35.5 41.5 -48.5 65.5s-23 50 -30 78s-10.5 57 -10.5 87c0 45.333 8 91 24 137s41.833 88.167 77.5 126.5s82.334 70.5 140.001 96.5
s128.167 42 211.5 48v-239c-56 -10 -100 -29.833 -132 -59.5s-48 -70.167 -48 -121.5c0 -54 17.333 -97.333 52 -130s83.667 -49 147 -49c26.667 0 53 3.33301 79 10s49.167 17.5 69.5 32.5s36.666 34.5 48.999 58.5s18.5 53.333 18.5 88c0 20 -3.16699 39.5 -9.5 58.5
s-16.5 36.167 -30.5 51.5s-32.5 28.5 -55.5 39.5s-51.5 18.167 -85.5 21.5v239c12 -0.666992 26.833 -1.66699 44.5 -3s37.334 -4 59.001 -8s44.667 -9.66699 69 -17s48.5 -17.333 72.5 -30c34.667 -18 63.834 -37.833 87.501 -59.5s43.167 -44 58.5 -67s27.333 -46 36 -69
s14.834 -44.333 18.501 -64s5.83398 -37.167 6.50098 -52.5s1 -26.666 1 -33.999c0 -28 -2.66699 -55.667 -8 -83s-14 -53.5 -26 -78.5s-28 -48 -48 -69s-44.333 -38.5 -73 -52.5c12 -7.33301 29 -18.5 51 -33.5s43.5 -35.5 64.5 -61.5s39.333 -58.833 55 -98.5
s23.5 -87.834 23.5 -144.501c0 -64 -10.667 -122.833 -32 -176.5s-52.833 -100.5 -94.5 -140.5s-93.167 -72 -154.5 -96s-131.666 -37.667 -210.999 -41v238c6 0.666992 15.5 2.5 28.5 5.5s27.5 7.33301 43.5 13s32.5 13.667 49.5 24s32.5 23.333 46.5 39
s25.5 34.667 34.5 57s13.5 48.833 13.5 79.5c0 32.667 -5.66699 62.334 -17 89.001s-27.5 49.5 -48.5 68.5s-46.5 33.833 -76.5 44.5s-63.667 16 -101 16c-44 0 -81.667 -6.66699 -113 -20s-57 -30.5 -77 -51.5s-34.5 -44.667 -43.5 -71s-13.5 -52.166 -13.5 -77.499
c0 -28 4.83301 -54.5 14.5 -79.5s23.667 -47 42 -66s41.166 -34.833 68.499 -47.5s59 -20.334 95 -23.001v-238z" />
    <glyph glyph-name="nine" unicode="9" horiz-adv-x="1169" 
d="M593 222c45.333 10 82.5 28.835 111.5 56.502s52 59.5 69 95.5s29.167 73.667 36.5 113s12.333 76 15 110c-12.667 -16 -27.667 -32.833 -45 -50.5s-38.5 -34 -63.5 -49s-54.333 -27.333 -88 -37s-73.167 -14.5 -118.5 -14.5c-74.667 0 -140 13.333 -196 40
s-102.667 62.5 -140 107.5s-65.333 96.833 -84 155.5s-28 119.667 -28 183c0 38.667 3.83301 78.167 11.5 118.5s19.5 79.5 35.5 117.5s36.5 73.833 61.5 107.5s55 63.5 90 89.5s75.333 47 121 63s97.167 25 154.5 27v-247c-44 -8.66699 -79.167 -24.167 -105.5 -46.5
s-46.333 -47 -60 -74s-22.667 -54.333 -27 -82s-6.5 -50.834 -6.5 -69.501c0 -39.333 5.83301 -74 17.5 -104s27.834 -55.5 48.501 -76.5s44.834 -36.833 72.501 -47.5s57.167 -16 88.5 -16c28.667 0 57.167 5 85.5 15s53.666 25.333 75.999 46s40.333 46.667 54 78
s20.5 68.333 20.5 111c0 8.66699 -0.666992 20.667 -2 36s-4.33301 32.166 -9 50.499s-11.5 37.166 -20.5 56.499s-21.167 37.333 -36.5 54s-34.333 31 -57 43s-50 20 -82 24v249c80.667 -6.66699 152.167 -25 214.5 -55s115 -74 158 -132s75.667 -131.333 98 -220
s33.5 -194.667 33.5 -318c0 -25.333 -1 -60.5 -3 -105.5s-8.33301 -94.5 -19 -148.5s-27.167 -109.5 -49.5 -166.5s-53.5 -109.5 -93.5 -157.5c-26.667 -31.333 -54.167 -56.666 -82.5 -75.999s-56.833 -35 -85.5 -47s-57.334 -21 -86.001 -27s-57 -11.333 -85 -16v236z
M536 -17.998c-13.333 0 -31.666 0.665039 -54.999 1.99805s-49.333 5.33301 -78 12s-58.667 16.5 -90 29.5s-61 31.5 -89 55.5c-40.667 36 -71.334 76.833 -92.001 122.5s-35.667 96.167 -45 151.5l275 20c5.33301 -36 14.5 -64.333 27.5 -85s27.833 -36.167 44.5 -46.5
s34 -17.166 52 -20.499s34.667 -5.66602 50 -6.99902v-234z" />
    <glyph glyph-name="colon" unicode=":" horiz-adv-x="424" 
d="M327 1026v-264h-327v264h327zM326 263v-264h-327v264h327z" />
    <glyph glyph-name="semicolon" unicode=";" horiz-adv-x="427" 
d="M327 1026v-264h-327v264h327zM326 263v-593h-327v593h327z" />
    <glyph glyph-name="semicolon" unicode="&#x37e;" horiz-adv-x="427" 
d="M327 1026v-264h-327v264h327zM326 263v-593h-327v593h327z" />
    <glyph glyph-name="less" unicode="&#x3c;" 
d="M0 732v78l1062 387v-229l-646 -236h-416zM407 687l653 -238v-229l-1061 386v81h408z" />
    <glyph glyph-name="equal" unicode="=" horiz-adv-x="775" 
d="M672 1069v-264h-672v264h672zM672 701v-264h-672v264h672z" />
    <glyph glyph-name="greater" unicode="&#x3e;" horiz-adv-x="1166" 
d="M645 732l-646 236v229l1062 -387v-78h-416zM1062 687v-81l-1061 -386v229l653 238h408z" />
    <glyph glyph-name="question" unicode="?" horiz-adv-x="1194" 
d="M703 263v-264h-324v264h324zM379 445c0 233.333 88.333 375.667 265 427c26.667 6.66699 47.667 13.667 63 21c49.333 32.667 74 82 74 148c1.33301 70.667 -24.334 116 -77.001 136c-25.333 10.667 -70.666 18.667 -135.999 24l-1 239l93 -2
c290.667 -40 436 -172.333 436 -397v-19c-2 -207.333 -80.667 -338 -236 -392l4 3c-30.667 -16 -64.667 -29.667 -102 -41c-50 -24 -73.667 -79.667 -71 -167l2 -101l-314 -1v122zM520 1201c-73.333 -19.333 -123.331 -40.332 -149.998 -62.999
c-32.667 -24.667 -55.334 -76.334 -68.001 -155.001l-136 9l-164 20v14c29.333 144 76 242.667 140 296c109.333 80.667 234.666 121 375.999 121z" />
    <glyph glyph-name="at" unicode="@" horiz-adv-x="1881" 
d="M1137 31l-69.0059 218h-284l55 190h175v4l-106 378h-4l-221 -790h-208v149l299 878h265l325 -918c73.333 16.667 128.333 60.334 165 131.001c54.667 104 82 231.333 82 382c-13.333 223.333 -90.666 403.333 -231.999 540c-131.333 125.333 -291.333 188 -480 188
c-136.667 0 -267.5 -45.833 -392.5 -137.5s-214.833 -210.167 -269.5 -355.5c-44.667 -118.667 -67 -239 -67 -361c0 -208.667 43.167 -379.167 129.5 -511.5s188 -229.166 305 -290.499s223.167 -92 318.5 -92c182.667 0 374.334 69.333 575.001 208v-75
c-175.333 -122.667 -365.666 -184 -570.999 -184c-160 0 -313.667 40.833 -461 122.5s-261.666 195.667 -342.999 342s-122 300.166 -122 461.499s41.333 316.166 124 464.499s197.834 262.333 345.501 342s299.834 119.5 456.501 119.5c241.333 0 444.333 -76.667 609 -230
s247 -342 247 -566c0 -180 -58.667 -326.333 -176 -439c-75.333 -74.667 -144 -122 -206 -142s-150 -28.667 -264 -26z" />
    <glyph glyph-name="A" unicode="A" horiz-adv-x="1351" 
d="M-12 0l492.001 1431h366l507 -1431h-363l-93 304h-400l76 260h245l-103 341l-15 61.5l-11 46l-10.5 44.5c-3.66699 15.333 -7.83398 35 -12.501 59l-12 -58l-9.5 -43.5l-10 -43.5c-3.66699 -15.333 -8.5 -34.333 -14.5 -57l-270 -914h-362z" />
    <glyph glyph-name="B" unicode="B" horiz-adv-x="1282" 
d="M326 0h-326v1437h326v-1437zM685 1437c230.667 0 376.334 -82.001 437.001 -246.001c14 -32.667 21 -70.334 21 -113.001v-25c0 -90 -44 -172 -132 -246l-46 -26l-24 -8c26 -14 47.333 -25 64 -33c101.333 -60.667 159 -151 173 -271c3.33301 -13.333 5 -29 5 -47
c-5.33301 -85.333 -13.666 -134.666 -24.999 -147.999c-6.66699 -36 -30.334 -78.667 -71.001 -128c-48 -68 -134.667 -116 -260 -144c-33.333 -2 -82 -3 -146 -3h-300v260h300c109.333 28 165 80.667 167 158v42c5.33301 52 -18.334 94.667 -71.001 128
c-10.667 16.667 -42.667 27.334 -96 32.001h-299v271h299l50 4c60.667 26 91 73.667 91 143l-5 36l-10 25c-30 38.667 -72 60.667 -126 66h-303v273h307z" />
    <glyph glyph-name="C" unicode="C" horiz-adv-x="1401" 
d="M656 1173c-83.333 -10 -155.666 -54.002 -216.999 -132.002c-70 -89.333 -105 -197.333 -105 -324c0 -126 35 -233.667 105 -323c61.333 -78.667 133.666 -123 216.999 -133v-260c-176.667 6.66699 -328.334 76.667 -455.001 210c-134 140 -201 309.333 -201 508
s67 368.334 201 509.001c126.667 132.667 278.334 202.334 455.001 209.001v-264zM1319 974.998c-17.333 98.667 -53.333 182.167 -108 250.5s-131 121.166 -229 158.499c-27.333 10.667 -52.833 19 -76.5 25s-46.5 10.667 -68.5 14s-43.333 5.5 -64 6.5
s-41.667 2.16699 -63 3.5v-257c35.333 -3.33301 68 -8.66602 98 -15.999s57.167 -19 81.5 -35s46 -37.333 65 -64s35.5 -61 49.5 -103zM1004 475.998c-14 -42 -30.5 -76.333 -49.5 -103s-40.667 -48 -65 -64s-51.5 -27.667 -81.5 -35s-62.667 -12.666 -98 -15.999v-257
c21.333 0.666992 42.333 1.66699 63 3s42 3.66602 64 6.99902s44.833 8 68.5 14s49.167 14.333 76.5 25c98 37.333 174.333 90 229 158s90.667 151.667 108 251z" />
    <glyph glyph-name="D" unicode="D" horiz-adv-x="1394" 
d="M112 0v1433h324v-1433h-324zM489 0l0.00195312 265c36 -0.666992 68 -0.833984 96 -0.500977s53.5 1.5 76.5 3.5s43.833 5 62.5 9s36.334 9 53.001 15c40.667 14 74.167 36 100.5 66s47.166 64.667 62.499 104s26.166 81.833 32.499 127.5s9.5 91.5 9.5 137.5
c0 36.667 -2.5 75 -7.5 115s-14.333 78.5 -28 115.5s-32.834 70.833 -57.501 101.5s-56.334 54.667 -95.001 72c-18 7.33301 -36.833 13.166 -56.5 17.499s-41.667 7.66602 -66 9.99902s-51.333 3.83301 -81 4.5s-63.5 1.33398 -101.5 2.00098v268h154
c70 -1.33301 132.5 -7.5 187.5 -18.5s104.333 -26.833 148 -47.5s82.5 -45.834 116.5 -75.501s64.667 -63.834 92 -102.501c28 -40 51 -80.833 69 -122.5s32 -82.834 42 -123.501s17 -80.334 21 -119.001s6 -75 6 -109c0 -50 -3.83301 -99.667 -11.5 -149
s-19.667 -97.166 -36 -143.499s-37.166 -90.666 -62.499 -132.999s-55.333 -81.5 -90 -117.5c-39.333 -39.333 -80.333 -70.166 -123 -92.499s-85.5 -39.166 -128.5 -50.499s-85.667 -18.666 -128 -21.999s-82.833 -5.66602 -121.5 -6.99902h-135z" />
    <glyph glyph-name="E" unicode="E" horiz-adv-x="1154" 
d="M326 0h-326v1437h326v-1437zM1054 1434v-264h-672v264h672zM1001 891v-264h-617v264h617zM1057 266v-264h-672v264h672z" />
    <glyph glyph-name="F" unicode="F" horiz-adv-x="1151" 
d="M326 0h-326v1437h326v-1437zM1054 1434v-264h-672v264h672zM1001 891v-264h-617v264h617z" />
    <glyph glyph-name="G" unicode="G" horiz-adv-x="1519" 
d="M753 -35c-90 -2.66699 -169.335 6.49902 -238.002 27.499s-128.167 50.167 -178.5 87.5s-92.333 81 -126 131s-60.667 102.5 -81 157.5s-34.833 111 -43.5 168s-13 111.167 -13 162.5c0 132 19.333 246 58 342s89.834 175.333 153.501 238s136.167 109.334 217.5 140.001
s165 46.667 251 48v-272c-22 -2 -45.667 -6.5 -71 -13.5s-50.666 -17.833 -75.999 -32.5s-49.833 -33.5 -73.5 -56.5s-44.5 -51.333 -62.5 -85s-32.5 -73.334 -43.5 -119.001s-16.5 -98.167 -16.5 -157.5c0 -58.667 3.83301 -109 11.5 -151s16.5 -77.333 26.5 -106
c18.667 -52 41.667 -93.167 69 -123.5s55.333 -53.166 84 -68.499s56.5 -25.333 83.5 -30s49.833 -8 68.5 -10v-277zM776.998 795.999h646.001l-13 -794h-227l-16 170c-32 -41.333 -64.667 -74.666 -98 -99.999s-65.833 -45 -97.5 -59s-61.5 -24 -89.5 -30
s-52.667 -10.667 -74 -14v273c26 3.33301 54.5 8.83301 85.5 16.5s61.667 21.667 92 42s58.666 49.166 84.999 86.499s47.833 87.333 64.5 150h-358v259zM1102 961.999c-14 44.667 -30.5 81.168 -49.5 109.501s-40.667 51.166 -65 68.499s-51.5 30 -81.5 38
s-62.667 13.667 -98 17v274l63 -4c20.667 -1.33301 42 -3.66602 64 -6.99902s44.833 -8.33301 68.5 -15s49.167 -15.334 76.5 -26.001c98 -40 174.333 -96.5 229 -169.5s90.667 -162.167 108 -267.5z" />
    <glyph glyph-name="H" unicode="H" horiz-adv-x="1394" 
d="M112 0v1433h324v-1433h-324zM489 620v267h467v546h322v-1433h-322v620h-467z" />
    <glyph glyph-name="I" unicode="I" horiz-adv-x="427" 
d="M326 0h-326v1437h326v-1437z" />
    <glyph glyph-name="J" unicode="J" horiz-adv-x="1055" 
d="M10 558l313.001 0.000976562c-2 -50.667 -2.83301 -94.167 -2.5 -130.5s4.66602 -66.666 12.999 -90.999s22 -43.5 41 -57.5s46.167 -24 81.5 -30v-276c-38.667 3.33301 -76 7.66602 -112 12.999s-73.667 16.666 -113 33.999c-54 24.667 -95.667 54 -125 88
s-51 70.333 -65 109s-22.5 78 -25.5 118s-4.83301 78.333 -5.5 115v108zM962.001 440.001c-0.666992 -28 -2.33301 -60.5 -5 -97.5s-11 -74.667 -25 -113s-35.833 -75.333 -65.5 -111s-71.5 -66.167 -125.5 -91.5c-4.66699 -2.66699 -13.334 -6.83398 -26.001 -12.501
s-29 -11.5 -49 -17.5s-43.167 -11.333 -69.5 -16s-55.166 -7.33398 -86.499 -8.00098v276c30.667 3.33301 54.5 11.333 71.5 24s29.833 27.334 38.5 44.001s14 33.834 16 51.501s3.33301 33.5 4 47.5v1015h322v-991z" />
    <glyph glyph-name="K" unicode="K" horiz-adv-x="1380" 
d="M330 1434v-1434h-331v1434h331zM828 1434h417v-5l-651 -646l681 -778v-5h-391l-509 595v356z" />
    <glyph glyph-name="L" unicode="L" horiz-adv-x="1139" 
d="M114 0v1434h324v-1434h-324zM489 0v269h628v-269h-628z" />
    <glyph glyph-name="M" unicode="M" horiz-adv-x="1687" 
d="M114 0v1431h302v-1431h-302zM468 773v657.999h94l86.5 -324.5l88.5 -324.5l27 -98l21 -78c6 -23.333 11.333 -45.166 16 -65.499l14 -60.5c4.66699 -20 9 -41 13 -63l14 -74l22 103.5l22 97.5l28 113.5l40 152.5l79 310.5l81 310.5h106v-643l-215 -788h-323z
M1272 -0.000976562v1431h299v-1431h-299z" />
    <glyph glyph-name="N" unicode="N" horiz-adv-x="1273" 
d="M326 0h-326v1348l326 -544v-804zM856 1l-852 1432h310l853 -1433zM843 1434h326v-1348l-326 544v804z" />
    <glyph glyph-name="O" unicode="O" horiz-adv-x="1471" 
d="M656 1173c-83.333 -10 -155.666 -54.002 -216.999 -132.002c-70 -89.333 -105 -197.333 -105 -324c0 -126 35 -233.667 105 -323c61.333 -78.667 133.666 -123 216.999 -133v-260c-176.667 6.66699 -328.334 76.667 -455.001 210c-134 140 -201 309.333 -201 508
s67 368.334 201 509.001c126.667 132.667 278.334 202.334 455.001 209.001v-264zM708 258.998c92.667 4.66699 172 49.667 238 135c70 89.333 105 197 105 323c0 126.667 -35 234.667 -105 324c-66 84.667 -145.333 129.334 -238 134.001v263
c179.333 -6 333.333 -76 462 -210c134 -140.667 201 -310.334 201 -509.001s-67 -368 -201 -508c-128.667 -134.667 -282.667 -205 -462 -211v259z" />
    <glyph glyph-name="P" unicode="P" horiz-adv-x="1218" 
d="M608 1441c192.667 0 332.333 -54.335 419 -163.002c61.333 -93.333 92 -190.666 92 -291.999v-20c0 -116.667 -32.333 -219 -97 -307c-86.667 -117.333 -258.667 -171.666 -516 -162.999h-128v270h261c102 37.333 153 107.333 153 210v26c-22.667 112 -84 170 -184 174
h-230v265h230zM325.999 -0.00195312h-326v1437h326v-1437z" />
    <glyph glyph-name="Q" unicode="Q" horiz-adv-x="1514" 
d="M1077 65c-52 -25.333 -106.663 -44.0029 -163.996 -56.0029s-115.333 -18 -174 -18c-74.667 0 -143.167 9.33301 -205.5 28s-118.333 44.5 -168 77.5s-93.334 72.333 -131.001 118s-69 95.167 -94 148.5s-43.667 109.833 -56 169.5s-18.5 120.167 -18.5 181.5
c0 104 15.167 200.5 45.5 289.5s74.666 166 132.999 231s130.333 116 216 153s183.5 55.5 293.5 55.5c106.667 0 202.5 -18.333 287.5 -55s157.167 -87.334 216.5 -152.001s104.833 -140.667 136.5 -228s47.5 -181.666 47.5 -282.999c0 -56 -4 -106.667 -12 -152
s-17.333 -85 -28 -119s-21.334 -62.5 -32.001 -85.5s-19 -40.167 -25 -51.5l-254 208l8 32c2.66699 10.667 5.16699 22.334 7.5 35.001s4.16602 26.834 5.49902 42.501s2 33.834 2 54.501c0 40.667 -2 81.334 -6 122.001s-12.667 80 -26 118c-11.333 36 -27 69.333 -47 100
s-44 57.167 -72 79.5s-59.5 39.666 -94.5 51.999s-73.167 18.5 -114.5 18.5c-58 0 -109.5 -11.5 -154.5 -34.5s-82.833 -55 -113.5 -96s-54 -89.5 -70 -145.5s-24 -117.333 -24 -184s7.66699 -128.167 23 -184.5s38 -105 68 -146s67 -73 111 -96s94.667 -34.5 152 -34.5
c16 0 30.5 0.833008 43.5 2.5l41.5 5.5zM766.004 385.997l168 203l520 -430l-167 -201z" />
    <glyph glyph-name="R" unicode="R" horiz-adv-x="1294" 
d="M326 0h-326v1437h326v-1437zM981 645c25.333 -26 49.666 -63.665 72.999 -112.998c10 -10.667 18.667 -53.334 26 -128.001l10 -51c22.667 -136 41.334 -222 56.001 -258c9.33301 -27.333 29.666 -59 60.999 -95h-341c-14 1.33301 -34.333 42.666 -61 123.999
c-6 10 -23 105 -51 285c-12 42.667 -39.333 76.667 -82 102c-40 14 -138 21 -294 21v260h261c102 36 153 103.333 153 202v25c-22.667 107.333 -84 163 -184 167h-230v255h230c192.667 0 332.334 -52.333 419.001 -157c61.333 -89.333 92 -183 92 -281v-19
c0 -112 -32.333 -210.333 -97 -295c-12 -16 -25.667 -30.667 -41 -44z" />
    <glyph glyph-name="S" unicode="S" horiz-adv-x="1261" 
d="M368 325c61.333 -35.333 119.666 -56.333 174.999 -63l29 -5l-2 -257c-174 -4.66699 -307.333 31 -400 107c-103.333 66.667 -158.666 182.667 -165.999 348l301 29c5.33301 -70 26.333 -121.667 63 -155v-4zM476 612c-288 52 -432 185.667 -432 401v19
c0 224.667 145.333 357 436 397l90 2l2 -239c-65.333 -5.33301 -110.666 -13.333 -135.999 -24c-52.667 -20 -78.334 -65.333 -77.001 -136c0 -66 83.667 -114.333 251 -145c42 -7.33301 76.333 -14.333 103 -21c296.667 -49.333 445 -190.666 445 -423.999v-20
c0 -239.333 -145.333 -380.333 -436 -423l-98 -3v253c69.333 7.33301 116.666 16.666 141.999 27.999c52.667 21.333 78.334 69.666 77.001 144.999c0 70.667 -82.667 125.334 -248 164.001c-37.333 11.333 -78.333 21 -123 29zM619 1434
c143.333 0 269.668 -40.334 379.001 -121.001c64 -53.333 110.667 -152 140 -296v-14l-164 -20l-136 -9c-12.667 78.667 -35.334 130.334 -68.001 155.001c-26.667 22.667 -76.667 43.667 -150 63z" />
    <glyph glyph-name="T" unicode="T" 
d="M702 3h-326v1111h326v-1111zM1065 1431v-264h-1068v264h1068z" />
    <glyph glyph-name="U" unicode="U" horiz-adv-x="1351" 
d="M97 1431l325.002 0.00292969v-877c0 -35.333 1.33301 -70.5 4 -105.5s11.167 -67.167 25.5 -96.5s36.5 -54 66.5 -74s72.333 -32 127 -36v-277c-18.667 0 -39.667 0.666992 -63 2s-48 4.16602 -74 8.49902s-53 10.666 -81 18.999s-56 19.166 -84 32.499
c-58.667 26.667 -104.334 59 -137.001 97s-56.834 78.833 -72.501 122.5s-25.5 89 -29.5 136s-6.33301 92.833 -7 137.5v911zM1248 564.003c0.666992 -39.333 0.167969 -80.833 -1.49902 -124.5s-7.33398 -87 -17.001 -130s-25.5 -84.333 -47.5 -124
s-53.5 -75.167 -94.5 -106.5s-93 -57.166 -156 -77.499s-140.5 -32.5 -232.5 -36.5v277c56 5.33301 99.167 17.666 129.5 36.999s52.5 43.5 66.5 72.5s22.333 61.833 25 98.5s4 74.667 4 114v867h324v-867z" />
    <glyph glyph-name="V" unicode="V" horiz-adv-x="1309" 
d="M0 1431h350l454 -1431h-304zM684 550l274 881h347l-472 -1348z" />
    <glyph glyph-name="W" unicode="W" horiz-adv-x="1815" 
d="M-2 1431h323l373 -1431h-292zM579 645l172 786h308l351 -1431h-292l-208 945l-187 -848zM1301 670l196 761h318l-377 -1336z" />
    <glyph glyph-name="X" unicode="X" horiz-adv-x="1309" 
d="M-6 0l446 694l182 -282l-264 -412h-364zM33 1431h362l918 -1431h-366zM686 1078l226 353h362l-407 -637z" />
    <glyph glyph-name="Y" unicode="Y" horiz-adv-x="1266" 
d="M-10 1431h358l444 -896v-535h-322v535zM662 916l258 515h356l-451 -842z" />
    <glyph glyph-name="Z" unicode="Z" horiz-adv-x="1309" 
d="M43 0v240l1014 1193h182v-252l-999 -1181h-197zM85 1433h899l-227 -270h-672v270zM310 0l221 263h723v-263h-944z" />
    <glyph glyph-name="bracketleft" unicode="[" horiz-adv-x="760" 
d="M652 1663v-274l-319 1v-1386l319 -1v-276h-650l2 1937z" />
    <glyph glyph-name="backslash" unicode="\" horiz-adv-x="898" 
d="M-8 1437h310l541 -1437h-310z" />
    <glyph glyph-name="bracketright" unicode="]" horiz-adv-x="751" 
d="M650 1664l-1 -1937h-647v276l319 1v1386l-319 -1v274z" />
    <glyph glyph-name="asciicircum" unicode="^" horiz-adv-x="482" 
d="M183 1274l-91 -249h-88l149 409h30v-160zM200 1434h31l149 -408h-88l-92 251v157z" />
    <glyph glyph-name="underscore" unicode="_" horiz-adv-x="1068" 
d="M1069 0v-264h-1069v264h1069z" />
    <glyph glyph-name="grave" unicode="`" horiz-adv-x="372" 
d="M10 1699h221l87 -264h-102z" />
    <glyph glyph-name="a" unicode="a" horiz-adv-x="1351" 
d="M-12 0l492.001 1431h366l507 -1431h-363l-93 304h-400l76 260h245l-103 341l-15 61.5l-11 46l-10.5 44.5c-3.66699 15.333 -7.83398 35 -12.501 59l-12 -58l-9.5 -43.5l-10 -43.5c-3.66699 -15.333 -8.5 -34.333 -14.5 -57l-270 -914h-362z" />
    <glyph glyph-name="b" unicode="b" horiz-adv-x="1282" 
d="M326 0h-326v1437h326v-1437zM685 1437c230.667 0 376.334 -82.001 437.001 -246.001c14 -32.667 21 -70.334 21 -113.001v-25c0 -90 -44 -172 -132 -246l-46 -26l-24 -8c26 -14 47.333 -25 64 -33c101.333 -60.667 159 -151 173 -271c3.33301 -13.333 5 -29 5 -47
c-5.33301 -85.333 -13.666 -134.666 -24.999 -147.999c-6.66699 -36 -30.334 -78.667 -71.001 -128c-48 -68 -134.667 -116 -260 -144c-33.333 -2 -82 -3 -146 -3h-300v260h300c109.333 28 165 80.667 167 158v42c5.33301 52 -18.334 94.667 -71.001 128
c-10.667 16.667 -42.667 27.334 -96 32.001h-299v271h299l50 4c60.667 26 91 73.667 91 143l-5 36l-10 25c-30 38.667 -72 60.667 -126 66h-303v273h307z" />
    <glyph glyph-name="c" unicode="c" horiz-adv-x="1401" 
d="M656 1173c-83.333 -10 -155.666 -54.002 -216.999 -132.002c-70 -89.333 -105 -197.333 -105 -324c0 -126 35 -233.667 105 -323c61.333 -78.667 133.666 -123 216.999 -133v-260c-176.667 6.66699 -328.334 76.667 -455.001 210c-134 140 -201 309.333 -201 508
s67 368.334 201 509.001c126.667 132.667 278.334 202.334 455.001 209.001v-264zM1319 974.998c-17.333 98.667 -53.333 182.167 -108 250.5s-131 121.166 -229 158.499c-27.333 10.667 -52.833 19 -76.5 25s-46.5 10.667 -68.5 14s-43.333 5.5 -64 6.5
s-41.667 2.16699 -63 3.5v-257c35.333 -3.33301 68 -8.66602 98 -15.999s57.167 -19 81.5 -35s46 -37.333 65 -64s35.5 -61 49.5 -103zM1004 475.998c-14 -42 -30.5 -76.333 -49.5 -103s-40.667 -48 -65 -64s-51.5 -27.667 -81.5 -35s-62.667 -12.666 -98 -15.999v-257
c21.333 0.666992 42.333 1.66699 63 3s42 3.66602 64 6.99902s44.833 8 68.5 14s49.167 14.333 76.5 25c98 37.333 174.333 90 229 158s90.667 151.667 108 251z" />
    <glyph glyph-name="d" unicode="d" horiz-adv-x="1394" 
d="M112 0v1433h324v-1433h-324zM489 0l0.00195312 265c36 -0.666992 68 -0.833984 96 -0.500977s53.5 1.5 76.5 3.5s43.833 5 62.5 9s36.334 9 53.001 15c40.667 14 74.167 36 100.5 66s47.166 64.667 62.499 104s26.166 81.833 32.499 127.5s9.5 91.5 9.5 137.5
c0 36.667 -2.5 75 -7.5 115s-14.333 78.5 -28 115.5s-32.834 70.833 -57.501 101.5s-56.334 54.667 -95.001 72c-18 7.33301 -36.833 13.166 -56.5 17.499s-41.667 7.66602 -66 9.99902s-51.333 3.83301 -81 4.5s-63.5 1.33398 -101.5 2.00098v268h154
c70 -1.33301 132.5 -7.5 187.5 -18.5s104.333 -26.833 148 -47.5s82.5 -45.834 116.5 -75.501s64.667 -63.834 92 -102.501c28 -40 51 -80.833 69 -122.5s32 -82.834 42 -123.501s17 -80.334 21 -119.001s6 -75 6 -109c0 -50 -3.83301 -99.667 -11.5 -149
s-19.667 -97.166 -36 -143.499s-37.166 -90.666 -62.499 -132.999s-55.333 -81.5 -90 -117.5c-39.333 -39.333 -80.333 -70.166 -123 -92.499s-85.5 -39.166 -128.5 -50.499s-85.667 -18.666 -128 -21.999s-82.833 -5.66602 -121.5 -6.99902h-135z" />
    <glyph glyph-name="e" unicode="e" horiz-adv-x="1154" 
d="M326 0h-326v1437h326v-1437zM1054 1434v-264h-672v264h672zM1001 891v-264h-617v264h617zM1057 266v-264h-672v264h672z" />
    <glyph glyph-name="f" unicode="f" horiz-adv-x="1151" 
d="M326 0h-326v1437h326v-1437zM1054 1434v-264h-672v264h672zM1001 891v-264h-617v264h617z" />
    <glyph glyph-name="g" unicode="g" horiz-adv-x="1519" 
d="M753 -35c-90 -2.66699 -169.335 6.49902 -238.002 27.499s-128.167 50.167 -178.5 87.5s-92.333 81 -126 131s-60.667 102.5 -81 157.5s-34.833 111 -43.5 168s-13 111.167 -13 162.5c0 132 19.333 246 58 342s89.834 175.333 153.501 238s136.167 109.334 217.5 140.001
s165 46.667 251 48v-272c-22 -2 -45.667 -6.5 -71 -13.5s-50.666 -17.833 -75.999 -32.5s-49.833 -33.5 -73.5 -56.5s-44.5 -51.333 -62.5 -85s-32.5 -73.334 -43.5 -119.001s-16.5 -98.167 -16.5 -157.5c0 -58.667 3.83301 -109 11.5 -151s16.5 -77.333 26.5 -106
c18.667 -52 41.667 -93.167 69 -123.5s55.333 -53.166 84 -68.499s56.5 -25.333 83.5 -30s49.833 -8 68.5 -10v-277zM776.998 795.999h646.001l-13 -794h-227l-16 170c-32 -41.333 -64.667 -74.666 -98 -99.999s-65.833 -45 -97.5 -59s-61.5 -24 -89.5 -30
s-52.667 -10.667 -74 -14v273c26 3.33301 54.5 8.83301 85.5 16.5s61.667 21.667 92 42s58.666 49.166 84.999 86.499s47.833 87.333 64.5 150h-358v259zM1102 961.999c-14 44.667 -30.5 81.168 -49.5 109.501s-40.667 51.166 -65 68.499s-51.5 30 -81.5 38
s-62.667 13.667 -98 17v274l63 -4c20.667 -1.33301 42 -3.66602 64 -6.99902s44.833 -8.33301 68.5 -15s49.167 -15.334 76.5 -26.001c98 -40 174.333 -96.5 229 -169.5s90.667 -162.167 108 -267.5z" />
    <glyph glyph-name="h" unicode="h" horiz-adv-x="1394" 
d="M112 0v1433h324v-1433h-324zM489 620v267h467v546h322v-1433h-322v620h-467z" />
    <glyph glyph-name="i" unicode="i" horiz-adv-x="427" 
d="M326 0h-326v1437h326v-1437z" />
    <glyph glyph-name="j" unicode="j" horiz-adv-x="1055" 
d="M10 558l313.001 0.000976562c-2 -50.667 -2.83301 -94.167 -2.5 -130.5s4.66602 -66.666 12.999 -90.999s22 -43.5 41 -57.5s46.167 -24 81.5 -30v-276c-38.667 3.33301 -76 7.66602 -112 12.999s-73.667 16.666 -113 33.999c-54 24.667 -95.667 54 -125 88
s-51 70.333 -65 109s-22.5 78 -25.5 118s-4.83301 78.333 -5.5 115v108zM962.001 440.001c-0.666992 -28 -2.33301 -60.5 -5 -97.5s-11 -74.667 -25 -113s-35.833 -75.333 -65.5 -111s-71.5 -66.167 -125.5 -91.5c-4.66699 -2.66699 -13.334 -6.83398 -26.001 -12.501
s-29 -11.5 -49 -17.5s-43.167 -11.333 -69.5 -16s-55.166 -7.33398 -86.499 -8.00098v276c30.667 3.33301 54.5 11.333 71.5 24s29.833 27.334 38.5 44.001s14 33.834 16 51.501s3.33301 33.5 4 47.5v1015h322v-991z" />
    <glyph glyph-name="k" unicode="k" horiz-adv-x="1380" 
d="M330 1434v-1434h-331v1434h331zM828 1434h417v-5l-651 -646l681 -778v-5h-391l-509 595v356z" />
    <glyph glyph-name="l" unicode="l" horiz-adv-x="1139" 
d="M114 0v1434h324v-1434h-324zM489 0v269h628v-269h-628z" />
    <glyph glyph-name="m" unicode="m" horiz-adv-x="1687" 
d="M114 0v1431h302v-1431h-302zM468 773v657.999h94l86.5 -324.5l88.5 -324.5l27 -98l21 -78c6 -23.333 11.333 -45.166 16 -65.499l14 -60.5c4.66699 -20 9 -41 13 -63l14 -74l22 103.5l22 97.5l28 113.5l40 152.5l79 310.5l81 310.5h106v-643l-215 -788h-323z
M1272 -0.000976562v1431h299v-1431h-299z" />
    <glyph glyph-name="n" unicode="n" horiz-adv-x="1273" 
d="M326 0h-326v1348l326 -544v-804zM856 1l-852 1432h310l853 -1433zM843 1434h326v-1348l-326 544v804z" />
    <glyph glyph-name="o" unicode="o" horiz-adv-x="1471" 
d="M656 1173c-83.333 -10 -155.666 -54.002 -216.999 -132.002c-70 -89.333 -105 -197.333 -105 -324c0 -126 35 -233.667 105 -323c61.333 -78.667 133.666 -123 216.999 -133v-260c-176.667 6.66699 -328.334 76.667 -455.001 210c-134 140 -201 309.333 -201 508
s67 368.334 201 509.001c126.667 132.667 278.334 202.334 455.001 209.001v-264zM708 258.998c92.667 4.66699 172 49.667 238 135c70 89.333 105 197 105 323c0 126.667 -35 234.667 -105 324c-66 84.667 -145.333 129.334 -238 134.001v263
c179.333 -6 333.333 -76 462 -210c134 -140.667 201 -310.334 201 -509.001s-67 -368 -201 -508c-128.667 -134.667 -282.667 -205 -462 -211v259z" />
    <glyph glyph-name="p" unicode="p" horiz-adv-x="1218" 
d="M608 1441c192.667 0 332.333 -54.335 419 -163.002c61.333 -93.333 92 -190.666 92 -291.999v-20c0 -116.667 -32.333 -219 -97 -307c-86.667 -117.333 -258.667 -171.666 -516 -162.999h-128v270h261c102 37.333 153 107.333 153 210v26c-22.667 112 -84 170 -184 174
h-230v265h230zM325.999 -0.00195312h-326v1437h326v-1437z" />
    <glyph glyph-name="q" unicode="q" horiz-adv-x="1514" 
d="M1077 65c-52 -25.333 -106.663 -44.0029 -163.996 -56.0029s-115.333 -18 -174 -18c-74.667 0 -143.167 9.33301 -205.5 28s-118.333 44.5 -168 77.5s-93.334 72.333 -131.001 118s-69 95.167 -94 148.5s-43.667 109.833 -56 169.5s-18.5 120.167 -18.5 181.5
c0 104 15.167 200.5 45.5 289.5s74.666 166 132.999 231s130.333 116 216 153s183.5 55.5 293.5 55.5c106.667 0 202.5 -18.333 287.5 -55s157.167 -87.334 216.5 -152.001s104.833 -140.667 136.5 -228s47.5 -181.666 47.5 -282.999c0 -56 -4 -106.667 -12 -152
s-17.333 -85 -28 -119s-21.334 -62.5 -32.001 -85.5s-19 -40.167 -25 -51.5l-254 208l8 32c2.66699 10.667 5.16699 22.334 7.5 35.001s4.16602 26.834 5.49902 42.501s2 33.834 2 54.501c0 40.667 -2 81.334 -6 122.001s-12.667 80 -26 118c-11.333 36 -27 69.333 -47 100
s-44 57.167 -72 79.5s-59.5 39.666 -94.5 51.999s-73.167 18.5 -114.5 18.5c-58 0 -109.5 -11.5 -154.5 -34.5s-82.833 -55 -113.5 -96s-54 -89.5 -70 -145.5s-24 -117.333 -24 -184s7.66699 -128.167 23 -184.5s38 -105 68 -146s67 -73 111 -96s94.667 -34.5 152 -34.5
c16 0 30.5 0.833008 43.5 2.5l41.5 5.5zM766.004 385.997l168 203l520 -430l-167 -201z" />
    <glyph glyph-name="r" unicode="r" horiz-adv-x="1294" 
d="M326 0h-326v1437h326v-1437zM981 645c25.333 -26 49.666 -63.665 72.999 -112.998c10 -10.667 18.667 -53.334 26 -128.001l10 -51c22.667 -136 41.334 -222 56.001 -258c9.33301 -27.333 29.666 -59 60.999 -95h-341c-14 1.33301 -34.333 42.666 -61 123.999
c-6 10 -23 105 -51 285c-12 42.667 -39.333 76.667 -82 102c-40 14 -138 21 -294 21v260h261c102 36 153 103.333 153 202v25c-22.667 107.333 -84 163 -184 167h-230v255h230c192.667 0 332.334 -52.333 419.001 -157c61.333 -89.333 92 -183 92 -281v-19
c0 -112 -32.333 -210.333 -97 -295c-12 -16 -25.667 -30.667 -41 -44z" />
    <glyph glyph-name="s" unicode="s" horiz-adv-x="1261" 
d="M368 325c61.333 -35.333 119.666 -56.333 174.999 -63l29 -5l-2 -257c-174 -4.66699 -307.333 31 -400 107c-103.333 66.667 -158.666 182.667 -165.999 348l301 29c5.33301 -70 26.333 -121.667 63 -155v-4zM476 612c-288 52 -432 185.667 -432 401v19
c0 224.667 145.333 357 436 397l90 2l2 -239c-65.333 -5.33301 -110.666 -13.333 -135.999 -24c-52.667 -20 -78.334 -65.333 -77.001 -136c0 -66 83.667 -114.333 251 -145c42 -7.33301 76.333 -14.333 103 -21c296.667 -49.333 445 -190.666 445 -423.999v-20
c0 -239.333 -145.333 -380.333 -436 -423l-98 -3v253c69.333 7.33301 116.666 16.666 141.999 27.999c52.667 21.333 78.334 69.666 77.001 144.999c0 70.667 -82.667 125.334 -248 164.001c-37.333 11.333 -78.333 21 -123 29zM619 1434
c143.333 0 269.668 -40.334 379.001 -121.001c64 -53.333 110.667 -152 140 -296v-14l-164 -20l-136 -9c-12.667 78.667 -35.334 130.334 -68.001 155.001c-26.667 22.667 -76.667 43.667 -150 63z" />
    <glyph glyph-name="t" unicode="t" 
d="M702 3h-326v1111h326v-1111zM1065 1431v-264h-1068v264h1068z" />
    <glyph glyph-name="u" unicode="u" horiz-adv-x="1351" 
d="M97 1431l325.002 0.00292969v-877c0 -35.333 1.33301 -70.5 4 -105.5s11.167 -67.167 25.5 -96.5s36.5 -54 66.5 -74s72.333 -32 127 -36v-277c-18.667 0 -39.667 0.666992 -63 2s-48 4.16602 -74 8.49902s-53 10.666 -81 18.999s-56 19.166 -84 32.499
c-58.667 26.667 -104.334 59 -137.001 97s-56.834 78.833 -72.501 122.5s-25.5 89 -29.5 136s-6.33301 92.833 -7 137.5v911zM1248 564.003c0.666992 -39.333 0.167969 -80.833 -1.49902 -124.5s-7.33398 -87 -17.001 -130s-25.5 -84.333 -47.5 -124
s-53.5 -75.167 -94.5 -106.5s-93 -57.166 -156 -77.499s-140.5 -32.5 -232.5 -36.5v277c56 5.33301 99.167 17.666 129.5 36.999s52.5 43.5 66.5 72.5s22.333 61.833 25 98.5s4 74.667 4 114v867h324v-867z" />
    <glyph glyph-name="v" unicode="v" horiz-adv-x="1309" 
d="M0 1431h350l454 -1431h-304zM684 550l274 881h347l-472 -1348z" />
    <glyph glyph-name="w" unicode="w" horiz-adv-x="1815" 
d="M-2 1431h323l373 -1431h-292zM579 645l172 786h308l351 -1431h-292l-208 945l-187 -848zM1301 670l196 761h318l-377 -1336z" />
    <glyph glyph-name="x" unicode="x" horiz-adv-x="1309" 
d="M-6 0l446 694l182 -282l-264 -412h-364zM33 1431h362l918 -1431h-366zM686 1078l226 353h362l-407 -637z" />
    <glyph glyph-name="y" unicode="y" horiz-adv-x="1266" 
d="M-10 1431h358l444 -896v-535h-322v535zM662 916l258 515h356l-451 -842z" />
    <glyph glyph-name="z" unicode="z" horiz-adv-x="1309" 
d="M43 0v240l1014 1193h182v-252l-999 -1181h-197zM85 1433h899l-227 -270h-672v270zM310 0l221 263h723v-263h-944z" />
    <glyph glyph-name="braceleft" unicode="{" horiz-adv-x="1053" 
d="M248 586h-248v264h248v-264zM952 1666l0.000976562 -265l-141 1c-98 -4.66699 -158.333 -63 -181 -175v-1018c0 -102.667 51 -170.667 153 -204c20 -3.33301 39 -5 57 -5l112 -1v-270h-88c-204.667 0 -347.334 44.333 -428.001 133c-88.667 108 -133 220.333 -133 337
v1012c0 101.333 30.667 200.333 92 297c87.333 105.333 227 158 419 158h138z" />
    <glyph glyph-name="bar" unicode="|" horiz-adv-x="399" 
d="M326 1502v-1603h-326v1603h326z" />
    <glyph glyph-name="braceright" unicode="}" horiz-adv-x="1050" 
d="M700 850h248v-264h-248v264zM141 1666c192 0 331.668 -52.667 419.001 -158c61.333 -96.667 92 -195.667 92 -297v-1012c0 -116.667 -44.333 -229 -133 -337c-80.667 -88.667 -223.334 -133 -428.001 -133h-88v270l112 1c18 0 37 1.66699 57 5
c102 33.333 153 101.333 153 204v1018c-22.667 112 -83 170.333 -181 175l-141 -1v265h138z" />
    <glyph glyph-name="asciitilde" unicode="~" horiz-adv-x="785" 
d="M342 666c-2.66699 4 -6.00391 8 -10.0039 12l-3 3l-16 13c-24.667 18 -52.667 27 -84 27c-40 0 -74 -14.333 -102 -43c-14.667 -15.333 -25.334 -32 -32.001 -50v-13h-92l3 31c10.667 35.333 30.334 67.333 59.001 96c24.667 24.667 52 43 82 55
c38.667 14 84.667 16.667 138 8c40.667 -9.33301 77.334 -30.333 110.001 -63c4 -3.33301 7.33301 -6.66602 10 -9.99902c24 -18.667 52.667 -28 86 -28c40 0 74.333 13.667 103 41c16.667 18 28.334 38 35.001 60h92c-4 -22 -10.667 -42.333 -20 -61l-6 -10
c-10 -18 -22.667 -35.333 -38 -52c-24 -22.667 -50 -39.667 -78 -51l-15 -6c-23.333 -6.66699 -47.666 -10 -72.999 -10c-33.333 0 -64 6.33301 -92 19l-11 4c-15.333 7.33301 -30.666 16.666 -45.999 27.999z" />
    <glyph glyph-name="exclamdown" unicode="&#xa1;" horiz-adv-x="399" 
d="M0.0195312 1173.02v263.984h325.98v-263.984h-325.98zM326 1108.02v-1107.93h-325.98v1107.93h325.98z" />
    <glyph glyph-name="cent" unicode="&#xa2;" horiz-adv-x="1404" 
d="M656 1173c-83.333 -10 -155.666 -54.002 -216.999 -132.002c-70 -89.333 -105 -197.333 -105 -324c0 -126 35 -233.667 105 -323c61.333 -78.667 133.666 -123 216.999 -133v-260c-176.667 6.66699 -328.334 76.667 -455.001 210c-134 140 -201 309.333 -201 508
s67 368.334 201 509.001c126.667 132.667 278.334 202.334 455.001 209.001v-264zM946 1041c-66 84.667 -145.332 129.334 -237.999 134.001v263c179.333 -6 333.333 -76 462 -210c65.333 -68.667 114.666 -144.334 147.999 -227.001l-284 -140
c-16.667 66.667 -46 126.667 -88 180zM1170 210.998c-128.667 -134.667 -282.667 -205 -462 -211v259c92.667 4.66699 172 49.667 238 135c32.667 42 57.667 88 75 138l276 -143c-32 -64 -74.333 -123.333 -127 -178zM827.001 1752v-264h-308v264h308zM833.001 -49.002v-264
h-308v264h308z" />
    <glyph glyph-name="sterling" unicode="&#xa3;" horiz-adv-x="1169" 
d="M1069 268v-264h-1069v264h1069zM922 789v-264h-327v264h327zM773 1112v318c84 2 148.667 -4 194 -18c40 -10 76.333 -25.667 109 -47l-198 -288c-26.667 18 -61.667 29.667 -105 35zM203 978c32.667 247.333 133.667 392 303 434c45.333 14 110 20 194 18v-318
c-112 -14 -169 -69.667 -171 -167l-1 -638l-327 1z" />
    <glyph glyph-name="brokenbar" unicode="&#xa6;" horiz-adv-x="427" 
d="M0 752v750h326v-750h-326zM326 651v-752h-326v752h326z" />
    <glyph glyph-name="section" unicode="&#xa7;" horiz-adv-x="1261" 
d="M614 1602c143.333 0 269.668 -40.334 379.001 -121.001c64 -53.333 110.667 -152 140 -296v-14l-164 -20l-136 -9c-12.667 78.667 -35.334 130.334 -68.001 155.001c-26.667 22.667 -76.667 43.667 -150 63zM795.002 465.999c30 26 44.335 67.332 43.002 123.999
c0 70.667 -82.667 125.334 -248 164.001c-37.333 11.333 -78.333 21 -123 29l4 -3c-12.667 2 -25.334 4.33301 -38.001 7c-0.666992 0 -1.66699 -0.333008 -3 -1c-52.667 -20 -78.334 -65.333 -77.001 -136c0 -66 83.667 -114.333 251 -145
c42 -7.33301 76.333 -14.333 103 -21c30.667 -5.33301 60 -11.333 88 -18zM148.004 917.998c-72.667 67.333 -109 155.002 -109 263.002v19c0 224.667 145.333 357 436 397l90 2l2 -239c-65.333 -5.33301 -110.666 -13.333 -135.999 -24
c-52.667 -20 -78.334 -65.333 -77.001 -136c0 -66 83.667 -114.333 251 -145c42 -7.33301 76.333 -14.333 103 -21c296.667 -49.333 445 -190.666 445 -423.999v-20c0 -110.667 -31 -200.334 -93 -269.001c61.333 -68 92 -155 92 -261v-20
c0 -239.333 -145.333 -380.333 -436 -423l-98 -3v253c69.333 7.33301 116.666 16.666 141.999 27.999c52.667 21.333 78.334 69.666 77.001 144.999c0 50.667 -42 93 -126 127l-92 30c-10 2 -20 4.33301 -30 7c-37.333 11.333 -78.333 21 -123 29l4 -3
c-288 52 -432 185.667 -432 401v19c0 112.667 36.667 202 110 268zM362.004 -57c61.333 -35.333 119.666 -56.333 174.999 -63l29 -5l-2 -257c-174 -4.66699 -307.333 31 -400 107c-103.333 66.667 -158.666 182.667 -165.999 348l301 29
c5.33301 -70 26.333 -121.667 63 -155v-4z" />
    <glyph glyph-name="dieresis" unicode="&#xa8;" horiz-adv-x="577" 
d="M0 1436v188h215v-188h-215zM280 1436v188h215v-188h-215z" />
    <glyph glyph-name="copyright" unicode="&#xa9;" horiz-adv-x="1581" 
d="M739 1456c96.667 0 190 -18.835 280 -56.502s169.667 -91.167 239 -160.5c68 -67.333 120.833 -146.666 158.5 -237.999s56.5 -185.666 56.5 -282.999c0 -98 -18.833 -192 -56.5 -282s-91.834 -170 -162.501 -240c-70 -70 -149.667 -123.167 -239 -159.5
s-183.666 -54.5 -282.999 -54.5c-97.333 0 -190 18.5 -278 55.5s-167.333 90.5 -238 160.5c-70.667 69.333 -124.5 148.5 -161.5 237.5s-55.5 183.167 -55.5 282.5c0 98.667 18.5 193 55.5 283s90.167 169.333 159.5 238c68 69.333 147.5 122.833 238.5 160.5
s186.5 56.5 286.5 56.5zM256 1197c-63.333 -64 -112.004 -137.168 -146.004 -219.501s-51 -168.833 -51 -259.5c0 -91.333 17 -177.666 51 -258.999s83.333 -154.333 148 -219c65.333 -64 138.333 -113 219 -147s166 -51 256 -51c91.333 0 177.833 16.833 259.5 50.5
s154.834 82.167 219.501 145.5c64.667 65.333 114.334 139.166 149.001 221.499s52 168.5 52 258.5c0 89.333 -17.333 175.833 -52 259.5s-83 156.834 -145 219.501c-64 64 -137.333 113.167 -220 147.5s-168.667 51.5 -258 51.5c-91.333 0 -178.666 -17.167 -261.999 -51.5
s-156.666 -83.5 -219.999 -147.5zM718.996 1051c-62 -7.33301 -116 -40.334 -162 -99.001c-52 -66.667 -78 -147.334 -78 -242.001c0 -94 26 -174.333 78 -241c46 -59.333 100 -92.666 162 -99.999v-194c-132 4.66699 -245.333 57 -340 157
c-100 104.667 -150 231.334 -150 380.001c0 148 50 274.667 150 380c94.667 99.333 208 151.333 340 156v-197zM935.996 951.996c-49.333 63.333 -108.668 96.667 -178.001 100v197c134 -4.66699 249.333 -57 346 -157c48.667 -51.333 85.334 -108 110.001 -170l-212 -104
c-12.667 49.333 -34.667 94 -66 134zM1103.99 331.997c-96.667 -100.667 -212 -153.332 -346 -157.999v194c69.333 3.33301 128.666 37 177.999 101c24.667 31.333 43.334 65.666 56.001 102.999l207 -107c-24 -48 -55.667 -92.333 -95 -133z" />
    <glyph glyph-name="registered" unicode="&#xae;" horiz-adv-x="1581" 
d="M739 1456c96.667 0 190 -18.835 280 -56.502s169.667 -91.167 239 -160.5c68 -67.333 120.833 -146.666 158.5 -237.999s56.5 -185.666 56.5 -282.999c0 -98 -18.833 -192 -56.5 -282s-91.834 -170 -162.501 -240c-70 -70 -149.667 -123.167 -239 -159.5
s-183.666 -54.5 -282.999 -54.5c-97.333 0 -190 18.5 -278 55.5s-167.333 90.5 -238 160.5c-70.667 69.333 -124.5 148.5 -161.5 237.5s-55.5 183.167 -55.5 282.5c0 98.667 18.5 193 55.5 283s90.167 169.333 159.5 238c68 69.333 147.5 122.833 238.5 160.5
s186.5 56.5 286.5 56.5zM256 1197c-63.333 -64 -112.004 -137.168 -146.004 -219.501s-51 -168.833 -51 -259.5c0 -91.333 17 -177.666 51 -258.999s83.333 -154.333 148 -219c65.333 -64 138.333 -113 219 -147s166 -51 256 -51c91.333 0 177.833 16.833 259.5 50.5
s154.834 82.167 219.501 145.5c64.667 65.333 114.334 139.166 149.001 221.499s52 168.5 52 258.5c0 89.333 -17.333 175.833 -52 259.5s-83 156.834 -145 219.501c-64 64 -137.333 113.167 -220 147.5s-168.667 51.5 -258 51.5c-91.333 0 -178.666 -17.167 -261.999 -51.5
s-156.666 -83.5 -219.999 -147.5zM590.996 298.997h-213v938h213v-938zM1019 719.997c16 -16.667 31.665 -41.3311 46.998 -73.998c6.66699 -6.66699 12.334 -34.334 17.001 -83.001l7 -33l19 -104c4.66699 -10.667 10.334 -31.334 17.001 -62.001l40 -65l-222 1
c-8 0 -21.333 26.667 -40 80c-4 6.66699 -15.333 68.667 -34 186c-7.33301 28 -25 50.333 -53 67c-26 8.66699 -90 13 -192 13v170h170c66.667 23.333 100 67.333 100 132v16c-14.667 70.667 -54.667 107 -120 109h-150v167h150c126 0 217.333 -34.333 274 -103
c40 -58 60 -119 60 -183v-12c0 -73.333 -21.333 -137.666 -64 -192.999c-7.33301 -10.667 -16 -20.334 -26 -29.001z" />
    <glyph glyph-name="plusminus" unicode="&#xb1;" horiz-adv-x="867" 
d="M521 1290v-670h-271v670h271zM212 822h-209v264h209v-264zM565 1086h199v-264h-199v264zM763 534v-264h-763v264h763z" />
    <glyph glyph-name="acute" unicode="&#xb4;" horiz-adv-x="372" 
d="M112 1435h-102l87 264h221z" />
    <glyph glyph-name="paragraph" unicode="&#xb6;" horiz-adv-x="1618" 
d="M742 1438l-0.000976562 -944.999h-128c-249.333 -4.66699 -421.333 49.666 -516 162.999c-64.667 88 -97 190.333 -97 307v20c0 101.333 30.667 200.333 92 297c86.667 105.333 226.334 158 419.001 158h230zM1120 1171v-1174h-326v1437h723v-1437h-326v1174h-71z" />
    <glyph glyph-name="periodcentered" unicode="&#xb7;" horiz-adv-x="399" 
d="M326 798v-264h-326v264h326z" />
    <glyph glyph-name="periodcentered" unicode="&#x2219;" horiz-adv-x="399" 
d="M326 798v-264h-326v264h326z" />
    <glyph glyph-name="cedilla" unicode="&#xb8;" horiz-adv-x="376" 
d="M164 0c26.667 0 50.998 -5.33203 72.998 -15.999l7 -4c12.667 -7.33301 24.667 -16.333 36 -27c16 -16.667 28 -34.667 36 -54l4 -11c4.66699 -16 7 -33 7 -51c0 -23.333 -4.33301 -44.666 -13 -63.999c-8.66699 -18.667 -18.667 -34 -30 -46l-6 -7
c-18.667 -18 -39.334 -30.667 -62.001 -38l-30 -7c-7.33301 -0.666992 -14.666 -1 -21.999 -1s-14.666 0.333008 -21.999 1l-26 6c-24.667 7.33301 -47 21 -67 41c-17.333 17.333 -30 36.666 -38 57.999l-7 40v17h60c0 -28 10 -51.667 30 -71
c10.667 -10.667 22.334 -18.334 35.001 -23.001l18 -5c5.33301 -0.666992 11 -1 17 -1c28 0 51.833 9.66699 71.5 29s29.5 43 29.5 71s-9.83301 51.833 -29.5 71.5s-43.5 29.5 -71.5 29.5v62z" />
    <glyph glyph-name="questiondown" unicode="&#xbf;" horiz-adv-x="1194" 
d="M395.043 1171.02v263.984h323.98v-263.984h-323.98zM719.023 989.027c0 -233.319 -88.3271 -375.644 -264.983 -426.975c-26.665 -6.66602 -47.6641 -13.665 -62.9971 -20.998c-49.3301 -32.665 -73.9951 -81.9951 -73.9951 -147.991
c-1.33301 -70.6621 24.332 -115.992 76.9951 -135.991c25.332 -10.667 70.6631 -18.667 135.992 -24l0.999023 -238.985l-92.9941 2c-290.649 39.9971 -435.974 172.322 -435.974 396.976v18.999c2 207.32 80.6621 337.979 235.986 391.976l-4 -2.99902
c30.665 15.999 64.6631 29.665 101.994 40.998c49.9971 23.999 73.6621 79.6621 70.9951 166.99l-2 100.993l313.981 1v-121.992zM578.032 233.074c73.3291 19.332 123.327 40.332 149.992 62.9971c32.665 24.665 55.3301 76.3281 67.9961 154.989l135.991 -8.99902
l163.99 -19.999v-13.999c-29.3311 -143.991 -75.9951 -242.651 -139.991 -295.981c-109.327 -80.6621 -234.653 -120.993 -375.979 -120.993z" />
    <glyph glyph-name="Agrave" unicode="&#xc0;" horiz-adv-x="1359" 
d="M788 1434l507 -1434h-370l-96 305h-397l77 265h244v5l-148 528h-5l-310 -1103h-290v208l417 1226h371zM342 1841h221l87 -264h-102z" />
    <glyph glyph-name="Aacute" unicode="&#xc1;" horiz-adv-x="1359" 
d="M788 1434l507 -1434h-370l-96 305h-397l77 265h244v5l-148 528h-5l-310 -1103h-290v208l417 1226h371zM647 1577h-102l87 264h221z" />
    <glyph glyph-name="Acircumflex" unicode="&#xc2;" horiz-adv-x="1359" 
d="M788 1434l507 -1434h-370l-96 305h-397l77 265h244v5l-148 528h-5l-310 -1103h-290v208l417 1226h371zM598 1764l-148 -188h-122l209 264h122l209 -264h-122z" />
    <glyph glyph-name="Atilde" unicode="&#xc3;" horiz-adv-x="1359" 
d="M788 1434l507 -1434h-370l-96 305h-397l77 265h244v5l-148 528h-5l-310 -1103h-290v208l417 1226h371zM584 1626c-2 2.66699 -4.33008 5.33398 -6.99707 8.00098l-2 2l-11 9c-17.333 12.667 -37 19 -59 19c-28 0 -51.667 -10 -71 -30
c-10.667 -10.667 -18.334 -22.334 -23.001 -35.001v-9h-64l2 22c7.33301 24.667 21 47 41 67c17.333 17.333 36.666 30 57.999 38l40 7h36l20 -1c28.667 -6.66699 54.334 -21.334 77.001 -44.001l7 -7c16.667 -13.333 36.667 -20 60 -20c28 0 52 9.66699 72 29
c12 12.667 20.333 26.667 25 42h64c-2.66699 -15.333 -7.33398 -29.666 -14.001 -42.999l-4 -7c-7.33301 -12.667 -16.333 -24.667 -27 -36c-16.667 -16 -34.667 -28 -54 -36l-11 -4c-16 -4.66699 -33 -7 -51 -7c-30 0 -54 5.33301 -72 16
c-10.667 5.33301 -21.334 12 -32.001 20z" />
    <glyph glyph-name="Adieresis" unicode="&#xc4;" horiz-adv-x="1359" 
d="M788 1434l507 -1434h-370l-96 305h-397l77 265h244v5l-148 528h-5l-310 -1103h-290v208l417 1226h371zM350 1588v188h215v-188h-215zM630 1588v188h215v-188h-215z" />
    <glyph glyph-name="Aring" unicode="&#xc5;" horiz-adv-x="1359" 
d="M788 1434l507 -1434h-370l-96 305h-397l77 265h244v5l-148 528h-5l-310 -1103h-290v208l417 1226h371zM570 1587l-0.000976562 -64.9971l-22 3c-24.667 7.33301 -47 21 -67 41c-17.333 17.333 -30 36.666 -38 57.999l-7 40v36l1 20
c6.66699 28.667 21.334 54.334 44.001 77.001c16 15.333 33.333 27 52 35h5l3 3c9.33301 3.33301 19 5.66602 29 6.99902v-63c-16.667 -4.66699 -31.334 -13.334 -44.001 -26.001l-11 -13c-12.667 -17.333 -19 -37 -19 -59c0 -28 10 -51.667 30 -71
c10.667 -10.667 22.334 -18.334 35.001 -23.001h9zM625.999 1778l0.00195312 64c15.333 -2.66699 29.666 -7.33398 42.999 -14.001l7 -4c12.667 -7.33301 24.667 -16.333 36 -27c16 -16.667 28 -34.667 36 -54l4 -11c4.66699 -16 7 -33 7 -51
c0 -23.333 -4.33301 -44.666 -13 -63.999l-3 -8c-6.66699 -13.333 -15.667 -26 -27 -38l-6 -7c-18.667 -18 -39.334 -30.667 -62.001 -38l-22 -4v63c15.333 4.66699 29.333 13 42 25c19.333 19.333 29 43 29 71s-9.66699 52 -29 72c-12.667 12 -26.667 20.333 -42 25z" />
    <glyph glyph-name="AE" unicode="&#xc6;" horiz-adv-x="1768" 
d="M605 306h-171l77 265h94v533h-3l-310 -1103h-290v208l417 1226h512v-1437h-326v308zM1662 264v-264h-672v264h672zM1606 889v-264h-617v264h617zM1659 1432v-264h-672v264h672z" />
    <glyph glyph-name="Ccedilla" unicode="&#xc7;" horiz-adv-x="1401" 
d="M656 1173c-83.333 -10 -155.666 -54.002 -216.999 -132.002c-70 -89.333 -105 -197.333 -105 -324c0 -126 35 -233.667 105 -323c61.333 -78.667 133.666 -123 216.999 -133v-260c-176.667 6.66699 -328.334 76.667 -455.001 210c-134 140 -201 309.333 -201 508
s67 368.334 201 509.001c126.667 132.667 278.334 202.334 455.001 209.001v-264zM1319 974.998c-17.333 98.667 -53.333 182.167 -108 250.5s-131 121.166 -229 158.499c-27.333 10.667 -52.833 19 -76.5 25s-46.5 10.667 -68.5 14s-43.333 5.5 -64 6.5
s-41.667 2.16699 -63 3.5v-257c35.333 -3.33301 68 -8.66602 98 -15.999s57.167 -19 81.5 -35s46 -37.333 65 -64s35.5 -61 49.5 -103zM1004 475.998c-14 -42 -30.5 -76.333 -49.5 -103s-40.667 -48 -65 -64s-51.5 -27.667 -81.5 -35s-62.667 -12.666 -98 -15.999v-257
c21.333 0.666992 42.333 1.66699 63 3s42 3.66602 64 6.99902s44.833 8 68.5 14s49.167 14.333 76.5 25c98 37.333 174.333 90 229 158s90.667 151.667 108 251zM708 -0.00195312c26.667 0 50.998 -5.33203 72.998 -15.999l7 -4c12.667 -7.33301 24.667 -16.333 36 -27
c16 -16.667 28 -34.667 36 -54l4 -11c4.66699 -16 7 -33 7 -51c0 -23.333 -4.33301 -44.666 -13 -63.999c-8.66699 -18.667 -18.667 -34 -30 -46l-6 -7c-18.667 -18 -39.334 -30.667 -62.001 -38l-30 -7c-7.33301 -0.666992 -14.666 -1 -21.999 -1
s-14.666 0.333008 -21.999 1l-26 6c-24.667 7.33301 -47 21 -67 41c-17.333 17.333 -30 36.666 -38 57.999l-7 40v17h60c0 -28 10 -51.667 30 -71c10.667 -10.667 22.334 -18.334 35.001 -23.001l18 -5c5.33301 -0.666992 11 -1 17 -1c28 0 51.833 9.66699 71.5 29
s29.5 43 29.5 71s-9.83301 51.833 -29.5 71.5s-43.5 29.5 -71.5 29.5v62z" />
    <glyph glyph-name="Egrave" unicode="&#xc8;" horiz-adv-x="1154" 
d="M326 0h-326v1437h326v-1437zM1054 1434v-264h-672v264h672zM1001 891v-264h-617v264h617zM1057 266v-264h-672v264h672zM283 1841h221l87 -264h-102z" />
    <glyph glyph-name="Eacute" unicode="&#xc9;" horiz-adv-x="1154" 
d="M326 0h-326v1437h326v-1437zM1054 1434v-264h-672v264h672zM1001 891v-264h-617v264h617zM1057 266v-264h-672v264h672zM568 1577h-102l87 264h221z" />
    <glyph glyph-name="Ecircumflex" unicode="&#xca;" horiz-adv-x="1154" 
d="M326 0h-326v1437h326v-1437zM1054 1434v-264h-672v264h672zM1001 891v-264h-617v264h617zM1057 266v-264h-672v264h672zM529 1764l-148 -188h-122l209 264h122l209 -264h-122z" />
    <glyph glyph-name="Edieresis" unicode="&#xcb;" horiz-adv-x="1154" 
d="M326 0h-326v1437h326v-1437zM1054 1434v-264h-672v264h672zM1001 891v-264h-617v264h617zM1057 266v-264h-672v264h672zM281 1588v188h215v-188h-215zM561 1588v188h215v-188h-215z" />
    <glyph glyph-name="Igrave" unicode="&#xcc;" horiz-adv-x="427" 
d="M326 0h-326v1437h326v-1437zM-92 1841h221l87 -264h-102z" />
    <glyph glyph-name="Iacute" unicode="&#xcd;" horiz-adv-x="427" 
d="M326 0h-326v1437h326v-1437zM202 1577h-102l87 264h221z" />
    <glyph glyph-name="Icircumflex" unicode="&#xce;" horiz-adv-x="427" 
d="M326 0h-326v1437h326v-1437zM163 1764l-148 -188h-122l209 264h122l209 -264h-122z" />
    <glyph glyph-name="Idieresis" unicode="&#xcf;" horiz-adv-x="427" 
d="M327 0h-326v1437h326v-1437zM-84 1578v188h215v-188h-215zM196 1578v188h215v-188h-215z" />
    <glyph glyph-name="Eth" unicode="&#xd0;" horiz-adv-x="1408" 
d="M992 1002c-22.667 112 -84 168.998 -184 170.998l-230 3v265h230c192.667 0 332.334 -54.333 419.001 -163c61.333 -93.333 92 -190.666 92 -291.999v-530c0 -101.333 -30.667 -198.666 -92 -291.999c-86.667 -108.667 -226.334 -163 -419.001 -163h-230v265l230 3
c100 2 161.333 59 184 171v562zM526 588.998v-589h-326v589h-200v264h200v584h326v-584h186v-264h-186z" />
    <glyph glyph-name="Ntilde" unicode="&#xd1;" horiz-adv-x="1273" 
d="M326 0h-326v1348l326 -544v-804zM856 1l-852 1432h310l853 -1433zM843 1434h326v-1348l-326 544v804zM571 1616c-2 2.66699 -4.33008 5.33398 -6.99707 8.00098l-2 2l-11 9c-17.333 12.667 -37 19 -59 19c-28 0 -51.667 -10 -71 -30
c-10.667 -10.667 -18.334 -22.334 -23.001 -35.001v-9h-64l2 22c7.33301 24.667 21 47 41 67c17.333 17.333 36.666 30 57.999 38l40 7h36l20 -1c28.667 -6.66699 54.334 -21.334 77.001 -44.001l7 -7c16.667 -13.333 36.667 -20 60 -20c28 0 52 9.66699 72 29
c12 12.667 20.333 26.667 25 42h64c-2.66699 -15.333 -7.33398 -29.666 -14.001 -42.999l-4 -7c-7.33301 -12.667 -16.333 -24.667 -27 -36c-16.667 -16 -34.667 -28 -54 -36l-11 -4c-16 -4.66699 -33 -7 -51 -7c-30 0 -54 5.33301 -72 16
c-10.667 5.33301 -21.334 12 -32.001 20z" />
    <glyph glyph-name="Ograve" unicode="&#xd2;" horiz-adv-x="1471" 
d="M656 1173c-83.333 -10 -155.666 -54.002 -216.999 -132.002c-70 -89.333 -105 -197.333 -105 -324c0 -126 35 -233.667 105 -323c61.333 -78.667 133.666 -123 216.999 -133v-260c-176.667 6.66699 -328.334 76.667 -455.001 210c-134 140 -201 309.333 -201 508
s67 368.334 201 509.001c126.667 132.667 278.334 202.334 455.001 209.001v-264zM708 258.998c92.667 4.66699 172 49.667 238 135c70 89.333 105 197 105 323c0 126.667 -35 234.667 -105 324c-66 84.667 -145.333 129.334 -238 134.001v263
c179.333 -6 333.333 -76 462 -210c134 -140.667 201 -310.334 201 -509.001s-67 -368 -201 -508c-128.667 -134.667 -282.667 -205 -462 -211v259zM430 1841h221l87 -264h-102z" />
    <glyph glyph-name="Oacute" unicode="&#xd3;" horiz-adv-x="1471" 
d="M656 1173c-83.333 -10 -155.666 -54.002 -216.999 -132.002c-70 -89.333 -105 -197.333 -105 -324c0 -126 35 -233.667 105 -323c61.333 -78.667 133.666 -123 216.999 -133v-260c-176.667 6.66699 -328.334 76.667 -455.001 210c-134 140 -201 309.333 -201 508
s67 368.334 201 509.001c126.667 132.667 278.334 202.334 455.001 209.001v-264zM708 258.998c92.667 4.66699 172 49.667 238 135c70 89.333 105 197 105 323c0 126.667 -35 234.667 -105 324c-66 84.667 -145.333 129.334 -238 134.001v263
c179.333 -6 333.333 -76 462 -210c134 -140.667 201 -310.334 201 -509.001s-67 -368 -201 -508c-128.667 -134.667 -282.667 -205 -462 -211v259zM735 1577h-102l87 264h221z" />
    <glyph glyph-name="Ocircumflex" unicode="&#xd4;" horiz-adv-x="1471" 
d="M656 1173c-83.333 -10 -155.666 -54.002 -216.999 -132.002c-70 -89.333 -105 -197.333 -105 -324c0 -126 35 -233.667 105 -323c61.333 -78.667 133.666 -123 216.999 -133v-260c-176.667 6.66699 -328.334 76.667 -455.001 210c-134 140 -201 309.333 -201 508
s67 368.334 201 509.001c126.667 132.667 278.334 202.334 455.001 209.001v-264zM708 258.998c92.667 4.66699 172 49.667 238 135c70 89.333 105 197 105 323c0 126.667 -35 234.667 -105 324c-66 84.667 -145.333 129.334 -238 134.001v263
c179.333 -6 333.333 -76 462 -210c134 -140.667 201 -310.334 201 -509.001s-67 -368 -201 -508c-128.667 -134.667 -282.667 -205 -462 -211v259zM686 1764l-148 -188h-122l209 264h122l209 -264h-122z" />
    <glyph glyph-name="Otilde" unicode="&#xd5;" horiz-adv-x="1471" 
d="M656 1173c-83.333 -10 -155.666 -54.002 -216.999 -132.002c-70 -89.333 -105 -197.333 -105 -324c0 -126 35 -233.667 105 -323c61.333 -78.667 133.666 -123 216.999 -133v-260c-176.667 6.66699 -328.334 76.667 -455.001 210c-134 140 -201 309.333 -201 508
s67 368.334 201 509.001c126.667 132.667 278.334 202.334 455.001 209.001v-264zM708 258.998c92.667 4.66699 172 49.667 238 135c70 89.333 105 197 105 323c0 126.667 -35 234.667 -105 324c-66 84.667 -145.333 129.334 -238 134.001v263
c179.333 -6 333.333 -76 462 -210c134 -140.667 201 -310.334 201 -509.001s-67 -368 -201 -508c-128.667 -134.667 -282.667 -205 -462 -211v259zM672 1626c-2 2.66699 -4.33008 5.33398 -6.99707 8.00098l-2 2l-11 9c-17.333 12.667 -37 19 -59 19
c-28 0 -51.667 -10 -71 -30c-10.667 -10.667 -18.334 -22.334 -23.001 -35.001v-9h-64l2 22c7.33301 24.667 21 47 41 67c17.333 17.333 36.666 30 57.999 38l40 7h36l20 -1c28.667 -6.66699 54.334 -21.334 77.001 -44.001l7 -7c16.667 -13.333 36.667 -20 60 -20
c28 0 52 9.66699 72 29c12 12.667 20.333 26.667 25 42h64c-2.66699 -15.333 -7.33398 -29.666 -14.001 -42.999l-4 -7c-7.33301 -12.667 -16.333 -24.667 -27 -36c-16.667 -16 -34.667 -28 -54 -36l-11 -4c-16 -4.66699 -33 -7 -51 -7c-30 0 -54 5.33301 -72 16
c-10.667 5.33301 -21.334 12 -32.001 20z" />
    <glyph glyph-name="Odieresis" unicode="&#xd6;" horiz-adv-x="1471" 
d="M656 1173c-83.333 -10 -155.666 -54.002 -216.999 -132.002c-70 -89.333 -105 -197.333 -105 -324c0 -126 35 -233.667 105 -323c61.333 -78.667 133.666 -123 216.999 -133v-260c-176.667 6.66699 -328.334 76.667 -455.001 210c-134 140 -201 309.333 -201 508
s67 368.334 201 509.001c126.667 132.667 278.334 202.334 455.001 209.001v-264zM708 258.998c92.667 4.66699 172 49.667 238 135c70 89.333 105 197 105 323c0 126.667 -35 234.667 -105 324c-66 84.667 -145.333 129.334 -238 134.001v263
c179.333 -6 333.333 -76 462 -210c134 -140.667 201 -310.334 201 -509.001s-67 -368 -201 -508c-128.667 -134.667 -282.667 -205 -462 -211v259zM438 1578v188h215v-188h-215zM718 1578v188h215v-188h-215z" />
    <glyph glyph-name="multiply" unicode="&#xd7;" horiz-adv-x="919" 
d="M301 319h-300l524 767h300zM234 744l-234 342h300l86 -126zM591 660l233 -341h-300l-84 122z" />
    <glyph glyph-name="Oslash" unicode="&#xd8;" horiz-adv-x="1475" 
d="M549 296c33.333 -18.667 69 -30.334 107 -35.001v-260c-176.667 6.66699 -328.334 76.667 -455.001 210c-134 140 -201 309.333 -201 508s67 368.334 201 509.001c126.667 132.667 278.334 202.334 455.001 209.001v-264c-83.333 -10 -155.666 -54 -216.999 -132
c-70 -89.333 -105 -197.333 -105 -324c0 -76 13 -145.667 39 -209l439 643c-32.667 14 -67.334 22 -104.001 24v263c179.333 -6 333.333 -76 462 -210c134 -140.667 201 -310.334 201 -509.001s-67 -368 -201 -508c-128.667 -134.667 -282.667 -205 -462 -211v259
c92.667 4.66699 172 49.667 238 135c70 89.333 105 197 105 323c0 88.667 -17 168 -51 238z" />
    <glyph glyph-name="Ugrave" unicode="&#xd9;" 
d="M1065 1437l1 -988c-6 -247.333 -107 -392 -303 -434c-45.333 -14 -110 -20 -194 -18v318c112 14 169 69.667 171 167v955h325zM325 1437v-955c2 -97.333 59 -153 171 -167v-318c-84 -2 -148.667 4 -194 18c-189.333 42 -290.333 186.667 -303 434l1 988h325zM277 1841
h221l87 -264h-102z" />
    <glyph glyph-name="Uacute" unicode="&#xda;" 
d="M1065 1437l1 -988c-6 -247.333 -107 -392 -303 -434c-45.333 -14 -110 -20 -194 -18v318c112 14 169 69.667 171 167v955h325zM325 1437v-955c2 -97.333 59 -153 171 -167v-318c-84 -2 -148.667 4 -194 18c-189.333 42 -290.333 186.667 -303 434l1 988h325zM582 1577
h-102l87 264h221z" />
    <glyph glyph-name="Ucircumflex" unicode="&#xdb;" 
d="M1065 1437l1 -988c-6 -247.333 -107 -392 -303 -434c-45.333 -14 -110 -20 -194 -18v318c112 14 169 69.667 171 167v955h325zM325 1437v-955c2 -97.333 59 -153 171 -167v-318c-84 -2 -148.667 4 -194 18c-189.333 42 -290.333 186.667 -303 434l1 988h325zM533 1764
l-148 -188h-122l209 264h122l209 -264h-122z" />
    <glyph glyph-name="Udieresis" unicode="&#xdc;" 
d="M1065 1437l1 -988c-6 -247.333 -107 -392 -303 -434c-45.333 -14 -110 -20 -194 -18v318c112 14 169 69.667 171 167v955h325zM325 1437v-955c2 -97.333 59 -153 171 -167v-318c-84 -2 -148.667 4 -194 18c-189.333 42 -290.333 186.667 -303 434l1 988h325zM285 1578
v188h215v-188h-215zM565 1578v188h215v-188h-215z" />
    <glyph glyph-name="Yacute" unicode="&#xdd;" horiz-adv-x="1297" 
d="M-3 1435h359l212 -363l-181 -304zM403 696l432 739h359l-464 -794v-638h-326zM645 1577h-102l87 264h221z" />
    <glyph glyph-name="Thorn" unicode="&#xde;" horiz-adv-x="1167" 
d="M0 1441h327v-1441h-327v1441zM378 1181l229.999 -0.000976562c192.667 0 332.334 -54.333 419.001 -163c61.333 -93.333 92 -190.666 92 -291.999v-20c0 -116.667 -32.333 -219 -97 -307l-51 -51c-70.667 -74.667 -225.667 -112 -465 -112h-128v271h205
c17.333 0 36 1.66699 56 5c102 33.333 153 101.333 153 204v26c-22.667 112 -94 169.667 -214 173h-200v266z" />
    <glyph glyph-name="germandbls" unicode="&#xdf;" horiz-adv-x="1093" 
d="M-1 0v986c6 282 150.667 433.667 434 455h25c10 -0.666992 19.333 -1.66699 28 -3v-278c-105.333 -4 -159 -59.667 -161 -167v-993h-326zM540 261l1 -0.000976562c109.333 28 165 80.667 167 158v42c5.33301 52 -18.334 94.667 -71.001 128
c-10.667 16.667 -42.667 27.334 -96 32.001h-1v271h1l50 4c60.667 26 91 73.667 91 143l-5 36l-10 25c-30 38.667 -72 60.667 -126 66h-1v273h5c230.667 0 376.334 -82 437.001 -246c14 -32.667 21 -70.334 21 -113.001v-25c0 -90 -44 -172 -132 -246l-46 -26l-24 -8
c26 -14 47.333 -25 64 -33c101.333 -60.667 159 -151 173 -271c3.33301 -13.333 5 -29 5 -47c-5.33301 -85.333 -13.666 -134.666 -24.999 -147.999c-6.66699 -36 -30.334 -78.667 -71.001 -128c-48 -68 -134.667 -116 -260 -144c-33.333 -2 -82 -3 -146 -3h-1v260z" />
    <glyph glyph-name="agrave" unicode="&#xe0;" horiz-adv-x="1359" 
d="M788 1434l507 -1434h-370l-96 305h-397l77 265h244v5l-148 528h-5l-310 -1103h-290v208l417 1226h371zM342 1841h221l87 -264h-102z" />
    <glyph glyph-name="aacute" unicode="&#xe1;" horiz-adv-x="1359" 
d="M788 1434l507 -1434h-370l-96 305h-397l77 265h244v5l-148 528h-5l-310 -1103h-290v208l417 1226h371zM647 1577h-102l87 264h221z" />
    <glyph glyph-name="acircumflex" unicode="&#xe2;" horiz-adv-x="1359" 
d="M788 1434l507 -1434h-370l-96 305h-397l77 265h244v5l-148 528h-5l-310 -1103h-290v208l417 1226h371zM598 1764l-148 -188h-122l209 264h122l209 -264h-122z" />
    <glyph glyph-name="atilde" unicode="&#xe3;" horiz-adv-x="1359" 
d="M788 1434l507 -1434h-370l-96 305h-397l77 265h244v5l-148 528h-5l-310 -1103h-290v208l417 1226h371zM584 1626c-2 2.66699 -4.33008 5.33398 -6.99707 8.00098l-2 2l-11 9c-17.333 12.667 -37 19 -59 19c-28 0 -51.667 -10 -71 -30
c-10.667 -10.667 -18.334 -22.334 -23.001 -35.001v-9h-64l2 22c7.33301 24.667 21 47 41 67c17.333 17.333 36.666 30 57.999 38l40 7h36l20 -1c28.667 -6.66699 54.334 -21.334 77.001 -44.001l7 -7c16.667 -13.333 36.667 -20 60 -20c28 0 52 9.66699 72 29
c12 12.667 20.333 26.667 25 42h64c-2.66699 -15.333 -7.33398 -29.666 -14.001 -42.999l-4 -7c-7.33301 -12.667 -16.333 -24.667 -27 -36c-16.667 -16 -34.667 -28 -54 -36l-11 -4c-16 -4.66699 -33 -7 -51 -7c-30 0 -54 5.33301 -72 16
c-10.667 5.33301 -21.334 12 -32.001 20z" />
    <glyph glyph-name="adieresis" unicode="&#xe4;" horiz-adv-x="1359" 
d="M788 1434l507 -1434h-370l-96 305h-397l77 265h244v5l-148 528h-5l-310 -1103h-290v208l417 1226h371zM350 1588v188h215v-188h-215zM630 1588v188h215v-188h-215z" />
    <glyph glyph-name="aring" unicode="&#xe5;" horiz-adv-x="1359" 
d="M788 1434l507 -1434h-370l-96 305h-397l77 265h244v5l-148 528h-5l-310 -1103h-290v208l417 1226h371zM570 1587l-0.000976562 -64.9971l-22 3c-24.667 7.33301 -47 21 -67 41c-17.333 17.333 -30 36.666 -38 57.999l-7 40v36l1 20
c6.66699 28.667 21.334 54.334 44.001 77.001c16 15.333 33.333 27 52 35h5l3 3c9.33301 3.33301 19 5.66602 29 6.99902v-63c-16.667 -4.66699 -31.334 -13.334 -44.001 -26.001l-11 -13c-12.667 -17.333 -19 -37 -19 -59c0 -28 10 -51.667 30 -71
c10.667 -10.667 22.334 -18.334 35.001 -23.001h9zM625.999 1778l0.00195312 64c15.333 -2.66699 29.666 -7.33398 42.999 -14.001l7 -4c12.667 -7.33301 24.667 -16.333 36 -27c16 -16.667 28 -34.667 36 -54l4 -11c4.66699 -16 7 -33 7 -51
c0 -23.333 -4.33301 -44.666 -13 -63.999l-3 -8c-6.66699 -13.333 -15.667 -26 -27 -38l-6 -7c-18.667 -18 -39.334 -30.667 -62.001 -38l-22 -4v63c15.333 4.66699 29.333 13 42 25c19.333 19.333 29 43 29 71s-9.66699 52 -29 72c-12.667 12 -26.667 20.333 -42 25z" />
    <glyph glyph-name="ae" unicode="&#xe6;" horiz-adv-x="1768" 
d="M605 306h-171l77 265h94v533h-3l-310 -1103h-290v208l417 1226h512v-1437h-326v308zM1662 264v-264h-672v264h672zM1606 889v-264h-617v264h617zM1659 1432v-264h-672v264h672z" />
    <glyph glyph-name="ccedilla" unicode="&#xe7;" horiz-adv-x="1401" 
d="M656 1173c-83.333 -10 -155.666 -54.002 -216.999 -132.002c-70 -89.333 -105 -197.333 -105 -324c0 -126 35 -233.667 105 -323c61.333 -78.667 133.666 -123 216.999 -133v-260c-176.667 6.66699 -328.334 76.667 -455.001 210c-134 140 -201 309.333 -201 508
s67 368.334 201 509.001c126.667 132.667 278.334 202.334 455.001 209.001v-264zM946 1041c-66 84.667 -145.332 129.334 -237.999 134.001v263c179.333 -6 333.333 -76 462 -210c65.333 -68.667 114.666 -144.334 147.999 -227.001l-284 -140
c-16.667 66.667 -46 126.667 -88 180zM1170 210.998c-128.667 -134.667 -282.667 -205 -462 -211v259c92.667 4.66699 172 49.667 238 135c32.667 42 57.667 88 75 138l276 -143c-32 -64 -74.333 -123.333 -127 -178zM708.001 -0.00195312
c26.667 0 50.998 -5.33203 72.998 -15.999l7 -4c12.667 -7.33301 24.667 -16.333 36 -27c16 -16.667 28 -34.667 36 -54l4 -11c4.66699 -16 7 -33 7 -51c0 -23.333 -4.33301 -44.666 -13 -63.999c-8.66699 -18.667 -18.667 -34 -30 -46l-6 -7
c-18.667 -18 -39.334 -30.667 -62.001 -38l-30 -7c-7.33301 -0.666992 -14.666 -1 -21.999 -1s-14.666 0.333008 -21.999 1l-26 6c-24.667 7.33301 -47 21 -67 41c-17.333 17.333 -30 36.666 -38 57.999l-7 40v17h60c0 -28 10 -51.667 30 -71
c10.667 -10.667 22.334 -18.334 35.001 -23.001l18 -5c5.33301 -0.666992 11 -1 17 -1c28 0 51.833 9.66699 71.5 29s29.5 43 29.5 71s-9.83301 51.833 -29.5 71.5s-43.5 29.5 -71.5 29.5v62z" />
    <glyph glyph-name="egrave" unicode="&#xe8;" horiz-adv-x="1154" 
d="M326 0h-326v1437h326v-1437zM1054 1434v-264h-672v264h672zM1001 891v-264h-617v264h617zM1057 266v-264h-672v264h672zM283 1841h221l87 -264h-102z" />
    <glyph glyph-name="eacute" unicode="&#xe9;" horiz-adv-x="1154" 
d="M326 0h-326v1437h326v-1437zM1054 1434v-264h-672v264h672zM1001 891v-264h-617v264h617zM1057 266v-264h-672v264h672zM568 1577h-102l87 264h221z" />
    <glyph glyph-name="ecircumflex" unicode="&#xea;" horiz-adv-x="1154" 
d="M326 0h-326v1437h326v-1437zM1054 1434v-264h-672v264h672zM1001 891v-264h-617v264h617zM1057 266v-264h-672v264h672zM529 1764l-148 -188h-122l209 264h122l209 -264h-122z" />
    <glyph glyph-name="edieresis" unicode="&#xeb;" horiz-adv-x="1154" 
d="M326 0h-326v1437h326v-1437zM1054 1434v-264h-672v264h672zM1001 891v-264h-617v264h617zM1057 266v-264h-672v264h672zM281 1588v188h215v-188h-215zM561 1588v188h215v-188h-215z" />
    <glyph glyph-name="igrave" unicode="&#xec;" horiz-adv-x="427" 
d="M326 0h-326v1437h326v-1437zM-92 1841h221l87 -264h-102z" />
    <glyph glyph-name="iacute" unicode="&#xed;" horiz-adv-x="427" 
d="M326 0h-326v1437h326v-1437zM202 1577h-102l87 264h221z" />
    <glyph glyph-name="icircumflex" unicode="&#xee;" horiz-adv-x="427" 
d="M326 0h-326v1437h326v-1437zM163 1764l-148 -188h-122l209 264h122l209 -264h-122z" />
    <glyph glyph-name="idieresis" unicode="&#xef;" horiz-adv-x="427" 
d="M327 0h-326v1437h326v-1437zM-84 1578v188h215v-188h-215zM196 1578v188h215v-188h-215z" />
    <glyph glyph-name="eth" unicode="&#xf0;" horiz-adv-x="1408" 
d="M992 1002c-22.667 112 -84 168.998 -184 170.998l-230 3v265h230c192.667 0 332.334 -54.333 419.001 -163c61.333 -93.333 92 -190.666 92 -291.999v-530c0 -101.333 -30.667 -198.666 -92 -291.999c-86.667 -108.667 -226.334 -163 -419.001 -163h-230v265l230 3
c100 2 161.333 59 184 171v562zM526 588.998v-589h-326v589h-200v264h200v584h326v-584h186v-264h-186z" />
    <glyph glyph-name="ntilde" unicode="&#xf1;" horiz-adv-x="1273" 
d="M326 0h-326v1348l326 -544v-804zM856 1l-852 1432h310l853 -1433zM843 1434h326v-1348l-326 544v804zM571 1616c-2 2.66699 -4.33008 5.33398 -6.99707 8.00098l-2 2l-11 9c-17.333 12.667 -37 19 -59 19c-28 0 -51.667 -10 -71 -30
c-10.667 -10.667 -18.334 -22.334 -23.001 -35.001v-9h-64l2 22c7.33301 24.667 21 47 41 67c17.333 17.333 36.666 30 57.999 38l40 7h36l20 -1c28.667 -6.66699 54.334 -21.334 77.001 -44.001l7 -7c16.667 -13.333 36.667 -20 60 -20c28 0 52 9.66699 72 29
c12 12.667 20.333 26.667 25 42h64c-2.66699 -15.333 -7.33398 -29.666 -14.001 -42.999l-4 -7c-7.33301 -12.667 -16.333 -24.667 -27 -36c-16.667 -16 -34.667 -28 -54 -36l-11 -4c-16 -4.66699 -33 -7 -51 -7c-30 0 -54 5.33301 -72 16
c-10.667 5.33301 -21.334 12 -32.001 20z" />
    <glyph glyph-name="ograve" unicode="&#xf2;" horiz-adv-x="1471" 
d="M656 1173c-83.333 -10 -155.666 -54.002 -216.999 -132.002c-70 -89.333 -105 -197.333 -105 -324c0 -126 35 -233.667 105 -323c61.333 -78.667 133.666 -123 216.999 -133v-260c-176.667 6.66699 -328.334 76.667 -455.001 210c-134 140 -201 309.333 -201 508
s67 368.334 201 509.001c126.667 132.667 278.334 202.334 455.001 209.001v-264zM708 258.998c92.667 4.66699 172 49.667 238 135c70 89.333 105 197 105 323c0 126.667 -35 234.667 -105 324c-66 84.667 -145.333 129.334 -238 134.001v263
c179.333 -6 333.333 -76 462 -210c134 -140.667 201 -310.334 201 -509.001s-67 -368 -201 -508c-128.667 -134.667 -282.667 -205 -462 -211v259zM430 1841h221l87 -264h-102z" />
    <glyph glyph-name="oacute" unicode="&#xf3;" horiz-adv-x="1471" 
d="M656 1173c-83.333 -10 -155.666 -54.002 -216.999 -132.002c-70 -89.333 -105 -197.333 -105 -324c0 -126 35 -233.667 105 -323c61.333 -78.667 133.666 -123 216.999 -133v-260c-176.667 6.66699 -328.334 76.667 -455.001 210c-134 140 -201 309.333 -201 508
s67 368.334 201 509.001c126.667 132.667 278.334 202.334 455.001 209.001v-264zM708 258.998c92.667 4.66699 172 49.667 238 135c70 89.333 105 197 105 323c0 126.667 -35 234.667 -105 324c-66 84.667 -145.333 129.334 -238 134.001v263
c179.333 -6 333.333 -76 462 -210c134 -140.667 201 -310.334 201 -509.001s-67 -368 -201 -508c-128.667 -134.667 -282.667 -205 -462 -211v259zM735 1577h-102l87 264h221z" />
    <glyph glyph-name="ocircumflex" unicode="&#xf4;" horiz-adv-x="1471" 
d="M656 1173c-83.333 -10 -155.666 -54.002 -216.999 -132.002c-70 -89.333 -105 -197.333 -105 -324c0 -126 35 -233.667 105 -323c61.333 -78.667 133.666 -123 216.999 -133v-260c-176.667 6.66699 -328.334 76.667 -455.001 210c-134 140 -201 309.333 -201 508
s67 368.334 201 509.001c126.667 132.667 278.334 202.334 455.001 209.001v-264zM708 258.998c92.667 4.66699 172 49.667 238 135c70 89.333 105 197 105 323c0 126.667 -35 234.667 -105 324c-66 84.667 -145.333 129.334 -238 134.001v263
c179.333 -6 333.333 -76 462 -210c134 -140.667 201 -310.334 201 -509.001s-67 -368 -201 -508c-128.667 -134.667 -282.667 -205 -462 -211v259zM686 1764l-148 -188h-122l209 264h122l209 -264h-122z" />
    <glyph glyph-name="otilde" unicode="&#xf5;" horiz-adv-x="1471" 
d="M656 1173c-83.333 -10 -155.666 -54.002 -216.999 -132.002c-70 -89.333 -105 -197.333 -105 -324c0 -126 35 -233.667 105 -323c61.333 -78.667 133.666 -123 216.999 -133v-260c-176.667 6.66699 -328.334 76.667 -455.001 210c-134 140 -201 309.333 -201 508
s67 368.334 201 509.001c126.667 132.667 278.334 202.334 455.001 209.001v-264zM708 258.998c92.667 4.66699 172 49.667 238 135c70 89.333 105 197 105 323c0 126.667 -35 234.667 -105 324c-66 84.667 -145.333 129.334 -238 134.001v263
c179.333 -6 333.333 -76 462 -210c134 -140.667 201 -310.334 201 -509.001s-67 -368 -201 -508c-128.667 -134.667 -282.667 -205 -462 -211v259zM672 1626c-2 2.66699 -4.33008 5.33398 -6.99707 8.00098l-2 2l-11 9c-17.333 12.667 -37 19 -59 19
c-28 0 -51.667 -10 -71 -30c-10.667 -10.667 -18.334 -22.334 -23.001 -35.001v-9h-64l2 22c7.33301 24.667 21 47 41 67c17.333 17.333 36.666 30 57.999 38l40 7h36l20 -1c28.667 -6.66699 54.334 -21.334 77.001 -44.001l7 -7c16.667 -13.333 36.667 -20 60 -20
c28 0 52 9.66699 72 29c12 12.667 20.333 26.667 25 42h64c-2.66699 -15.333 -7.33398 -29.666 -14.001 -42.999l-4 -7c-7.33301 -12.667 -16.333 -24.667 -27 -36c-16.667 -16 -34.667 -28 -54 -36l-11 -4c-16 -4.66699 -33 -7 -51 -7c-30 0 -54 5.33301 -72 16
c-10.667 5.33301 -21.334 12 -32.001 20z" />
    <glyph glyph-name="odieresis" unicode="&#xf6;" horiz-adv-x="1471" 
d="M656 1173c-83.333 -10 -155.666 -54.002 -216.999 -132.002c-70 -89.333 -105 -197.333 -105 -324c0 -126 35 -233.667 105 -323c61.333 -78.667 133.666 -123 216.999 -133v-260c-176.667 6.66699 -328.334 76.667 -455.001 210c-134 140 -201 309.333 -201 508
s67 368.334 201 509.001c126.667 132.667 278.334 202.334 455.001 209.001v-264zM708 258.998c92.667 4.66699 172 49.667 238 135c70 89.333 105 197 105 323c0 126.667 -35 234.667 -105 324c-66 84.667 -145.333 129.334 -238 134.001v263
c179.333 -6 333.333 -76 462 -210c134 -140.667 201 -310.334 201 -509.001s-67 -368 -201 -508c-128.667 -134.667 -282.667 -205 -462 -211v259zM438 1578v188h215v-188h-215zM718 1578v188h215v-188h-215z" />
    <glyph glyph-name="divide" unicode="&#xf7;" horiz-adv-x="775" 
d="M672 885v-264h-672v264h672zM469 500v-199h-264v199h264zM205 1001v199h264v-199h-264z" />
    <glyph glyph-name="oslash" unicode="&#xf8;" horiz-adv-x="1475" 
d="M549 296c33.333 -18.667 69 -30.334 107 -35.001v-260c-176.667 6.66699 -328.334 76.667 -455.001 210c-134 140 -201 309.333 -201 508s67 368.334 201 509.001c126.667 132.667 278.334 202.334 455.001 209.001v-264c-83.333 -10 -155.666 -54 -216.999 -132
c-70 -89.333 -105 -197.333 -105 -324c0 -76 13 -145.667 39 -209l439 643c-32.667 14 -67.334 22 -104.001 24v263c179.333 -6 333.333 -76 462 -210c134 -140.667 201 -310.334 201 -509.001s-67 -368 -201 -508c-128.667 -134.667 -282.667 -205 -462 -211v259
c92.667 4.66699 172 49.667 238 135c70 89.333 105 197 105 323c0 88.667 -17 168 -51 238z" />
    <glyph glyph-name="ugrave" unicode="&#xf9;" 
d="M1065 1437l1 -988c-6 -247.333 -107 -392 -303 -434c-45.333 -14 -110 -20 -194 -18v318c112 14 169 69.667 171 167v955h325zM325 1437v-955c2 -97.333 59 -153 171 -167v-318c-84 -2 -148.667 4 -194 18c-189.333 42 -290.333 186.667 -303 434l1 988h325zM277 1841
h221l87 -264h-102z" />
    <glyph glyph-name="uacute" unicode="&#xfa;" 
d="M1065 1437l1 -988c-6 -247.333 -107 -392 -303 -434c-45.333 -14 -110 -20 -194 -18v318c112 14 169 69.667 171 167v955h325zM325 1437v-955c2 -97.333 59 -153 171 -167v-318c-84 -2 -148.667 4 -194 18c-189.333 42 -290.333 186.667 -303 434l1 988h325zM582 1577
h-102l87 264h221z" />
    <glyph glyph-name="ucircumflex" unicode="&#xfb;" 
d="M1065 1437l1 -988c-6 -247.333 -107 -392 -303 -434c-45.333 -14 -110 -20 -194 -18v318c112 14 169 69.667 171 167v955h325zM325 1437v-955c2 -97.333 59 -153 171 -167v-318c-84 -2 -148.667 4 -194 18c-189.333 42 -290.333 186.667 -303 434l1 988h325zM533 1764
l-148 -188h-122l209 264h122l209 -264h-122z" />
    <glyph glyph-name="udieresis" unicode="&#xfc;" 
d="M1065 1437l1 -988c-6 -247.333 -107 -392 -303 -434c-45.333 -14 -110 -20 -194 -18v318c112 14 169 69.667 171 167v955h325zM325 1437v-955c2 -97.333 59 -153 171 -167v-318c-84 -2 -148.667 4 -194 18c-189.333 42 -290.333 186.667 -303 434l1 988h325zM285 1578
v188h215v-188h-215zM565 1578v188h215v-188h-215z" />
    <glyph glyph-name="yacute" unicode="&#xfd;" horiz-adv-x="1297" 
d="M-3 1435h359l212 -363l-181 -304zM403 696l432 739h359l-464 -794v-638h-326zM645 1577h-102l87 264h221z" />
    <glyph glyph-name="thorn" unicode="&#xfe;" horiz-adv-x="1167" 
d="M0 1441h327v-1441h-327v1441zM378 1181l229.999 -0.000976562c192.667 0 332.334 -54.333 419.001 -163c61.333 -93.333 92 -190.666 92 -291.999v-20c0 -116.667 -32.333 -219 -97 -307l-51 -51c-70.667 -74.667 -225.667 -112 -465 -112h-128v271h205
c17.333 0 36 1.66699 56 5c102 33.333 153 101.333 153 204v26c-22.667 112 -94 169.667 -214 173h-200v266z" />
    <glyph glyph-name="ydieresis" unicode="&#xff;" horiz-adv-x="1297" 
d="M-3 1435h359l212 -363l-181 -304zM403 696l432 739h359l-464 -794v-638h-326zM348 1578v188h215v-188h-215zM628 1578v188h215v-188h-215z" />
    <glyph glyph-name="Abreve" unicode="&#x102;" horiz-adv-x="1359" 
d="M788 1434l507 -1434h-370l-96 305h-397l77 265h244v5l-148 528h-5l-310 -1103h-290v208l417 1226h371zM501 1741c0 -28 9.99805 -51.666 29.998 -70.999c10.667 -10.667 22.334 -18.334 35.001 -23.001l18 -5c5.33301 -0.666992 11 -1 17 -1c28 0 51.833 9.66699 71.5 29
s29.5 43 29.5 71h62c0 -23.333 -4.33301 -44.666 -13 -63.999l-3 -8c-6.66699 -13.333 -15.667 -26 -27 -38l-6 -7c-18.667 -18 -39.334 -30.667 -62.001 -38l-30 -7c-7.33301 -0.666992 -14.666 -1 -21.999 -1s-14.666 0.333008 -21.999 1l-26 6
c-24.667 7.33301 -47 21 -67 41c-17.333 17.333 -30 36.666 -38 57.999l-7 40v17h60z" />
    <glyph glyph-name="abreve" unicode="&#x103;" horiz-adv-x="1359" 
d="M788 1434l507 -1434h-370l-96 305h-397l77 265h244v5l-148 528h-5l-310 -1103h-290v208l417 1226h371zM501 1741c0 -28 9.99805 -51.666 29.998 -70.999c10.667 -10.667 22.334 -18.334 35.001 -23.001l18 -5c5.33301 -0.666992 11 -1 17 -1c28 0 51.833 9.66699 71.5 29
s29.5 43 29.5 71h62c0 -23.333 -4.33301 -44.666 -13 -63.999l-3 -8c-6.66699 -13.333 -15.667 -26 -27 -38l-6 -7c-18.667 -18 -39.334 -30.667 -62.001 -38l-30 -7c-7.33301 -0.666992 -14.666 -1 -21.999 -1s-14.666 0.333008 -21.999 1l-26 6
c-24.667 7.33301 -47 21 -67 41c-17.333 17.333 -30 36.666 -38 57.999l-7 40v17h60z" />
    <glyph glyph-name="Aogonek" unicode="&#x104;" horiz-adv-x="1359" 
d="M788 1434l507 -1434h-370l-96 305h-397l77 265h244v5l-148 528h-5l-310 -1103h-290v208l417 1226h371zM928 2c-16 -4.66699 -30.333 -13.3311 -43 -25.998c-0.666992 -0.666992 -4.33398 -5 -11.001 -13c-12.667 -17.333 -19 -37 -19 -59c0 -28 10 -51.667 30 -71
c10.667 -10.667 22.334 -18.334 35.001 -23.001l18 -5c5.33301 -0.666992 24.333 -1 57 -1v-63c-34 0 -54.667 0.333008 -62 1l-26 6c-24.667 7.33301 -47 21 -67 41c-17.333 17.333 -30 36.666 -38 57.999l-7 40v36l1 20c6.66699 28.667 21.334 54.334 44.001 77.001
c16 15.333 33.333 27 52 35l8 3c9.33301 3.33301 18.666 5.66602 27.999 6.99902v-63z" />
    <glyph glyph-name="aogonek" unicode="&#x105;" horiz-adv-x="1359" 
d="M788 1434l507 -1434h-370l-96 305h-397l77 265h244v5l-148 528h-5l-310 -1103h-290v208l417 1226h371zM928 2c-16 -4.66699 -30.333 -13.3311 -43 -25.998c-0.666992 -0.666992 -4.33398 -5 -11.001 -13c-12.667 -17.333 -19 -37 -19 -59c0 -28 10 -51.667 30 -71
c10.667 -10.667 22.334 -18.334 35.001 -23.001l18 -5c5.33301 -0.666992 24.333 -1 57 -1v-63c-34 0 -54.667 0.333008 -62 1l-26 6c-24.667 7.33301 -47 21 -67 41c-17.333 17.333 -30 36.666 -38 57.999l-7 40v36l1 20c6.66699 28.667 21.334 54.334 44.001 77.001
c16 15.333 33.333 27 52 35l8 3c9.33301 3.33301 18.666 5.66602 27.999 6.99902v-63z" />
    <glyph glyph-name="Cacute" unicode="&#x106;" horiz-adv-x="1401" 
d="M656 1173c-83.333 -10 -155.666 -54.002 -216.999 -132.002c-70 -89.333 -105 -197.333 -105 -324c0 -126 35 -233.667 105 -323c61.333 -78.667 133.666 -123 216.999 -133v-260c-176.667 6.66699 -328.334 76.667 -455.001 210c-134 140 -201 309.333 -201 508
s67 368.334 201 509.001c126.667 132.667 278.334 202.334 455.001 209.001v-264zM1319 974.998c-17.333 98.667 -53.333 182.167 -108 250.5s-131 121.166 -229 158.499c-27.333 10.667 -52.833 19 -76.5 25s-46.5 10.667 -68.5 14s-43.333 5.5 -64 6.5
s-41.667 2.16699 -63 3.5v-257c35.333 -3.33301 68 -8.66602 98 -15.999s57.167 -19 81.5 -35s46 -37.333 65 -64s35.5 -61 49.5 -103zM1004 475.998c-14 -42 -30.5 -76.333 -49.5 -103s-40.667 -48 -65 -64s-51.5 -27.667 -81.5 -35s-62.667 -12.666 -98 -15.999v-257
c21.333 0.666992 42.333 1.66699 63 3s42 3.66602 64 6.99902s44.833 8 68.5 14s49.167 14.333 76.5 25c98 37.333 174.333 90 229 158s90.667 151.667 108 251zM728 1577h-102l87 264h221z" />
    <glyph glyph-name="cacute" unicode="&#x107;" horiz-adv-x="1401" 
d="M656 1173c-83.333 -10 -155.666 -54.002 -216.999 -132.002c-70 -89.333 -105 -197.333 -105 -324c0 -126 35 -233.667 105 -323c61.333 -78.667 133.666 -123 216.999 -133v-260c-176.667 6.66699 -328.334 76.667 -455.001 210c-134 140 -201 309.333 -201 508
s67 368.334 201 509.001c126.667 132.667 278.334 202.334 455.001 209.001v-264zM946 1041c-66 84.667 -145.332 129.334 -237.999 134.001v263c179.333 -6 333.333 -76 462 -210c65.333 -68.667 114.666 -144.334 147.999 -227.001l-284 -140
c-16.667 66.667 -46 126.667 -88 180zM1170 210.998c-128.667 -134.667 -282.667 -205 -462 -211v259c92.667 4.66699 172 49.667 238 135c32.667 42 57.667 88 75 138l276 -143c-32 -64 -74.333 -123.333 -127 -178zM728.001 1577h-102l87 264h221z" />
    <glyph glyph-name="Ccircumflex" unicode="&#x108;" horiz-adv-x="1401" 
d="M656 1173c-83.333 -10 -155.666 -54.002 -216.999 -132.002c-70 -89.333 -105 -197.333 -105 -324c0 -126 35 -233.667 105 -323c61.333 -78.667 133.666 -123 216.999 -133v-260c-176.667 6.66699 -328.334 76.667 -455.001 210c-134 140 -201 309.333 -201 508
s67 368.334 201 509.001c126.667 132.667 278.334 202.334 455.001 209.001v-264zM1319 974.998c-17.333 98.667 -53.333 182.167 -108 250.5s-131 121.166 -229 158.499c-27.333 10.667 -52.833 19 -76.5 25s-46.5 10.667 -68.5 14s-43.333 5.5 -64 6.5
s-41.667 2.16699 -63 3.5v-257c35.333 -3.33301 68 -8.66602 98 -15.999s57.167 -19 81.5 -35s46 -37.333 65 -64s35.5 -61 49.5 -103zM1004 475.998c-14 -42 -30.5 -76.333 -49.5 -103s-40.667 -48 -65 -64s-51.5 -27.667 -81.5 -35s-62.667 -12.666 -98 -15.999v-257
c21.333 0.666992 42.333 1.66699 63 3s42 3.66602 64 6.99902s44.833 8 68.5 14s49.167 14.333 76.5 25c98 37.333 174.333 90 229 158s90.667 151.667 108 251zM679 1764l-148 -188h-122l209 264h122l209 -264h-122z" />
    <glyph glyph-name="ccircumflex" unicode="&#x109;" horiz-adv-x="1401" 
d="M656 1173c-83.333 -10 -155.666 -54.002 -216.999 -132.002c-70 -89.333 -105 -197.333 -105 -324c0 -126 35 -233.667 105 -323c61.333 -78.667 133.666 -123 216.999 -133v-260c-176.667 6.66699 -328.334 76.667 -455.001 210c-134 140 -201 309.333 -201 508
s67 368.334 201 509.001c126.667 132.667 278.334 202.334 455.001 209.001v-264zM946 1041c-66 84.667 -145.332 129.334 -237.999 134.001v263c179.333 -6 333.333 -76 462 -210c65.333 -68.667 114.666 -144.334 147.999 -227.001l-284 -140
c-16.667 66.667 -46 126.667 -88 180zM1170 210.998c-128.667 -134.667 -282.667 -205 -462 -211v259c92.667 4.66699 172 49.667 238 135c32.667 42 57.667 88 75 138l276 -143c-32 -64 -74.333 -123.333 -127 -178zM679.001 1764l-148 -188h-122l209 264h122l209 -264
h-122z" />
    <glyph glyph-name="Cdotaccent" unicode="&#x10a;" horiz-adv-x="1401" 
d="M656 1173c-83.333 -10 -155.666 -54.002 -216.999 -132.002c-70 -89.333 -105 -197.333 -105 -324c0 -126 35 -233.667 105 -323c61.333 -78.667 133.666 -123 216.999 -133v-260c-176.667 6.66699 -328.334 76.667 -455.001 210c-134 140 -201 309.333 -201 508
s67 368.334 201 509.001c126.667 132.667 278.334 202.334 455.001 209.001v-264zM1319 974.998c-17.333 98.667 -53.333 182.167 -108 250.5s-131 121.166 -229 158.499c-27.333 10.667 -52.833 19 -76.5 25s-46.5 10.667 -68.5 14s-43.333 5.5 -64 6.5
s-41.667 2.16699 -63 3.5v-257c35.333 -3.33301 68 -8.66602 98 -15.999s57.167 -19 81.5 -35s46 -37.333 65 -64s35.5 -61 49.5 -103zM1004 475.998c-14 -42 -30.5 -76.333 -49.5 -103s-40.667 -48 -65 -64s-51.5 -27.667 -81.5 -35s-62.667 -12.666 -98 -15.999v-257
c21.333 0.666992 42.333 1.66699 63 3s42 3.66602 64 6.99902s44.833 8 68.5 14s49.167 14.333 76.5 25c98 37.333 174.333 90 229 158s90.667 151.667 108 251zM572 1578v188h215v-188h-215z" />
    <glyph glyph-name="cdotaccent" unicode="&#x10b;" horiz-adv-x="1401" 
d="M656 1173c-83.333 -10 -155.666 -54.002 -216.999 -132.002c-70 -89.333 -105 -197.333 -105 -324c0 -126 35 -233.667 105 -323c61.333 -78.667 133.666 -123 216.999 -133v-260c-176.667 6.66699 -328.334 76.667 -455.001 210c-134 140 -201 309.333 -201 508
s67 368.334 201 509.001c126.667 132.667 278.334 202.334 455.001 209.001v-264zM946 1041c-66 84.667 -145.332 129.334 -237.999 134.001v263c179.333 -6 333.333 -76 462 -210c65.333 -68.667 114.666 -144.334 147.999 -227.001l-284 -140
c-16.667 66.667 -46 126.667 -88 180zM1170 210.998c-128.667 -134.667 -282.667 -205 -462 -211v259c92.667 4.66699 172 49.667 238 135c32.667 42 57.667 88 75 138l276 -143c-32 -64 -74.333 -123.333 -127 -178zM572.001 1578v188h215v-188h-215z" />
    <glyph glyph-name="Ccaron" unicode="&#x10c;" horiz-adv-x="1401" 
d="M656 1173c-83.333 -10 -155.666 -54.002 -216.999 -132.002c-70 -89.333 -105 -197.333 -105 -324c0 -126 35 -233.667 105 -323c61.333 -78.667 133.666 -123 216.999 -133v-260c-176.667 6.66699 -328.334 76.667 -455.001 210c-134 140 -201 309.333 -201 508
s67 368.334 201 509.001c126.667 132.667 278.334 202.334 455.001 209.001v-264zM1319 974.998c-17.333 98.667 -53.333 182.167 -108 250.5s-131 121.166 -229 158.499c-27.333 10.667 -52.833 19 -76.5 25s-46.5 10.667 -68.5 14s-43.333 5.5 -64 6.5
s-41.667 2.16699 -63 3.5v-257c35.333 -3.33301 68 -8.66602 98 -15.999s57.167 -19 81.5 -35s46 -37.333 65 -64s35.5 -61 49.5 -103zM1004 475.998c-14 -42 -30.5 -76.333 -49.5 -103s-40.667 -48 -65 -64s-51.5 -27.667 -81.5 -35s-62.667 -12.666 -98 -15.999v-257
c21.333 0.666992 42.333 1.66699 63 3s42 3.66602 64 6.99902s44.833 8 68.5 14s49.167 14.333 76.5 25c98 37.333 174.333 90 229 158s90.667 151.667 108 251zM827 1840h122l-209 -264h-122l-209 264h122l148 -188z" />
    <glyph glyph-name="ccaron" unicode="&#x10d;" horiz-adv-x="1401" 
d="M656 1173c-83.333 -10 -155.666 -54.002 -216.999 -132.002c-70 -89.333 -105 -197.333 -105 -324c0 -126 35 -233.667 105 -323c61.333 -78.667 133.666 -123 216.999 -133v-260c-176.667 6.66699 -328.334 76.667 -455.001 210c-134 140 -201 309.333 -201 508
s67 368.334 201 509.001c126.667 132.667 278.334 202.334 455.001 209.001v-264zM946 1041c-66 84.667 -145.332 129.334 -237.999 134.001v263c179.333 -6 333.333 -76 462 -210c65.333 -68.667 114.666 -144.334 147.999 -227.001l-284 -140
c-16.667 66.667 -46 126.667 -88 180zM1170 210.998c-128.667 -134.667 -282.667 -205 -462 -211v259c92.667 4.66699 172 49.667 238 135c32.667 42 57.667 88 75 138l276 -143c-32 -64 -74.333 -123.333 -127 -178zM827.001 1840h122l-209 -264h-122l-209 264h122
l148 -188z" />
    <glyph glyph-name="Dcaron" unicode="&#x10e;" horiz-adv-x="1224" 
d="M326 0h-326v1437h326v-1437zM792 1002c-22.667 112 -84 168.998 -184 170.998l-230 3v265h230c192.667 0 332.334 -54.333 419.001 -163c61.333 -93.333 92 -190.666 92 -291.999v-530c0 -101.333 -30.667 -198.666 -92 -291.999
c-86.667 -108.667 -226.334 -163 -419.001 -163h-230v265l230 3c100 2 161.333 59 184 171v562zM708 1840h122l-209 -264h-122l-209 264h122l148 -188z" />
    <glyph glyph-name="dcaron" unicode="&#x10f;" horiz-adv-x="1224" 
d="M326 0h-326v1437h326v-1437zM792 1002c-22.667 112 -84 168.998 -184 170.998l-230 3v265h230c192.667 0 332.334 -54.333 419.001 -163c61.333 -93.333 92 -190.666 92 -291.999v-530c0 -101.333 -30.667 -198.666 -92 -291.999
c-86.667 -108.667 -226.334 -163 -419.001 -163h-230v265l230 3c100 2 161.333 59 184 171v562zM708 1840h122l-209 -264h-122l-209 264h122l148 -188z" />
    <glyph glyph-name="Dcroat" unicode="&#x110;" horiz-adv-x="1408" 
d="M992 1002c-22.667 112 -84 168.998 -184 170.998l-230 3v265h230c192.667 0 332.334 -54.333 419.001 -163c61.333 -93.333 92 -190.666 92 -291.999v-530c0 -101.333 -30.667 -198.666 -92 -291.999c-86.667 -108.667 -226.334 -163 -419.001 -163h-230v265l230 3
c100 2 161.333 59 184 171v562zM526 588.998v-589h-326v589h-200v264h200v584h326v-584h186v-264h-186z" />
    <glyph glyph-name="dcroat" unicode="&#x111;" horiz-adv-x="1408" 
d="M992 1002c-22.667 112 -84 168.998 -184 170.998l-230 3v265h230c192.667 0 332.334 -54.333 419.001 -163c61.333 -93.333 92 -190.666 92 -291.999v-530c0 -101.333 -30.667 -198.666 -92 -291.999c-86.667 -108.667 -226.334 -163 -419.001 -163h-230v265l230 3
c100 2 161.333 59 184 171v562zM526 588.998v-589h-326v589h-200v264h200v584h326v-584h186v-264h-186z" />
    <glyph glyph-name="Ebreve" unicode="&#x114;" horiz-adv-x="1154" 
d="M326 0h-326v1437h326v-1437zM1054 1434v-264h-672v264h672zM1001 891v-264h-617v264h617zM1057 266v-264h-672v264h672zM427 1741c0 -28 9.99805 -51.666 29.998 -70.999c10.667 -10.667 22.334 -18.334 35.001 -23.001l18 -5c5.33301 -0.666992 11 -1 17 -1
c28 0 51.833 9.66699 71.5 29s29.5 43 29.5 71h62c0 -23.333 -4.33301 -44.666 -13 -63.999l-3 -8c-6.66699 -13.333 -15.667 -26 -27 -38l-6 -7c-18.667 -18 -39.334 -30.667 -62.001 -38l-30 -7c-7.33301 -0.666992 -14.666 -1 -21.999 -1s-14.666 0.333008 -21.999 1
l-26 6c-24.667 7.33301 -47 21 -67 41c-17.333 17.333 -30 36.666 -38 57.999l-7 40v17h60z" />
    <glyph glyph-name="ebreve" unicode="&#x115;" horiz-adv-x="1154" 
d="M326 0h-326v1437h326v-1437zM1054 1434v-264h-672v264h672zM1001 891v-264h-617v264h617zM1057 266v-264h-672v264h672zM427 1741c0 -28 9.99805 -51.666 29.998 -70.999c10.667 -10.667 22.334 -18.334 35.001 -23.001l18 -5c5.33301 -0.666992 11 -1 17 -1
c28 0 51.833 9.66699 71.5 29s29.5 43 29.5 71h62c0 -23.333 -4.33301 -44.666 -13 -63.999l-3 -8c-6.66699 -13.333 -15.667 -26 -27 -38l-6 -7c-18.667 -18 -39.334 -30.667 -62.001 -38l-30 -7c-7.33301 -0.666992 -14.666 -1 -21.999 -1s-14.666 0.333008 -21.999 1
l-26 6c-24.667 7.33301 -47 21 -67 41c-17.333 17.333 -30 36.666 -38 57.999l-7 40v17h60z" />
    <glyph glyph-name="Edotaccent" unicode="&#x116;" horiz-adv-x="1154" 
d="M326 0h-326v1437h326v-1437zM1054 1434v-264h-672v264h672zM1001 891v-264h-617v264h617zM1057 266v-264h-672v264h672zM421 1578v188h215v-188h-215z" />
    <glyph glyph-name="edotaccent" unicode="&#x117;" horiz-adv-x="1154" 
d="M326 0h-326v1437h326v-1437zM1054 1434v-264h-672v264h672zM1001 891v-264h-617v264h617zM1057 266v-264h-672v264h672zM421 1578v188h215v-188h-215z" />
    <glyph glyph-name="Eogonek" unicode="&#x118;" horiz-adv-x="1154" 
d="M326 0h-326v1437h326v-1437zM1054 1434v-264h-672v264h672zM1001 891v-264h-617v264h617zM1057 266v-264h-672v264h672zM992 2c-16 -4.66699 -30.333 -13.3311 -43 -25.998c-0.666992 -0.666992 -4.33398 -5 -11.001 -13c-12.667 -17.333 -19 -37 -19 -59
c0 -28 10 -51.667 30 -71c10.667 -10.667 22.334 -18.334 35.001 -23.001l18 -5c5.33301 -0.666992 24.333 -1 57 -1v-63c-34 0 -54.667 0.333008 -62 1l-26 6c-24.667 7.33301 -47 21 -67 41c-17.333 17.333 -30 36.666 -38 57.999l-7 40v36l1 20
c6.66699 28.667 21.334 54.334 44.001 77.001c16 15.333 33.333 27 52 35l8 3c9.33301 3.33301 18.666 5.66602 27.999 6.99902v-63z" />
    <glyph glyph-name="eogonek" unicode="&#x119;" horiz-adv-x="1154" 
d="M326 0h-326v1437h326v-1437zM1054 1434v-264h-672v264h672zM1001 891v-264h-617v264h617zM1057 266v-264h-672v264h672zM992 2c-16 -4.66699 -30.333 -13.3311 -43 -25.998c-0.666992 -0.666992 -4.33398 -5 -11.001 -13c-12.667 -17.333 -19 -37 -19 -59
c0 -28 10 -51.667 30 -71c10.667 -10.667 22.334 -18.334 35.001 -23.001l18 -5c5.33301 -0.666992 24.333 -1 57 -1v-63c-34 0 -54.667 0.333008 -62 1l-26 6c-24.667 7.33301 -47 21 -67 41c-17.333 17.333 -30 36.666 -38 57.999l-7 40v36l1 20
c6.66699 28.667 21.334 54.334 44.001 77.001c16 15.333 33.333 27 52 35l8 3c9.33301 3.33301 18.666 5.66602 27.999 6.99902v-63z" />
    <glyph glyph-name="Ecaron" unicode="&#x11a;" horiz-adv-x="1154" 
d="M326 0h-326v1437h326v-1437zM1054 1434v-264h-672v264h672zM1001 891v-264h-617v264h617zM1057 266v-264h-672v264h672zM677 1840h122l-209 -264h-122l-209 264h122l148 -188z" />
    <glyph glyph-name="ecaron" unicode="&#x11b;" horiz-adv-x="1154" 
d="M326 0h-326v1437h326v-1437zM1054 1434v-264h-672v264h672zM1001 891v-264h-617v264h617zM1057 266v-264h-672v264h672zM677 1840h122l-209 -264h-122l-209 264h122l148 -188z" />
    <glyph glyph-name="Gcircumflex" unicode="&#x11c;" horiz-adv-x="1462" 
d="M656 1173c-83.333 -10 -155.666 -54.002 -216.999 -132.002c-70 -89.333 -105 -197.333 -105 -324c0 -126 35 -233.667 105 -323c61.333 -78.667 133.666 -123 216.999 -133v-260c-176.667 6.66699 -328.334 76.667 -455.001 210c-134 140 -201 309.333 -201 508
s67 368.334 201 509.001c126.667 132.667 278.334 202.334 455.001 209.001v-264zM946 1041c-66 84.667 -145.332 129.334 -237.999 134.001v263c179.333 -6 333.333 -76 462 -210c65.333 -68.667 114.666 -144.334 147.999 -227.001l-284 -140
c-16.667 66.667 -46 126.667 -88 180zM1371 701.998c-4 -191.333 -70.999 -355 -200.999 -491c-128.667 -134.667 -282.667 -205 -462 -211v259c92.667 4.66699 172 49.667 238 135c11.333 14 21.666 28.667 30.999 44h-271v264h665zM686.002 1764l-148 -188h-122l209 264
h122l209 -264h-122z" />
    <glyph glyph-name="gcircumflex" unicode="&#x11d;" horiz-adv-x="1462" 
d="M656 1173c-83.333 -10 -155.666 -54.002 -216.999 -132.002c-70 -89.333 -105 -197.333 -105 -324c0 -126 35 -233.667 105 -323c61.333 -78.667 133.666 -123 216.999 -133v-260c-176.667 6.66699 -328.334 76.667 -455.001 210c-134 140 -201 309.333 -201 508
s67 368.334 201 509.001c126.667 132.667 278.334 202.334 455.001 209.001v-264zM946 1041c-66 84.667 -145.332 129.334 -237.999 134.001v263c179.333 -6 333.333 -76 462 -210c65.333 -68.667 114.666 -144.334 147.999 -227.001l-284 -140
c-16.667 66.667 -46 126.667 -88 180zM1371 701.998c-4 -191.333 -70.999 -355 -200.999 -491c-128.667 -134.667 -282.667 -205 -462 -211v259c92.667 4.66699 172 49.667 238 135c11.333 14 21.666 28.667 30.999 44h-271v264h665zM686.002 1764l-148 -188h-122l209 264
h122l209 -264h-122z" />
    <glyph glyph-name="Gbreve" unicode="&#x11e;" horiz-adv-x="1462" 
d="M656 1173c-83.333 -10 -155.666 -54.002 -216.999 -132.002c-70 -89.333 -105 -197.333 -105 -324c0 -126 35 -233.667 105 -323c61.333 -78.667 133.666 -123 216.999 -133v-260c-176.667 6.66699 -328.334 76.667 -455.001 210c-134 140 -201 309.333 -201 508
s67 368.334 201 509.001c126.667 132.667 278.334 202.334 455.001 209.001v-264zM946 1041c-66 84.667 -145.332 129.334 -237.999 134.001v263c179.333 -6 333.333 -76 462 -210c65.333 -68.667 114.666 -144.334 147.999 -227.001l-284 -140
c-16.667 66.667 -46 126.667 -88 180zM1371 701.998c-4 -191.333 -70.999 -355 -200.999 -491c-128.667 -134.667 -282.667 -205 -462 -211v259c92.667 4.66699 172 49.667 238 135c11.333 14 21.666 28.667 30.999 44h-271v264h665zM584.002 1741
c0 -28 9.99805 -51.666 29.998 -70.999c10.667 -10.667 22.334 -18.334 35.001 -23.001l18 -5c5.33301 -0.666992 11 -1 17 -1c28 0 51.833 9.66699 71.5 29s29.5 43 29.5 71h62c0 -23.333 -4.33301 -44.666 -13 -63.999l-3 -8c-6.66699 -13.333 -15.667 -26 -27 -38l-6 -7
c-18.667 -18 -39.334 -30.667 -62.001 -38l-30 -7c-7.33301 -0.666992 -14.666 -1 -21.999 -1s-14.666 0.333008 -21.999 1l-26 6c-24.667 7.33301 -47 21 -67 41c-17.333 17.333 -30 36.666 -38 57.999l-7 40v17h60z" />
    <glyph glyph-name="gbreve" unicode="&#x11f;" horiz-adv-x="1462" 
d="M656 1173c-83.333 -10 -155.666 -54.002 -216.999 -132.002c-70 -89.333 -105 -197.333 -105 -324c0 -126 35 -233.667 105 -323c61.333 -78.667 133.666 -123 216.999 -133v-260c-176.667 6.66699 -328.334 76.667 -455.001 210c-134 140 -201 309.333 -201 508
s67 368.334 201 509.001c126.667 132.667 278.334 202.334 455.001 209.001v-264zM946 1041c-66 84.667 -145.332 129.334 -237.999 134.001v263c179.333 -6 333.333 -76 462 -210c65.333 -68.667 114.666 -144.334 147.999 -227.001l-284 -140
c-16.667 66.667 -46 126.667 -88 180zM1371 701.998c-4 -191.333 -70.999 -355 -200.999 -491c-128.667 -134.667 -282.667 -205 -462 -211v259c92.667 4.66699 172 49.667 238 135c11.333 14 21.666 28.667 30.999 44h-271v264h665zM584.002 1741
c0 -28 9.99805 -51.666 29.998 -70.999c10.667 -10.667 22.334 -18.334 35.001 -23.001l18 -5c5.33301 -0.666992 11 -1 17 -1c28 0 51.833 9.66699 71.5 29s29.5 43 29.5 71h62c0 -23.333 -4.33301 -44.666 -13 -63.999l-3 -8c-6.66699 -13.333 -15.667 -26 -27 -38l-6 -7
c-18.667 -18 -39.334 -30.667 -62.001 -38l-30 -7c-7.33301 -0.666992 -14.666 -1 -21.999 -1s-14.666 0.333008 -21.999 1l-26 6c-24.667 7.33301 -47 21 -67 41c-17.333 17.333 -30 36.666 -38 57.999l-7 40v17h60z" />
    <glyph glyph-name="Gdotaccent" unicode="&#x120;" horiz-adv-x="1462" 
d="M656 1173c-83.333 -10 -155.666 -54.002 -216.999 -132.002c-70 -89.333 -105 -197.333 -105 -324c0 -126 35 -233.667 105 -323c61.333 -78.667 133.666 -123 216.999 -133v-260c-176.667 6.66699 -328.334 76.667 -455.001 210c-134 140 -201 309.333 -201 508
s67 368.334 201 509.001c126.667 132.667 278.334 202.334 455.001 209.001v-264zM946 1041c-66 84.667 -145.332 129.334 -237.999 134.001v263c179.333 -6 333.333 -76 462 -210c65.333 -68.667 114.666 -144.334 147.999 -227.001l-284 -140
c-16.667 66.667 -46 126.667 -88 180zM1371 701.998c-4 -191.333 -70.999 -355 -200.999 -491c-128.667 -134.667 -282.667 -205 -462 -211v259c92.667 4.66699 172 49.667 238 135c11.333 14 21.666 28.667 30.999 44h-271v264h665zM578.002 1578v188h215v-188h-215z" />
    <glyph glyph-name="gdotaccent" unicode="&#x121;" horiz-adv-x="1462" 
d="M656 1173c-83.333 -10 -155.666 -54.002 -216.999 -132.002c-70 -89.333 -105 -197.333 -105 -324c0 -126 35 -233.667 105 -323c61.333 -78.667 133.666 -123 216.999 -133v-260c-176.667 6.66699 -328.334 76.667 -455.001 210c-134 140 -201 309.333 -201 508
s67 368.334 201 509.001c126.667 132.667 278.334 202.334 455.001 209.001v-264zM946 1041c-66 84.667 -145.332 129.334 -237.999 134.001v263c179.333 -6 333.333 -76 462 -210c65.333 -68.667 114.666 -144.334 147.999 -227.001l-284 -140
c-16.667 66.667 -46 126.667 -88 180zM1371 701.998c-4 -191.333 -70.999 -355 -200.999 -491c-128.667 -134.667 -282.667 -205 -462 -211v259c92.667 4.66699 172 49.667 238 135c11.333 14 21.666 28.667 30.999 44h-271v264h665zM578.002 1578v188h215v-188h-215z" />
    <glyph glyph-name="Hcircumflex" unicode="&#x124;" horiz-adv-x="1392" 
d="M326 0h-326v1437h326v-1437zM1287 0h-326v1437h326v-1437zM901 888v-264h-520v264h520zM644 1764l-148 -188h-122l209 264h122l209 -264h-122z" />
    <glyph glyph-name="hcircumflex" unicode="&#x125;" horiz-adv-x="1392" 
d="M326 0h-326v1437h326v-1437zM1287 0h-326v1437h326v-1437zM901 888v-264h-520v264h520zM644 1764l-148 -188h-122l209 264h122l209 -264h-122z" />
    <glyph glyph-name="Itilde" unicode="&#x128;" horiz-adv-x="427" 
d="M326 0h-326v1437h326v-1437zM149 1616c-2 2.66699 -4.33008 5.33398 -6.99707 8.00098l-2 2l-11 9c-17.333 12.667 -37 19 -59 19c-28 0 -51.667 -10 -71 -30c-10.667 -10.667 -18.334 -22.334 -23.001 -35.001v-9h-64l2 22c7.33301 24.667 21 47 41 67
c17.333 17.333 36.666 30 57.999 38l40 7h36l20 -1c28.667 -6.66699 54.334 -21.334 77.001 -44.001l7 -7c16.667 -13.333 36.667 -20 60 -20c28 0 52 9.66699 72 29c12 12.667 20.333 26.667 25 42h64c-2.66699 -15.333 -7.33398 -29.666 -14.001 -42.999l-4 -7
c-7.33301 -12.667 -16.333 -24.667 -27 -36c-16.667 -16 -34.667 -28 -54 -36l-11 -4c-16 -4.66699 -33 -7 -51 -7c-30 0 -54 5.33301 -72 16c-10.667 5.33301 -21.334 12 -32.001 20z" />
    <glyph glyph-name="itilde" unicode="&#x129;" horiz-adv-x="427" 
d="M326 0h-326v1437h326v-1437zM149 1616c-2 2.66699 -4.33008 5.33398 -6.99707 8.00098l-2 2l-11 9c-17.333 12.667 -37 19 -59 19c-28 0 -51.667 -10 -71 -30c-10.667 -10.667 -18.334 -22.334 -23.001 -35.001v-9h-64l2 22c7.33301 24.667 21 47 41 67
c17.333 17.333 36.666 30 57.999 38l40 7h36l20 -1c28.667 -6.66699 54.334 -21.334 77.001 -44.001l7 -7c16.667 -13.333 36.667 -20 60 -20c28 0 52 9.66699 72 29c12 12.667 20.333 26.667 25 42h64c-2.66699 -15.333 -7.33398 -29.666 -14.001 -42.999l-4 -7
c-7.33301 -12.667 -16.333 -24.667 -27 -36c-16.667 -16 -34.667 -28 -54 -36l-11 -4c-16 -4.66699 -33 -7 -51 -7c-30 0 -54 5.33301 -72 16c-10.667 5.33301 -21.334 12 -32.001 20z" />
    <glyph glyph-name="Ibreve" unicode="&#x12c;" horiz-adv-x="427" 
d="M326 0h-326v1437h326v-1437zM62 1741c0 -28 9.99805 -51.666 29.998 -70.999c10.667 -10.667 22.334 -18.334 35.001 -23.001l18 -5c5.33301 -0.666992 11 -1 17 -1c28 0 51.833 9.66699 71.5 29s29.5 43 29.5 71h62c0 -23.333 -4.33301 -44.666 -13 -63.999l-3 -8
c-6.66699 -13.333 -15.667 -26 -27 -38l-6 -7c-18.667 -18 -39.334 -30.667 -62.001 -38l-30 -7c-7.33301 -0.666992 -14.666 -1 -21.999 -1s-14.666 0.333008 -21.999 1l-26 6c-24.667 7.33301 -47 21 -67 41c-17.333 17.333 -30 36.666 -38 57.999l-7 40v17h60z" />
    <glyph glyph-name="ibreve" unicode="&#x12d;" horiz-adv-x="427" 
d="M326 0h-326v1437h326v-1437zM62 1741c0 -28 9.99805 -51.666 29.998 -70.999c10.667 -10.667 22.334 -18.334 35.001 -23.001l18 -5c5.33301 -0.666992 11 -1 17 -1c28 0 51.833 9.66699 71.5 29s29.5 43 29.5 71h62c0 -23.333 -4.33301 -44.666 -13 -63.999l-3 -8
c-6.66699 -13.333 -15.667 -26 -27 -38l-6 -7c-18.667 -18 -39.334 -30.667 -62.001 -38l-30 -7c-7.33301 -0.666992 -14.666 -1 -21.999 -1s-14.666 0.333008 -21.999 1l-26 6c-24.667 7.33301 -47 21 -67 41c-17.333 17.333 -30 36.666 -38 57.999l-7 40v17h60z" />
    <glyph glyph-name="Iogonek" unicode="&#x12e;" horiz-adv-x="427" 
d="M326 0h-326v1437h326v-1437zM259 2c-16 -4.66699 -30.333 -13.3311 -43 -25.998c-0.666992 -0.666992 -4.33398 -5 -11.001 -13c-12.667 -17.333 -19 -37 -19 -59c0 -28 10 -51.667 30 -71c10.667 -10.667 22.334 -18.334 35.001 -23.001l18 -5
c5.33301 -0.666992 24.333 -1 57 -1v-63c-34 0 -54.667 0.333008 -62 1l-26 6c-24.667 7.33301 -47 21 -67 41c-17.333 17.333 -30 36.666 -38 57.999l-7 40v36l1 20c6.66699 28.667 21.334 54.334 44.001 77.001c16 15.333 33.333 27 52 35l8 3
c9.33301 3.33301 18.666 5.66602 27.999 6.99902v-63z" />
    <glyph glyph-name="iogonek" unicode="&#x12f;" horiz-adv-x="427" 
d="M326 0h-326v1437h326v-1437zM259 2c-16 -4.66699 -30.333 -13.3311 -43 -25.998c-0.666992 -0.666992 -4.33398 -5 -11.001 -13c-12.667 -17.333 -19 -37 -19 -59c0 -28 10 -51.667 30 -71c10.667 -10.667 22.334 -18.334 35.001 -23.001l18 -5
c5.33301 -0.666992 24.333 -1 57 -1v-63c-34 0 -54.667 0.333008 -62 1l-26 6c-24.667 7.33301 -47 21 -67 41c-17.333 17.333 -30 36.666 -38 57.999l-7 40v36l1 20c6.66699 28.667 21.334 54.334 44.001 77.001c16 15.333 33.333 27 52 35l8 3
c9.33301 3.33301 18.666 5.66602 27.999 6.99902v-63z" />
    <glyph glyph-name="Idotaccent" unicode="&#x130;" horiz-adv-x="427" 
d="M326 0h-326v1437h326v-1437zM56 1578v188h215v-188h-215z" />
    <glyph glyph-name="dotlessi" unicode="&#x131;" horiz-adv-x="424" 
d="M326 0h-326v1437h326v-1437z" />
    <glyph glyph-name="Jcircumflex" unicode="&#x134;" horiz-adv-x="583" 
d="M485 1431l0.999023 -988c-32.667 -247.333 -133.667 -392 -303 -434c-45.333 -14 -106.666 -20 -183.999 -18v318c105.333 14 158.333 69.667 159 167v955h327zM312.999 1764l-148 -188h-122l209 264h122l209 -264h-122z" />
    <glyph glyph-name="jcircumflex" unicode="&#x135;" horiz-adv-x="583" 
d="M485 1431l0.999023 -988c-32.667 -247.333 -133.667 -392 -303 -434c-45.333 -14 -106.666 -20 -183.999 -18v318c105.333 14 158.333 69.667 159 167v955h327zM312.999 1764l-148 -188h-122l209 264h122l209 -264h-122z" />
    <glyph glyph-name="Lacute" unicode="&#x139;" horiz-adv-x="1166" 
d="M326 0h-326v1437h326v-1437zM1066 265v-264h-672v264h672zM532 1577h-102l87 264h221z" />
    <glyph glyph-name="lacute" unicode="&#x13a;" horiz-adv-x="1166" 
d="M326 0h-326v1437h326v-1437zM1066 265v-264h-672v264h672zM532 1577h-102l87 264h221z" />
    <glyph glyph-name="Lcaron" unicode="&#x13d;" horiz-adv-x="1149" 
d="M326 0h-326v1437h326v-1437zM1066 265v-264h-672v264h672zM733 1432v-617h-326v617h326z" />
    <glyph glyph-name="lcaron" unicode="&#x13e;" horiz-adv-x="1149" 
d="M326 0h-326v1437h326v-1437zM1066 265v-264h-672v264h672zM733 1432v-617h-326v617h326z" />
    <glyph glyph-name="Ldot" unicode="&#x13f;" horiz-adv-x="1166" 
d="M326 0h-326v1437h326v-1437zM1066 265v-264h-672v264h672zM868 851v-264h-326v264h326z" />
    <glyph glyph-name="ldot" unicode="&#x140;" horiz-adv-x="1166" 
d="M326 0h-326v1437h326v-1437zM1066 265v-264h-672v264h672zM868 851v-264h-326v264h326z" />
    <glyph glyph-name="Lslash" unicode="&#x141;" horiz-adv-x="1322" 
d="M496 0h-326v1437h326v-1437zM1236 265v-264h-672v264h672zM672 885v-264h-672v264h672z" />
    <glyph glyph-name="lslash" unicode="&#x142;" horiz-adv-x="1322" 
d="M496 0h-326v1437h326v-1437zM1236 265v-264h-672v264h672zM672 885v-264h-672v264h672z" />
    <glyph glyph-name="Nacute" unicode="&#x143;" horiz-adv-x="1273" 
d="M326 0h-326v1348l326 -544v-804zM856 1l-852 1432h310l853 -1433zM843 1434h326v-1348l-326 544v804zM584 1577h-102l87 264h221z" />
    <glyph glyph-name="nacute" unicode="&#x144;" horiz-adv-x="1273" 
d="M326 0h-326v1348l326 -544v-804zM856 1l-852 1432h310l853 -1433zM843 1434h326v-1348l-326 544v804zM584 1577h-102l87 264h221z" />
    <glyph glyph-name="Ncaron" unicode="&#x147;" horiz-adv-x="1273" 
d="M326 0h-326v1348l326 -544v-804zM856 1l-852 1432h310l853 -1433zM843 1434h326v-1348l-326 544v804zM733 1840h122l-209 -264h-122l-209 264h122l148 -188z" />
    <glyph glyph-name="ncaron" unicode="&#x148;" horiz-adv-x="1273" 
d="M326 0h-326v1348l326 -544v-804zM856 1l-852 1432h310l853 -1433zM843 1434h326v-1348l-326 544v804zM733 1840h122l-209 -264h-122l-209 264h122l148 -188z" />
    <glyph glyph-name="Obreve" unicode="&#x14e;" horiz-adv-x="1471" 
d="M656 1173c-83.333 -10 -155.666 -54.002 -216.999 -132.002c-70 -89.333 -105 -197.333 -105 -324c0 -126 35 -233.667 105 -323c61.333 -78.667 133.666 -123 216.999 -133v-260c-176.667 6.66699 -328.334 76.667 -455.001 210c-134 140 -201 309.333 -201 508
s67 368.334 201 509.001c126.667 132.667 278.334 202.334 455.001 209.001v-264zM708 258.998c92.667 4.66699 172 49.667 238 135c70 89.333 105 197 105 323c0 126.667 -35 234.667 -105 324c-66 84.667 -145.333 129.334 -238 134.001v263
c179.333 -6 333.333 -76 462 -210c134 -140.667 201 -310.334 201 -509.001s-67 -368 -201 -508c-128.667 -134.667 -282.667 -205 -462 -211v259zM584 1741c0 -28 9.99805 -51.666 29.998 -70.999c10.667 -10.667 22.334 -18.334 35.001 -23.001l18 -5
c5.33301 -0.666992 11 -1 17 -1c28 0 51.833 9.66699 71.5 29s29.5 43 29.5 71h62c0 -23.333 -4.33301 -44.666 -13 -63.999l-3 -8c-6.66699 -13.333 -15.667 -26 -27 -38l-6 -7c-18.667 -18 -39.334 -30.667 -62.001 -38l-30 -7c-7.33301 -0.666992 -14.666 -1 -21.999 -1
s-14.666 0.333008 -21.999 1l-26 6c-24.667 7.33301 -47 21 -67 41c-17.333 17.333 -30 36.666 -38 57.999l-7 40v17h60z" />
    <glyph glyph-name="obreve" unicode="&#x14f;" horiz-adv-x="1471" 
d="M656 1173c-83.333 -10 -155.666 -54.002 -216.999 -132.002c-70 -89.333 -105 -197.333 -105 -324c0 -126 35 -233.667 105 -323c61.333 -78.667 133.666 -123 216.999 -133v-260c-176.667 6.66699 -328.334 76.667 -455.001 210c-134 140 -201 309.333 -201 508
s67 368.334 201 509.001c126.667 132.667 278.334 202.334 455.001 209.001v-264zM708 258.998c92.667 4.66699 172 49.667 238 135c70 89.333 105 197 105 323c0 126.667 -35 234.667 -105 324c-66 84.667 -145.333 129.334 -238 134.001v263
c179.333 -6 333.333 -76 462 -210c134 -140.667 201 -310.334 201 -509.001s-67 -368 -201 -508c-128.667 -134.667 -282.667 -205 -462 -211v259zM584 1741c0 -28 9.99805 -51.666 29.998 -70.999c10.667 -10.667 22.334 -18.334 35.001 -23.001l18 -5
c5.33301 -0.666992 11 -1 17 -1c28 0 51.833 9.66699 71.5 29s29.5 43 29.5 71h62c0 -23.333 -4.33301 -44.666 -13 -63.999l-3 -8c-6.66699 -13.333 -15.667 -26 -27 -38l-6 -7c-18.667 -18 -39.334 -30.667 -62.001 -38l-30 -7c-7.33301 -0.666992 -14.666 -1 -21.999 -1
s-14.666 0.333008 -21.999 1l-26 6c-24.667 7.33301 -47 21 -67 41c-17.333 17.333 -30 36.666 -38 57.999l-7 40v17h60z" />
    <glyph glyph-name="Ohungarumlaut" unicode="&#x150;" horiz-adv-x="1471" 
d="M656 1173c-83.333 -10 -155.666 -54.002 -216.999 -132.002c-70 -89.333 -105 -197.333 -105 -324c0 -126 35 -233.667 105 -323c61.333 -78.667 133.666 -123 216.999 -133v-260c-176.667 6.66699 -328.334 76.667 -455.001 210c-134 140 -201 309.333 -201 508
s67 368.334 201 509.001c126.667 132.667 278.334 202.334 455.001 209.001v-264zM708 258.998c92.667 4.66699 172 49.667 238 135c70 89.333 105 197 105 323c0 126.667 -35 234.667 -105 324c-66 84.667 -145.333 129.334 -238 134.001v263
c179.333 -6 333.333 -76 462 -210c134 -140.667 201 -310.334 201 -509.001s-67 -368 -201 -508c-128.667 -134.667 -282.667 -205 -462 -211v259zM584 1577h-102l87 264h221zM864 1577h-102l87 264h221z" />
    <glyph glyph-name="ohungarumlaut" unicode="&#x151;" horiz-adv-x="1471" 
d="M656 1173c-83.333 -10 -155.666 -54.002 -216.999 -132.002c-70 -89.333 -105 -197.333 -105 -324c0 -126 35 -233.667 105 -323c61.333 -78.667 133.666 -123 216.999 -133v-260c-176.667 6.66699 -328.334 76.667 -455.001 210c-134 140 -201 309.333 -201 508
s67 368.334 201 509.001c126.667 132.667 278.334 202.334 455.001 209.001v-264zM708 258.998c92.667 4.66699 172 49.667 238 135c70 89.333 105 197 105 323c0 126.667 -35 234.667 -105 324c-66 84.667 -145.333 129.334 -238 134.001v263
c179.333 -6 333.333 -76 462 -210c134 -140.667 201 -310.334 201 -509.001s-67 -368 -201 -508c-128.667 -134.667 -282.667 -205 -462 -211v259zM584 1577h-102l87 264h221zM864 1577h-102l87 264h221z" />
    <glyph glyph-name="OE" unicode="&#x152;" horiz-adv-x="1841" 
d="M1036 0h-326v1437h326v-1437zM1764 1434v-264h-672v264h672zM1711 891v-264h-617v264h617zM1767 266v-264h-672v264h672zM656 1173c-83.333 -10 -155.666 -54.002 -216.999 -132.002c-70 -89.333 -105 -197.333 -105 -324c0 -126 35 -233.667 105 -323
c61.333 -78.667 133.666 -123 216.999 -133v-260c-176.667 6.66699 -328.334 76.667 -455.001 210c-134 140 -201 309.333 -201 508s67 368.334 201 509.001c126.667 132.667 278.334 202.334 455.001 209.001v-264z" />
    <glyph glyph-name="oe" unicode="&#x153;" horiz-adv-x="1841" 
d="M1036 0h-326v1437h326v-1437zM1764 1434v-264h-672v264h672zM1711 891v-264h-617v264h617zM1767 266v-264h-672v264h672zM656 1173c-83.333 -10 -155.666 -54.002 -216.999 -132.002c-70 -89.333 -105 -197.333 -105 -324c0 -126 35 -233.667 105 -323
c61.333 -78.667 133.666 -123 216.999 -133v-260c-176.667 6.66699 -328.334 76.667 -455.001 210c-134 140 -201 309.333 -201 508s67 368.334 201 509.001c126.667 132.667 278.334 202.334 455.001 209.001v-264z" />
    <glyph glyph-name="Racute" unicode="&#x154;" horiz-adv-x="1294" 
d="M326 0h-326v1437h326v-1437zM981 645c25.333 -26 49.666 -63.665 72.999 -112.998c10 -10.667 18.667 -53.334 26 -128.001l10 -51c22.667 -136 41.334 -222 56.001 -258c9.33301 -27.333 29.666 -59 60.999 -95h-341c-14 1.33301 -34.333 42.666 -61 123.999
c-6 10 -23 105 -51 285c-12 42.667 -39.333 76.667 -82 102c-40 14 -138 21 -294 21v260h261c102 36 153 103.333 153 202v25c-22.667 107.333 -84 163 -184 167h-230v255h230c192.667 0 332.334 -52.333 419.001 -157c61.333 -89.333 92 -183 92 -281v-19
c0 -112 -32.333 -210.333 -97 -295c-12 -16 -25.667 -30.667 -41 -44zM653 1577h-102l87 264h221z" />
    <glyph glyph-name="racute" unicode="&#x155;" horiz-adv-x="1294" 
d="M326 0h-326v1437h326v-1437zM981 645c25.333 -26 49.666 -63.665 72.999 -112.998c10 -10.667 18.667 -53.334 26 -128.001l10 -51c22.667 -136 41.334 -222 56.001 -258c9.33301 -27.333 29.666 -59 60.999 -95h-341c-14 1.33301 -34.333 42.666 -61 123.999
c-6 10 -23 105 -51 285c-12 42.667 -39.333 76.667 -82 102c-40 14 -138 21 -294 21v260h261c102 36 153 103.333 153 202v25c-22.667 107.333 -84 163 -184 167h-230v255h230c192.667 0 332.334 -52.333 419.001 -157c61.333 -89.333 92 -183 92 -281v-19
c0 -112 -32.333 -210.333 -97 -295c-12 -16 -25.667 -30.667 -41 -44zM653 1577h-102l87 264h221z" />
    <glyph glyph-name="Rcaron" unicode="&#x158;" horiz-adv-x="1294" 
d="M326 0h-326v1437h326v-1437zM981 645c25.333 -26 49.666 -63.665 72.999 -112.998c10 -10.667 18.667 -53.334 26 -128.001l10 -51c22.667 -136 41.334 -222 56.001 -258c9.33301 -27.333 29.666 -59 60.999 -95h-341c-14 1.33301 -34.333 42.666 -61 123.999
c-6 10 -23 105 -51 285c-12 42.667 -39.333 76.667 -82 102c-40 14 -138 21 -294 21v260h261c102 36 153 103.333 153 202v25c-22.667 107.333 -84 163 -184 167h-230v255h230c192.667 0 332.334 -52.333 419.001 -157c61.333 -89.333 92 -183 92 -281v-19
c0 -112 -32.333 -210.333 -97 -295c-12 -16 -25.667 -30.667 -41 -44zM752 1840h122l-209 -264h-122l-209 264h122l148 -188z" />
    <glyph glyph-name="rcaron" unicode="&#x159;" horiz-adv-x="1294" 
d="M326 0h-326v1437h326v-1437zM981 645c25.333 -26 49.666 -63.665 72.999 -112.998c10 -10.667 18.667 -53.334 26 -128.001l10 -51c22.667 -136 41.334 -222 56.001 -258c9.33301 -27.333 29.666 -59 60.999 -95h-341c-14 1.33301 -34.333 42.666 -61 123.999
c-6 10 -23 105 -51 285c-12 42.667 -39.333 76.667 -82 102c-40 14 -138 21 -294 21v260h261c102 36 153 103.333 153 202v25c-22.667 107.333 -84 163 -184 167h-230v255h230c192.667 0 332.334 -52.333 419.001 -157c61.333 -89.333 92 -183 92 -281v-19
c0 -112 -32.333 -210.333 -97 -295c-12 -16 -25.667 -30.667 -41 -44zM752 1840h122l-209 -264h-122l-209 264h122l148 -188z" />
    <glyph glyph-name="Sacute" unicode="&#x15a;" horiz-adv-x="1261" 
d="M368 325c61.333 -35.333 119.666 -56.333 174.999 -63l29 -5l-2 -257c-174 -4.66699 -307.333 31 -400 107c-103.333 66.667 -158.666 182.667 -165.999 348l301 29c5.33301 -70 26.333 -121.667 63 -155v-4zM476 612c-288 52 -432 185.667 -432 401v19
c0 224.667 145.333 357 436 397l90 2l2 -239c-65.333 -5.33301 -110.666 -13.333 -135.999 -24c-52.667 -20 -78.334 -65.333 -77.001 -136c0 -66 83.667 -114.333 251 -145c42 -7.33301 76.333 -14.333 103 -21c296.667 -49.333 445 -190.666 445 -423.999v-20
c0 -239.333 -145.333 -380.333 -436 -423l-98 -3v253c69.333 7.33301 116.666 16.666 141.999 27.999c52.667 21.333 78.334 69.666 77.001 144.999c0 70.667 -82.667 125.334 -248 164.001c-37.333 11.333 -78.333 21 -123 29zM619 1434
c143.333 0 269.668 -40.334 379.001 -121.001c64 -53.333 110.667 -152 140 -296v-14l-164 -20l-136 -9c-12.667 78.667 -35.334 130.334 -68.001 155.001c-26.667 22.667 -76.667 43.667 -150 63zM640.002 1577h-102l87 264h221z" />
    <glyph glyph-name="sacute" unicode="&#x15b;" horiz-adv-x="1261" 
d="M368 325c61.333 -35.333 119.666 -56.333 174.999 -63l29 -5l-2 -257c-174 -4.66699 -307.333 31 -400 107c-103.333 66.667 -158.666 182.667 -165.999 348l301 29c5.33301 -70 26.333 -121.667 63 -155v-4zM476 612c-288 52 -432 185.667 -432 401v19
c0 224.667 145.333 357 436 397l90 2l2 -239c-65.333 -5.33301 -110.666 -13.333 -135.999 -24c-52.667 -20 -78.334 -65.333 -77.001 -136c0 -66 83.667 -114.333 251 -145c42 -7.33301 76.333 -14.333 103 -21c296.667 -49.333 445 -190.666 445 -423.999v-20
c0 -239.333 -145.333 -380.333 -436 -423l-98 -3v253c69.333 7.33301 116.666 16.666 141.999 27.999c52.667 21.333 78.334 69.666 77.001 144.999c0 70.667 -82.667 125.334 -248 164.001c-37.333 11.333 -78.333 21 -123 29zM619 1434
c143.333 0 269.668 -40.334 379.001 -121.001c64 -53.333 110.667 -152 140 -296v-14l-164 -20l-136 -9c-12.667 78.667 -35.334 130.334 -68.001 155.001c-26.667 22.667 -76.667 43.667 -150 63zM640.002 1577h-102l87 264h221z" />
    <glyph glyph-name="Scircumflex" unicode="&#x15c;" horiz-adv-x="1261" 
d="M368 325c61.333 -35.333 119.666 -56.333 174.999 -63l29 -5l-2 -257c-174 -4.66699 -307.333 31 -400 107c-103.333 66.667 -158.666 182.667 -165.999 348l301 29c5.33301 -70 26.333 -121.667 63 -155v-4zM476 612c-288 52 -432 185.667 -432 401v19
c0 224.667 145.333 357 436 397l90 2l2 -239c-65.333 -5.33301 -110.666 -13.333 -135.999 -24c-52.667 -20 -78.334 -65.333 -77.001 -136c0 -66 83.667 -114.333 251 -145c42 -7.33301 76.333 -14.333 103 -21c296.667 -49.333 445 -190.666 445 -423.999v-20
c0 -239.333 -145.333 -380.333 -436 -423l-98 -3v253c69.333 7.33301 116.666 16.666 141.999 27.999c52.667 21.333 78.334 69.666 77.001 144.999c0 70.667 -82.667 125.334 -248 164.001c-37.333 11.333 -78.333 21 -123 29zM619 1434
c143.333 0 269.668 -40.334 379.001 -121.001c64 -53.333 110.667 -152 140 -296v-14l-164 -20l-136 -9c-12.667 78.667 -35.334 130.334 -68.001 155.001c-26.667 22.667 -76.667 43.667 -150 63zM591.002 1764l-148 -188h-122l209 264h122l209 -264h-122z" />
    <glyph glyph-name="scircumflex" unicode="&#x15d;" horiz-adv-x="1261" 
d="M368 325c61.333 -35.333 119.666 -56.333 174.999 -63l29 -5l-2 -257c-174 -4.66699 -307.333 31 -400 107c-103.333 66.667 -158.666 182.667 -165.999 348l301 29c5.33301 -70 26.333 -121.667 63 -155v-4zM476 612c-288 52 -432 185.667 -432 401v19
c0 224.667 145.333 357 436 397l90 2l2 -239c-65.333 -5.33301 -110.666 -13.333 -135.999 -24c-52.667 -20 -78.334 -65.333 -77.001 -136c0 -66 83.667 -114.333 251 -145c42 -7.33301 76.333 -14.333 103 -21c296.667 -49.333 445 -190.666 445 -423.999v-20
c0 -239.333 -145.333 -380.333 -436 -423l-98 -3v253c69.333 7.33301 116.666 16.666 141.999 27.999c52.667 21.333 78.334 69.666 77.001 144.999c0 70.667 -82.667 125.334 -248 164.001c-37.333 11.333 -78.333 21 -123 29zM619 1434
c143.333 0 269.668 -40.334 379.001 -121.001c64 -53.333 110.667 -152 140 -296v-14l-164 -20l-136 -9c-12.667 78.667 -35.334 130.334 -68.001 155.001c-26.667 22.667 -76.667 43.667 -150 63zM591.002 1764l-148 -188h-122l209 264h122l209 -264h-122z" />
    <glyph glyph-name="Scaron" unicode="&#x160;" horiz-adv-x="1261" 
d="M368 325c61.333 -35.333 119.666 -56.333 174.999 -63l29 -5l-2 -257c-174 -4.66699 -307.333 31 -400 107c-103.333 66.667 -158.666 182.667 -165.999 348l301 29c5.33301 -70 26.333 -121.667 63 -155v-4zM476 612c-288 52 -432 185.667 -432 401v19
c0 224.667 145.333 357 436 397l90 2l2 -239c-65.333 -5.33301 -110.666 -13.333 -135.999 -24c-52.667 -20 -78.334 -65.333 -77.001 -136c0 -66 83.667 -114.333 251 -145c42 -7.33301 76.333 -14.333 103 -21c296.667 -49.333 445 -190.666 445 -423.999v-20
c0 -239.333 -145.333 -380.333 -436 -423l-98 -3v253c69.333 7.33301 116.666 16.666 141.999 27.999c52.667 21.333 78.334 69.666 77.001 144.999c0 70.667 -82.667 125.334 -248 164.001c-37.333 11.333 -78.333 21 -123 29zM619 1434
c143.333 0 269.668 -40.334 379.001 -121.001c64 -53.333 110.667 -152 140 -296v-14l-164 -20l-136 -9c-12.667 78.667 -35.334 130.334 -68.001 155.001c-26.667 22.667 -76.667 43.667 -150 63zM739.002 1840h122l-209 -264h-122l-209 264h122l148 -188z" />
    <glyph glyph-name="scaron" unicode="&#x161;" horiz-adv-x="1261" 
d="M368 325c61.333 -35.333 119.666 -56.333 174.999 -63l29 -5l-2 -257c-174 -4.66699 -307.333 31 -400 107c-103.333 66.667 -158.666 182.667 -165.999 348l301 29c5.33301 -70 26.333 -121.667 63 -155v-4zM476 612c-288 52 -432 185.667 -432 401v19
c0 224.667 145.333 357 436 397l90 2l2 -239c-65.333 -5.33301 -110.666 -13.333 -135.999 -24c-52.667 -20 -78.334 -65.333 -77.001 -136c0 -66 83.667 -114.333 251 -145c42 -7.33301 76.333 -14.333 103 -21c296.667 -49.333 445 -190.666 445 -423.999v-20
c0 -239.333 -145.333 -380.333 -436 -423l-98 -3v253c69.333 7.33301 116.666 16.666 141.999 27.999c52.667 21.333 78.334 69.666 77.001 144.999c0 70.667 -82.667 125.334 -248 164.001c-37.333 11.333 -78.333 21 -123 29zM619 1434
c143.333 0 269.668 -40.334 379.001 -121.001c64 -53.333 110.667 -152 140 -296v-14l-164 -20l-136 -9c-12.667 78.667 -35.334 130.334 -68.001 155.001c-26.667 22.667 -76.667 43.667 -150 63zM739.002 1840h122l-209 -264h-122l-209 264h122l148 -188z" />
    <glyph glyph-name="Tcaron" unicode="&#x164;" 
d="M702 3h-326v1111h326v-1111zM1065 1431v-264h-1068v264h1068zM679 1840h122l-209 -264h-122l-209 264h122l148 -188z" />
    <glyph glyph-name="tcaron" unicode="&#x165;" 
d="M702 3h-326v1111h326v-1111zM1065 1431v-264h-1068v264h1068zM679 1840h122l-209 -264h-122l-209 264h122l148 -188z" />
    <glyph glyph-name="Tbar" unicode="&#x166;" horiz-adv-x="1145" 
d="M867 885v-264h-672v264h672zM702 3h-326v1111h326v-1111zM1065 1431v-264h-1068v264h1068z" />
    <glyph glyph-name="tbar" unicode="&#x167;" horiz-adv-x="1145" 
d="M867 885v-264h-672v264h672zM702 3h-326v1111h326v-1111zM1065 1431v-264h-1068v264h1068z" />
    <glyph glyph-name="Utilde" unicode="&#x168;" 
d="M1065 1437l1 -988c-6 -247.333 -107 -392 -303 -434c-45.333 -14 -110 -20 -194 -18v318c112 14 169 69.667 171 167v955h325zM325 1437v-955c2 -97.333 59 -153 171 -167v-318c-84 -2 -148.667 4 -194 18c-189.333 42 -290.333 186.667 -303 434l1 988h325zM519 1616
c-2 2.66699 -4.33008 5.33398 -6.99707 8.00098l-2 2l-11 9c-17.333 12.667 -37 19 -59 19c-28 0 -51.667 -10 -71 -30c-10.667 -10.667 -18.334 -22.334 -23.001 -35.001v-9h-64l2 22c7.33301 24.667 21 47 41 67c17.333 17.333 36.666 30 57.999 38l40 7h36l20 -1
c28.667 -6.66699 54.334 -21.334 77.001 -44.001l7 -7c16.667 -13.333 36.667 -20 60 -20c28 0 52 9.66699 72 29c12 12.667 20.333 26.667 25 42h64c-2.66699 -15.333 -7.33398 -29.666 -14.001 -42.999l-4 -7c-7.33301 -12.667 -16.333 -24.667 -27 -36
c-16.667 -16 -34.667 -28 -54 -36l-11 -4c-16 -4.66699 -33 -7 -51 -7c-30 0 -54 5.33301 -72 16c-10.667 5.33301 -21.334 12 -32.001 20z" />
    <glyph glyph-name="utilde" unicode="&#x169;" 
d="M1065 1437l1 -988c-6 -247.333 -107 -392 -303 -434c-45.333 -14 -110 -20 -194 -18v318c112 14 169 69.667 171 167v955h325zM325 1437v-955c2 -97.333 59 -153 171 -167v-318c-84 -2 -148.667 4 -194 18c-189.333 42 -290.333 186.667 -303 434l1 988h325zM519 1616
c-2 2.66699 -4.33008 5.33398 -6.99707 8.00098l-2 2l-11 9c-17.333 12.667 -37 19 -59 19c-28 0 -51.667 -10 -71 -30c-10.667 -10.667 -18.334 -22.334 -23.001 -35.001v-9h-64l2 22c7.33301 24.667 21 47 41 67c17.333 17.333 36.666 30 57.999 38l40 7h36l20 -1
c28.667 -6.66699 54.334 -21.334 77.001 -44.001l7 -7c16.667 -13.333 36.667 -20 60 -20c28 0 52 9.66699 72 29c12 12.667 20.333 26.667 25 42h64c-2.66699 -15.333 -7.33398 -29.666 -14.001 -42.999l-4 -7c-7.33301 -12.667 -16.333 -24.667 -27 -36
c-16.667 -16 -34.667 -28 -54 -36l-11 -4c-16 -4.66699 -33 -7 -51 -7c-30 0 -54 5.33301 -72 16c-10.667 5.33301 -21.334 12 -32.001 20z" />
    <glyph glyph-name="Ubreve" unicode="&#x16c;" 
d="M1065 1437l1 -988c-6 -247.333 -107 -392 -303 -434c-45.333 -14 -110 -20 -194 -18v318c112 14 169 69.667 171 167v955h325zM325 1437v-955c2 -97.333 59 -153 171 -167v-318c-84 -2 -148.667 4 -194 18c-189.333 42 -290.333 186.667 -303 434l1 988h325zM431 1741
c0 -28 9.99805 -51.666 29.998 -70.999c10.667 -10.667 22.334 -18.334 35.001 -23.001l18 -5c5.33301 -0.666992 11 -1 17 -1c28 0 51.833 9.66699 71.5 29s29.5 43 29.5 71h62c0 -23.333 -4.33301 -44.666 -13 -63.999l-3 -8c-6.66699 -13.333 -15.667 -26 -27 -38l-6 -7
c-18.667 -18 -39.334 -30.667 -62.001 -38l-30 -7c-7.33301 -0.666992 -14.666 -1 -21.999 -1s-14.666 0.333008 -21.999 1l-26 6c-24.667 7.33301 -47 21 -67 41c-17.333 17.333 -30 36.666 -38 57.999l-7 40v17h60z" />
    <glyph glyph-name="ubreve" unicode="&#x16d;" 
d="M1065 1437l1 -988c-6 -247.333 -107 -392 -303 -434c-45.333 -14 -110 -20 -194 -18v318c112 14 169 69.667 171 167v955h325zM325 1437v-955c2 -97.333 59 -153 171 -167v-318c-84 -2 -148.667 4 -194 18c-189.333 42 -290.333 186.667 -303 434l1 988h325zM431 1741
c0 -28 9.99805 -51.666 29.998 -70.999c10.667 -10.667 22.334 -18.334 35.001 -23.001l18 -5c5.33301 -0.666992 11 -1 17 -1c28 0 51.833 9.66699 71.5 29s29.5 43 29.5 71h62c0 -23.333 -4.33301 -44.666 -13 -63.999l-3 -8c-6.66699 -13.333 -15.667 -26 -27 -38l-6 -7
c-18.667 -18 -39.334 -30.667 -62.001 -38l-30 -7c-7.33301 -0.666992 -14.666 -1 -21.999 -1s-14.666 0.333008 -21.999 1l-26 6c-24.667 7.33301 -47 21 -67 41c-17.333 17.333 -30 36.666 -38 57.999l-7 40v17h60z" />
    <glyph glyph-name="Uring" unicode="&#x16e;" 
d="M1065 1437l1 -988c-6 -247.333 -107 -392 -303 -434c-45.333 -14 -110 -20 -194 -18v318c112 14 169 69.667 171 167v955h325zM325 1437v-955c2 -97.333 59 -153 171 -167v-318c-84 -2 -148.667 4 -194 18c-189.333 42 -290.333 186.667 -303 434l1 988h325zM505 1587
l-0.000976562 -64.9971l-22 3c-24.667 7.33301 -47 21 -67 41c-17.333 17.333 -30 36.666 -38 57.999l-7 40v36l1 20c6.66699 28.667 21.334 54.334 44.001 77.001c16 15.333 33.333 27 52 35h5l3 3c9.33301 3.33301 19 5.66602 29 6.99902v-63
c-16.667 -4.66699 -31.334 -13.334 -44.001 -26.001l-11 -13c-12.667 -17.333 -19 -37 -19 -59c0 -28 10 -51.667 30 -71c10.667 -10.667 22.334 -18.334 35.001 -23.001h9zM560.999 1778l0.00195312 64c15.333 -2.66699 29.666 -7.33398 42.999 -14.001l7 -4
c12.667 -7.33301 24.667 -16.333 36 -27c16 -16.667 28 -34.667 36 -54l4 -11c4.66699 -16 7 -33 7 -51c0 -23.333 -4.33301 -44.666 -13 -63.999l-3 -8c-6.66699 -13.333 -15.667 -26 -27 -38l-6 -7c-18.667 -18 -39.334 -30.667 -62.001 -38l-22 -4v63
c15.333 4.66699 29.333 13 42 25c19.333 19.333 29 43 29 71s-9.66699 52 -29 72c-12.667 12 -26.667 20.333 -42 25z" />
    <glyph glyph-name="uring" unicode="&#x16f;" 
d="M1065 1437l1 -988c-6 -247.333 -107 -392 -303 -434c-45.333 -14 -110 -20 -194 -18v318c112 14 169 69.667 171 167v955h325zM325 1437v-955c2 -97.333 59 -153 171 -167v-318c-84 -2 -148.667 4 -194 18c-189.333 42 -290.333 186.667 -303 434l1 988h325zM505 1587
l-0.000976562 -64.9971l-22 3c-24.667 7.33301 -47 21 -67 41c-17.333 17.333 -30 36.666 -38 57.999l-7 40v36l1 20c6.66699 28.667 21.334 54.334 44.001 77.001c16 15.333 33.333 27 52 35h5l3 3c9.33301 3.33301 19 5.66602 29 6.99902v-63
c-16.667 -4.66699 -31.334 -13.334 -44.001 -26.001l-11 -13c-12.667 -17.333 -19 -37 -19 -59c0 -28 10 -51.667 30 -71c10.667 -10.667 22.334 -18.334 35.001 -23.001h9zM560.999 1778l0.00195312 64c15.333 -2.66699 29.666 -7.33398 42.999 -14.001l7 -4
c12.667 -7.33301 24.667 -16.333 36 -27c16 -16.667 28 -34.667 36 -54l4 -11c4.66699 -16 7 -33 7 -51c0 -23.333 -4.33301 -44.666 -13 -63.999l-3 -8c-6.66699 -13.333 -15.667 -26 -27 -38l-6 -7c-18.667 -18 -39.334 -30.667 -62.001 -38l-22 -4v63
c15.333 4.66699 29.333 13 42 25c19.333 19.333 29 43 29 71s-9.66699 52 -29 72c-12.667 12 -26.667 20.333 -42 25z" />
    <glyph glyph-name="Uhungarumlaut" unicode="&#x170;" 
d="M1065 1437l1 -988c-6 -247.333 -107 -392 -303 -434c-45.333 -14 -110 -20 -194 -18v318c112 14 169 69.667 171 167v955h325zM325 1437v-955c2 -97.333 59 -153 171 -167v-318c-84 -2 -148.667 4 -194 18c-189.333 42 -290.333 186.667 -303 434l1 988h325zM441 1577
h-102l87 264h221zM721 1577h-102l87 264h221z" />
    <glyph glyph-name="uhungarumlaut" unicode="&#x171;" 
d="M1065 1437l1 -988c-6 -247.333 -107 -392 -303 -434c-45.333 -14 -110 -20 -194 -18v318c112 14 169 69.667 171 167v955h325zM325 1437v-955c2 -97.333 59 -153 171 -167v-318c-84 -2 -148.667 4 -194 18c-189.333 42 -290.333 186.667 -303 434l1 988h325zM441 1577
h-102l87 264h221zM721 1577h-102l87 264h221z" />
    <glyph glyph-name="Uogonek" unicode="&#x172;" 
d="M1065 1437l1 -988c-6 -247.333 -107 -392 -303 -434c-45.333 -14 -110 -20 -194 -18v318c112 14 169 69.667 171 167v955h325zM325 1437v-955c2 -97.333 59 -153 171 -167v-318c-84 -2 -148.667 4 -194 18c-189.333 42 -290.333 186.667 -303 434l1 988h325zM699 3
c-16 -4.66699 -30.333 -13.3311 -43 -25.998c-0.666992 -0.666992 -4.33398 -5 -11.001 -13c-12.667 -17.333 -19 -37 -19 -59c0 -28 10 -51.667 30 -71c10.667 -10.667 22.334 -18.334 35.001 -23.001l18 -5c5.33301 -0.666992 24.333 -1 57 -1v-63
c-34 0 -54.667 0.333008 -62 1l-26 6c-24.667 7.33301 -47 21 -67 41c-17.333 17.333 -30 36.666 -38 57.999l-7 40v36l1 20c6.66699 28.667 21.334 54.334 44.001 77.001c16 15.333 33.333 27 52 35l8 3c9.33301 3.33301 18.666 5.66602 27.999 6.99902v-63z" />
    <glyph glyph-name="uogonek" unicode="&#x173;" 
d="M1065 1437l1 -988c-6 -247.333 -107 -392 -303 -434c-45.333 -14 -110 -20 -194 -18v318c112 14 169 69.667 171 167v955h325zM325 1437v-955c2 -97.333 59 -153 171 -167v-318c-84 -2 -148.667 4 -194 18c-189.333 42 -290.333 186.667 -303 434l1 988h325zM699 3
c-16 -4.66699 -30.333 -13.3311 -43 -25.998c-0.666992 -0.666992 -4.33398 -5 -11.001 -13c-12.667 -17.333 -19 -37 -19 -59c0 -28 10 -51.667 30 -71c10.667 -10.667 22.334 -18.334 35.001 -23.001l18 -5c5.33301 -0.666992 24.333 -1 57 -1v-63
c-34 0 -54.667 0.333008 -62 1l-26 6c-24.667 7.33301 -47 21 -67 41c-17.333 17.333 -30 36.666 -38 57.999l-7 40v36l1 20c6.66699 28.667 21.334 54.334 44.001 77.001c16 15.333 33.333 27 52 35l8 3c9.33301 3.33301 18.666 5.66602 27.999 6.99902v-63z" />
    <glyph glyph-name="Wcircumflex" unicode="&#x174;" horiz-adv-x="2094" 
d="M632 0h-105l-523 1434h310l318 -872v-562zM1384 550l321 881h310l-522 -1432h-109v551zM1165 995l158 -433v-562h-105l-208 570l-208 -571h-109v551l162 445h310zM1010 1764l-148 -188h-122l209 264h122l209 -264h-122z" />
    <glyph glyph-name="wcircumflex" unicode="&#x175;" horiz-adv-x="2094" 
d="M632 0h-105l-523 1434h310l318 -872v-562zM1384 550l321 881h310l-522 -1432h-109v551zM1165 995l158 -433v-562h-105l-208 570l-208 -571h-109v551l162 445h310zM1010 1764l-148 -188h-122l209 264h122l209 -264h-122z" />
    <glyph glyph-name="Ycircumflex" unicode="&#x176;" horiz-adv-x="1297" 
d="M-3 1435h359l212 -363l-181 -304zM403 696l432 739h359l-464 -794v-638h-326zM596 1764l-148 -188h-122l209 264h122l209 -264h-122z" />
    <glyph glyph-name="ycircumflex" unicode="&#x177;" horiz-adv-x="1297" 
d="M-3 1435h359l212 -363l-181 -304zM403 696l432 739h359l-464 -794v-638h-326zM596 1764l-148 -188h-122l209 264h122l209 -264h-122z" />
    <glyph glyph-name="Ydieresis" unicode="&#x178;" horiz-adv-x="1297" 
d="M-3 1435h359l212 -363l-181 -304zM403 696l432 739h359l-464 -794v-638h-326zM348 1578v188h215v-188h-215zM628 1578v188h215v-188h-215z" />
    <glyph glyph-name="Zacute" unicode="&#x179;" horiz-adv-x="1114" 
d="M1010 1123l-654 -816h-359l654 816h359zM1011 1173h-1009v264h1009v-264zM1008 1h-1009v264h1009v-264zM553 1577h-102l87 264h221z" />
    <glyph glyph-name="zacute" unicode="&#x17a;" horiz-adv-x="1114" 
d="M1010 1123l-654 -816h-359l654 816h359zM1011 1173h-1009v264h1009v-264zM1008 1h-1009v264h1009v-264zM553 1577h-102l87 264h221z" />
    <glyph glyph-name="Zdotaccent" unicode="&#x17b;" horiz-adv-x="1114" 
d="M1010 1123l-654 -816h-359l654 816h359zM1011 1173h-1009v264h1009v-264zM1008 1h-1009v264h1009v-264zM397 1578v188h215v-188h-215z" />
    <glyph glyph-name="zdotaccent" unicode="&#x17c;" horiz-adv-x="1114" 
d="M1010 1123l-654 -816h-359l654 816h359zM1011 1173h-1009v264h1009v-264zM1008 1h-1009v264h1009v-264zM397 1578v188h215v-188h-215z" />
    <glyph glyph-name="Zcaron" unicode="&#x17d;" horiz-adv-x="1114" 
d="M1010 1123l-654 -816h-359l654 816h359zM1011 1173h-1009v264h1009v-264zM1008 1h-1009v264h1009v-264zM652 1840h122l-209 -264h-122l-209 264h122l148 -188z" />
    <glyph glyph-name="zcaron" unicode="&#x17e;" horiz-adv-x="1114" 
d="M1010 1123l-654 -816h-359l654 816h359zM1011 1173h-1009v264h1009v-264zM1008 1h-1009v264h1009v-264zM652 1840h122l-209 -264h-122l-209 264h122l148 -188z" />
    <glyph glyph-name="uni01CD" unicode="&#x1cd;" horiz-adv-x="1359" 
d="M788 1434l507 -1434h-370l-96 305h-397l77 265h244v5l-148 528h-5l-310 -1103h-290v208l417 1226h371zM749 1840h122l-209 -264h-122l-209 264h122l148 -188z" />
    <glyph glyph-name="uni01CE" unicode="&#x1ce;" horiz-adv-x="1359" 
d="M788 1434l507 -1434h-370l-96 305h-397l77 265h244v5l-148 528h-5l-310 -1103h-290v208l417 1226h371zM749 1840h122l-209 -264h-122l-209 264h122l148 -188z" />
    <glyph glyph-name="uni01CF" unicode="&#x1cf;" horiz-adv-x="427" 
d="M326 0h-326v1437h326v-1437zM311 1840h122l-209 -264h-122l-209 264h122l148 -188z" />
    <glyph glyph-name="uni01D0" unicode="&#x1d0;" horiz-adv-x="427" 
d="M326 0h-326v1437h326v-1437zM311 1840h122l-209 -264h-122l-209 264h122l148 -188z" />
    <glyph glyph-name="uni01D1" unicode="&#x1d1;" horiz-adv-x="1471" 
d="M656 1173c-83.333 -10 -155.666 -54.002 -216.999 -132.002c-70 -89.333 -105 -197.333 -105 -324c0 -126 35 -233.667 105 -323c61.333 -78.667 133.666 -123 216.999 -133v-260c-176.667 6.66699 -328.334 76.667 -455.001 210c-134 140 -201 309.333 -201 508
s67 368.334 201 509.001c126.667 132.667 278.334 202.334 455.001 209.001v-264zM708 258.998c92.667 4.66699 172 49.667 238 135c70 89.333 105 197 105 323c0 126.667 -35 234.667 -105 324c-66 84.667 -145.333 129.334 -238 134.001v263
c179.333 -6 333.333 -76 462 -210c134 -140.667 201 -310.334 201 -509.001s-67 -368 -201 -508c-128.667 -134.667 -282.667 -205 -462 -211v259zM834 1840h122l-209 -264h-122l-209 264h122l148 -188z" />
    <glyph glyph-name="uni01D2" unicode="&#x1d2;" horiz-adv-x="1471" 
d="M656 1173c-83.333 -10 -155.666 -54.002 -216.999 -132.002c-70 -89.333 -105 -197.333 -105 -324c0 -126 35 -233.667 105 -323c61.333 -78.667 133.666 -123 216.999 -133v-260c-176.667 6.66699 -328.334 76.667 -455.001 210c-134 140 -201 309.333 -201 508
s67 368.334 201 509.001c126.667 132.667 278.334 202.334 455.001 209.001v-264zM708 258.998c92.667 4.66699 172 49.667 238 135c70 89.333 105 197 105 323c0 126.667 -35 234.667 -105 324c-66 84.667 -145.333 129.334 -238 134.001v263
c179.333 -6 333.333 -76 462 -210c134 -140.667 201 -310.334 201 -509.001s-67 -368 -201 -508c-128.667 -134.667 -282.667 -205 -462 -211v259zM834 1840h122l-209 -264h-122l-209 264h122l148 -188z" />
    <glyph glyph-name="uni01D3" unicode="&#x1d3;" 
d="M1065 1437l1 -988c-6 -247.333 -107 -392 -303 -434c-45.333 -14 -110 -20 -194 -18v318c112 14 169 69.667 171 167v955h325zM325 1437v-955c2 -97.333 59 -153 171 -167v-318c-84 -2 -148.667 4 -194 18c-189.333 42 -290.333 186.667 -303 434l1 988h325zM681 1840
h122l-209 -264h-122l-209 264h122l148 -188z" />
    <glyph glyph-name="uni01D4" unicode="&#x1d4;" 
d="M1065 1437l1 -988c-6 -247.333 -107 -392 -303 -434c-45.333 -14 -110 -20 -194 -18v318c112 14 169 69.667 171 167v955h325zM325 1437v-955c2 -97.333 59 -153 171 -167v-318c-84 -2 -148.667 4 -194 18c-189.333 42 -290.333 186.667 -303 434l1 988h325zM681 1840
h122l-209 -264h-122l-209 264h122l148 -188z" />
    <glyph glyph-name="Gcaron" unicode="&#x1e6;" horiz-adv-x="1462" 
d="M656 1173c-83.333 -10 -155.666 -54.002 -216.999 -132.002c-70 -89.333 -105 -197.333 -105 -324c0 -126 35 -233.667 105 -323c61.333 -78.667 133.666 -123 216.999 -133v-260c-176.667 6.66699 -328.334 76.667 -455.001 210c-134 140 -201 309.333 -201 508
s67 368.334 201 509.001c126.667 132.667 278.334 202.334 455.001 209.001v-264zM946 1041c-66 84.667 -145.332 129.334 -237.999 134.001v263c179.333 -6 333.333 -76 462 -210c65.333 -68.667 114.666 -144.334 147.999 -227.001l-284 -140
c-16.667 66.667 -46 126.667 -88 180zM1371 701.998c-4 -191.333 -70.999 -355 -200.999 -491c-128.667 -134.667 -282.667 -205 -462 -211v259c92.667 4.66699 172 49.667 238 135c11.333 14 21.666 28.667 30.999 44h-271v264h665zM834.002 1840h122l-209 -264h-122
l-209 264h122l148 -188z" />
    <glyph glyph-name="gcaron" unicode="&#x1e7;" horiz-adv-x="1462" 
d="M656 1173c-83.333 -10 -155.666 -54.002 -216.999 -132.002c-70 -89.333 -105 -197.333 -105 -324c0 -126 35 -233.667 105 -323c61.333 -78.667 133.666 -123 216.999 -133v-260c-176.667 6.66699 -328.334 76.667 -455.001 210c-134 140 -201 309.333 -201 508
s67 368.334 201 509.001c126.667 132.667 278.334 202.334 455.001 209.001v-264zM946 1041c-66 84.667 -145.332 129.334 -237.999 134.001v263c179.333 -6 333.333 -76 462 -210c65.333 -68.667 114.666 -144.334 147.999 -227.001l-284 -140
c-16.667 66.667 -46 126.667 -88 180zM1371 701.998c-4 -191.333 -70.999 -355 -200.999 -491c-128.667 -134.667 -282.667 -205 -462 -211v259c92.667 4.66699 172 49.667 238 135c11.333 14 21.666 28.667 30.999 44h-271v264h665zM834.002 1840h122l-209 -264h-122
l-209 264h122l148 -188z" />
    <glyph glyph-name="uni01E8" unicode="&#x1e8;" horiz-adv-x="1380" 
d="M330 1434v-1434h-331v1434h331zM828 1434h417v-5l-651 -646l681 -778v-5h-391l-509 595v356zM785 1840h122l-209 -264h-122l-209 264h122l148 -188z" />
    <glyph glyph-name="uni01E9" unicode="&#x1e9;" horiz-adv-x="1380" 
d="M330 1434v-1434h-331v1434h331zM828 1434h417v-5l-651 -646l681 -778v-5h-391l-509 595v356zM785 1840h122l-209 -264h-122l-209 264h122l148 -188z" />
    <glyph glyph-name="uni01EA" unicode="&#x1ea;" horiz-adv-x="1471" 
d="M656 1173c-83.333 -10 -155.666 -54.002 -216.999 -132.002c-70 -89.333 -105 -197.333 -105 -324c0 -126 35 -233.667 105 -323c61.333 -78.667 133.666 -123 216.999 -133v-260c-176.667 6.66699 -328.334 76.667 -455.001 210c-134 140 -201 309.333 -201 508
s67 368.334 201 509.001c126.667 132.667 278.334 202.334 455.001 209.001v-264zM708 258.998c92.667 4.66699 172 49.667 238 135c70 89.333 105 197 105 323c0 126.667 -35 234.667 -105 324c-66 84.667 -145.333 129.334 -238 134.001v263
c179.333 -6 333.333 -76 462 -210c134 -140.667 201 -310.334 201 -509.001s-67 -368 -201 -508c-128.667 -134.667 -282.667 -205 -462 -211v259zM844 6.99805c-16 -4.66699 -30.333 -13.3311 -43 -25.998c-0.666992 -0.666992 -4.33398 -5 -11.001 -13
c-12.667 -17.333 -19 -37 -19 -59c0 -28 10 -51.667 30 -71c10.667 -10.667 22.334 -18.334 35.001 -23.001l18 -5c5.33301 -0.666992 24.333 -1 57 -1v-63c-34 0 -54.667 0.333008 -62 1l-26 6c-24.667 7.33301 -47 21 -67 41c-17.333 17.333 -30 36.666 -38 57.999l-7 40
v36l1 20c6.66699 28.667 21.334 54.334 44.001 77.001c16 15.333 33.333 27 52 35l8 3c9.33301 3.33301 18.666 5.66602 27.999 6.99902v-63z" />
    <glyph glyph-name="uni01EB" unicode="&#x1eb;" horiz-adv-x="1471" 
d="M656 1173c-83.333 -10 -155.666 -54.002 -216.999 -132.002c-70 -89.333 -105 -197.333 -105 -324c0 -126 35 -233.667 105 -323c61.333 -78.667 133.666 -123 216.999 -133v-260c-176.667 6.66699 -328.334 76.667 -455.001 210c-134 140 -201 309.333 -201 508
s67 368.334 201 509.001c126.667 132.667 278.334 202.334 455.001 209.001v-264zM708 258.998c92.667 4.66699 172 49.667 238 135c70 89.333 105 197 105 323c0 126.667 -35 234.667 -105 324c-66 84.667 -145.333 129.334 -238 134.001v263
c179.333 -6 333.333 -76 462 -210c134 -140.667 201 -310.334 201 -509.001s-67 -368 -201 -508c-128.667 -134.667 -282.667 -205 -462 -211v259zM844 6.99805c-16 -4.66699 -30.333 -13.3311 -43 -25.998c-0.666992 -0.666992 -4.33398 -5 -11.001 -13
c-12.667 -17.333 -19 -37 -19 -59c0 -28 10 -51.667 30 -71c10.667 -10.667 22.334 -18.334 35.001 -23.001l18 -5c5.33301 -0.666992 24.333 -1 57 -1v-63c-34 0 -54.667 0.333008 -62 1l-26 6c-24.667 7.33301 -47 21 -67 41c-17.333 17.333 -30 36.666 -38 57.999l-7 40
v36l1 20c6.66699 28.667 21.334 54.334 44.001 77.001c16 15.333 33.333 27 52 35l8 3c9.33301 3.33301 18.666 5.66602 27.999 6.99902v-63z" />
    <glyph glyph-name="uni01F4" unicode="&#x1f4;" horiz-adv-x="1462" 
d="M656 1173c-83.333 -10 -155.666 -54.002 -216.999 -132.002c-70 -89.333 -105 -197.333 -105 -324c0 -126 35 -233.667 105 -323c61.333 -78.667 133.666 -123 216.999 -133v-260c-176.667 6.66699 -328.334 76.667 -455.001 210c-134 140 -201 309.333 -201 508
s67 368.334 201 509.001c126.667 132.667 278.334 202.334 455.001 209.001v-264zM946 1041c-66 84.667 -145.332 129.334 -237.999 134.001v263c179.333 -6 333.333 -76 462 -210c65.333 -68.667 114.666 -144.334 147.999 -227.001l-284 -140
c-16.667 66.667 -46 126.667 -88 180zM1371 701.998c-4 -191.333 -70.999 -355 -200.999 -491c-128.667 -134.667 -282.667 -205 -462 -211v259c92.667 4.66699 172 49.667 238 135c11.333 14 21.666 28.667 30.999 44h-271v264h665zM735.002 1577h-102l87 264h221z" />
    <glyph glyph-name="uni01F5" unicode="&#x1f5;" horiz-adv-x="1462" 
d="M656 1173c-83.333 -10 -155.666 -54.002 -216.999 -132.002c-70 -89.333 -105 -197.333 -105 -324c0 -126 35 -233.667 105 -323c61.333 -78.667 133.666 -123 216.999 -133v-260c-176.667 6.66699 -328.334 76.667 -455.001 210c-134 140 -201 309.333 -201 508
s67 368.334 201 509.001c126.667 132.667 278.334 202.334 455.001 209.001v-264zM946 1041c-66 84.667 -145.332 129.334 -237.999 134.001v263c179.333 -6 333.333 -76 462 -210c65.333 -68.667 114.666 -144.334 147.999 -227.001l-284 -140
c-16.667 66.667 -46 126.667 -88 180zM1371 701.998c-4 -191.333 -70.999 -355 -200.999 -491c-128.667 -134.667 -282.667 -205 -462 -211v259c92.667 4.66699 172 49.667 238 135c11.333 14 21.666 28.667 30.999 44h-271v264h665zM735.002 1577h-102l87 264h221z" />
    <glyph glyph-name="uni01F8" unicode="&#x1f8;" horiz-adv-x="1273" 
d="M326 0h-326v1348l326 -544v-804zM856 1l-852 1432h310l853 -1433zM843 1434h326v-1348l-326 544v804zM329 1831h221l87 -264h-102z" />
    <glyph glyph-name="uni01F9" unicode="&#x1f9;" horiz-adv-x="1273" 
d="M326 0h-326v1348l326 -544v-804zM856 1l-852 1432h310l853 -1433zM843 1434h326v-1348l-326 544v804zM329 1831h221l87 -264h-102z" />
    <glyph glyph-name="uni0226" unicode="&#x226;" horiz-adv-x="1359" 
d="M788 1434l507 -1434h-370l-96 305h-397l77 265h244v5l-148 528h-5l-310 -1103h-290v208l417 1226h371zM500 1578v188h215v-188h-215z" />
    <glyph glyph-name="uni0227" unicode="&#x227;" horiz-adv-x="1359" 
d="M788 1434l507 -1434h-370l-96 305h-397l77 265h244v5l-148 528h-5l-310 -1103h-290v208l417 1226h371zM500 1578v188h215v-188h-215z" />
    <glyph glyph-name="uni022E" unicode="&#x22e;" horiz-adv-x="1471" 
d="M656 1173c-83.333 -10 -155.666 -54.002 -216.999 -132.002c-70 -89.333 -105 -197.333 -105 -324c0 -126 35 -233.667 105 -323c61.333 -78.667 133.666 -123 216.999 -133v-260c-176.667 6.66699 -328.334 76.667 -455.001 210c-134 140 -201 309.333 -201 508
s67 368.334 201 509.001c126.667 132.667 278.334 202.334 455.001 209.001v-264zM708 258.998c92.667 4.66699 172 49.667 238 135c70 89.333 105 197 105 323c0 126.667 -35 234.667 -105 324c-66 84.667 -145.333 129.334 -238 134.001v263
c179.333 -6 333.333 -76 462 -210c134 -140.667 201 -310.334 201 -509.001s-67 -368 -201 -508c-128.667 -134.667 -282.667 -205 -462 -211v259zM578 1578v188h215v-188h-215z" />
    <glyph glyph-name="uni022F" unicode="&#x22f;" horiz-adv-x="1471" 
d="M656 1173c-83.333 -10 -155.666 -54.002 -216.999 -132.002c-70 -89.333 -105 -197.333 -105 -324c0 -126 35 -233.667 105 -323c61.333 -78.667 133.666 -123 216.999 -133v-260c-176.667 6.66699 -328.334 76.667 -455.001 210c-134 140 -201 309.333 -201 508
s67 368.334 201 509.001c126.667 132.667 278.334 202.334 455.001 209.001v-264zM708 258.998c92.667 4.66699 172 49.667 238 135c70 89.333 105 197 105 323c0 126.667 -35 234.667 -105 324c-66 84.667 -145.333 129.334 -238 134.001v263
c179.333 -6 333.333 -76 462 -210c134 -140.667 201 -310.334 201 -509.001s-67 -368 -201 -508c-128.667 -134.667 -282.667 -205 -462 -211v259zM578 1578v188h215v-188h-215z" />
    <glyph glyph-name="circumflex" unicode="&#x2c6;" horiz-adv-x="575" 
d="M269 1622l-148 -188h-122l209 264h122l209 -264h-122z" />
    <glyph glyph-name="caron" unicode="&#x2c7;" horiz-adv-x="575" 
d="M417 1698h122l-209 -264h-122l-209 264h122l148 -188z" />
    <glyph glyph-name="breve" unicode="&#x2d8;" horiz-adv-x="375" 
d="M60 1599c0 -28 9.99805 -51.666 29.998 -70.999c10.667 -10.667 22.334 -18.334 35.001 -23.001l18 -5c5.33301 -0.666992 11 -1 17 -1c28 0 51.833 9.66699 71.5 29s29.5 43 29.5 71h62c0 -23.333 -4.33301 -44.666 -13 -63.999l-3 -8
c-6.66699 -13.333 -15.667 -26 -27 -38l-6 -7c-18.667 -18 -39.334 -30.667 -62.001 -38l-30 -7c-7.33301 -0.666992 -14.666 -1 -21.999 -1s-14.666 0.333008 -21.999 1l-26 6c-24.667 7.33301 -47 21 -67 41c-17.333 17.333 -30 36.666 -38 57.999l-7 40v17h60z" />
    <glyph glyph-name="dotaccent" unicode="&#x2d9;" horiz-adv-x="282" 
d="M0 1436v188h215v-188h-215z" />
    <glyph glyph-name="ring" unicode="&#x2da;" horiz-adv-x="370" 
d="M134 1505l-0.000976562 -64.9971l-22 3c-24.667 7.33301 -47 21 -67 41c-17.333 17.333 -30 36.666 -38 57.999l-7 40v36l1 20c6.66699 28.667 21.334 54.334 44.001 77.001c16 15.333 33.333 27 52 35h5l3 3c9.33301 3.33301 19 5.66602 29 6.99902v-63
c-16.667 -4.66699 -31.334 -13.334 -44.001 -26.001l-11 -13c-12.667 -17.333 -19 -37 -19 -59c0 -28 10 -51.667 30 -71c10.667 -10.667 22.334 -18.334 35.001 -23.001h9zM189.999 1696l0.00195312 64c15.333 -2.66699 29.666 -7.33398 42.999 -14.001l7 -4
c12.667 -7.33301 24.667 -16.333 36 -27c16 -16.667 28 -34.667 36 -54l4 -11c4.66699 -16 7 -33 7 -51c0 -23.333 -4.33301 -44.666 -13 -63.999l-3 -8c-6.66699 -13.333 -15.667 -26 -27 -38l-6 -7c-18.667 -18 -39.334 -30.667 -62.001 -38l-22 -4v63
c15.333 4.66699 29.333 13 42 25c19.333 19.333 29 43 29 71s-9.66699 52 -29 72c-12.667 12 -26.667 20.333 -42 25z" />
    <glyph glyph-name="ogonek" unicode="&#x2db;" horiz-adv-x="261" 
d="M137 2c-16 -4.66699 -30.333 -13.3311 -43 -25.998c-0.666992 -0.666992 -4.33398 -5 -11.001 -13c-12.667 -17.333 -19 -37 -19 -59c0 -28 10 -51.667 30 -71c10.667 -10.667 22.334 -18.334 35.001 -23.001l18 -5c5.33301 -0.666992 24.333 -1 57 -1v-63
c-34 0 -54.667 0.333008 -62 1l-26 6c-24.667 7.33301 -47 21 -67 41c-17.333 17.333 -30 36.666 -38 57.999l-7 40v36l1 20c6.66699 28.667 21.334 54.334 44.001 77.001c16 15.333 33.333 27 52 35l8 3c9.33301 3.33301 18.666 5.66602 27.999 6.99902v-63z" />
    <glyph glyph-name="tilde" unicode="&#x2dc;" horiz-adv-x="555" 
d="M235 1474c-2 2.66699 -4.33008 5.33398 -6.99707 8.00098l-2 2l-11 9c-17.333 12.667 -37 19 -59 19c-28 0 -51.667 -10 -71 -30c-10.667 -10.667 -18.334 -22.334 -23.001 -35.001v-9h-64l2 22c7.33301 24.667 21 47 41 67c17.333 17.333 36.666 30 57.999 38l40 7h36
l20 -1c28.667 -6.66699 54.334 -21.334 77.001 -44.001l7 -7c16.667 -13.333 36.667 -20 60 -20c28 0 52 9.66699 72 29c12 12.667 20.333 26.667 25 42h64c-2.66699 -15.333 -7.33398 -29.666 -14.001 -42.999l-4 -7c-7.33301 -12.667 -16.333 -24.667 -27 -36
c-16.667 -16 -34.667 -28 -54 -36l-11 -4c-16 -4.66699 -33 -7 -51 -7c-30 0 -54 5.33301 -72 16c-10.667 5.33301 -21.334 12 -32.001 20z" />
    <glyph glyph-name="hungarumlaut" unicode="&#x2dd;" horiz-adv-x="649" 
d="M112 1435h-102l87 264h221zM392 1435h-102l87 264h221z" />
    <glyph glyph-name="tonos" unicode="&#x384;" horiz-adv-x="372" 
d="M112 1435h-102l87 264h221z" />
    <glyph glyph-name="Alphatonos" unicode="&#x386;" horiz-adv-x="1359" 
d="M112 1435h-102l87 264h221zM788 1434l507 -1434h-370l-96 305h-397l77 265h244v5l-148 528h-5l-310 -1103h-290v208l417 1226h371z" />
    <glyph glyph-name="Epsilontonos" unicode="&#x388;" horiz-adv-x="1401" 
d="M112 1435h-102l87 264h221zM619 0h-326v1437h326v-1437zM1347 1434v-264h-672v264h672zM1294 891v-264h-617v264h617zM1350 266v-264h-672v264h672z" />
    <glyph glyph-name="Etatonos" unicode="&#x389;" horiz-adv-x="1653" 
d="M112 1435h-102l87 264h221zM619 0h-326v1437h326v-1437zM1580 0h-326v1437h326v-1437zM1194 888v-264h-520v264h520z" />
    <glyph glyph-name="Iotatonos" unicode="&#x38a;" horiz-adv-x="692" 
d="M112 1435h-102l87 264h221zM619 0h-326v1437h326v-1437z" />
    <glyph glyph-name="Omicrontonos" unicode="&#x38c;" horiz-adv-x="1418" 
d="M111 1435h-102l87 264h221zM660 1173c-83.333 -10 -155.666 -54.002 -216.999 -132.002c-70 -89.333 -105 -197.333 -105 -324c0 -126 35 -233.667 105 -323c61.333 -78.667 133.666 -123 216.999 -133v-260c-176.667 6.66699 -328.334 76.667 -455.001 210
c-134 140 -201 309.333 -201 508s67 368.334 201 509.001c126.667 132.667 278.334 202.334 455.001 209.001v-264zM712 258.998c92.667 4.66699 172 49.667 238 135c70 89.333 105 197 105 323c0 126.667 -35 234.667 -105 324c-66 84.667 -145.333 129.334 -238 134.001
v263c179.333 -6 333.333 -76 462 -210c134 -140.667 201 -310.334 201 -509.001s-67 -368 -201 -508c-128.667 -134.667 -282.667 -205 -462 -211v259z" />
    <glyph glyph-name="Upsilontonos" unicode="&#x38e;" horiz-adv-x="1535" 
d="M112 1435h-102l87 264h221zM272 1435h359l212 -363l-181 -304zM678 696l432 739h359l-464 -794v-638h-326z" />
    <glyph glyph-name="Omegatonos" unicode="&#x38f;" horiz-adv-x="1704" 
d="M114 1435h-102l87 264h221zM-3 259h621v-259h-621v259zM1027 259h621v-259h-621v259zM234 331c-71.333 114 -107.002 243.331 -107.002 387.998c0 198.667 67 368.334 201 509.001c126.667 132.667 278.334 202.334 455.001 209.001v-264
c-83.333 -10 -155.666 -54 -216.999 -132c-70 -89.333 -105 -197.333 -105 -324c0 -126 35 -233.667 105 -323c19.333 -24.667 39.333 -45.667 60 -63h-392zM1013 329.998c21.333 18 41.333 39.333 60 64c70 89.333 105 197 105 323c0 126.667 -35 234.667 -105 324
c-66 84.667 -145.333 129.334 -238 134.001v263c179.333 -6 333.333 -76 462 -210c134 -140.667 201 -310.334 201 -509.001c0 -145.333 -36 -275 -108 -389h-377z" />
    <glyph glyph-name="Alpha" unicode="&#x391;" horiz-adv-x="1359" 
d="M788 1434l507 -1434h-370l-96 305h-397l77 265h244v5l-148 528h-5l-310 -1103h-290v208l417 1226h371z" />
    <glyph glyph-name="Beta" unicode="&#x392;" horiz-adv-x="1282" 
d="M326 0h-326v1437h326v-1437zM685 1437c230.667 0 376.334 -82.001 437.001 -246.001c14 -32.667 21 -70.334 21 -113.001v-25c0 -90 -44 -172 -132 -246l-46 -26l-24 -8c26 -14 47.333 -25 64 -33c101.333 -60.667 159 -151 173 -271c3.33301 -13.333 5 -29 5 -47
c-5.33301 -85.333 -13.666 -134.666 -24.999 -147.999c-6.66699 -36 -30.334 -78.667 -71.001 -128c-48 -68 -134.667 -116 -260 -144c-33.333 -2 -82 -3 -146 -3h-300v260h300c109.333 28 165 80.667 167 158v42c5.33301 52 -18.334 94.667 -71.001 128
c-10.667 16.667 -42.667 27.334 -96 32.001h-299v271h299l50 4c60.667 26 91 73.667 91 143l-5 36l-10 25c-30 38.667 -72 60.667 -126 66h-303v273h307z" />
    <glyph glyph-name="Gamma" unicode="&#x393;" 
d="M326 3h-326v1111h326v-1111zM1068 1431v-264h-1068v264h1068z" />
    <glyph glyph-name="uni0394" unicode="&#x394;" horiz-adv-x="1223" 
d="M18 312l409 1121h105v-562l-204 -559h-310zM801 312l-208 571v551h109l409 -1122h-310zM1128 264v-264h-1128v264h1128z" />
    <glyph glyph-name="Epsilon" unicode="&#x395;" horiz-adv-x="1154" 
d="M326 0h-326v1437h326v-1437zM1054 1434v-264h-672v264h672zM1001 891v-264h-617v264h617zM1057 266v-264h-672v264h672z" />
    <glyph glyph-name="Zeta" unicode="&#x396;" horiz-adv-x="1108" 
d="M1010 1123l-654 -816h-359l654 816h359zM1011 1173h-1009v264h1009v-264zM1008 1h-1009v264h1009v-264z" />
    <glyph glyph-name="Eta" unicode="&#x397;" horiz-adv-x="1392" 
d="M326 0h-326v1437h326v-1437zM1287 0h-326v1437h326v-1437zM901 888v-264h-520v264h520z" />
    <glyph glyph-name="Theta" unicode="&#x398;" horiz-adv-x="1437" 
d="M348 587c16 -72 46.333 -136.335 91 -193.002c61.333 -78.667 133.666 -123 216.999 -133v-260c-176.667 6.66699 -328.334 76.667 -455.001 210c-134 140 -201 309.333 -201 508s67 368.334 201 509.001c126.667 132.667 278.334 202.334 455.001 209.001v-264
c-83.333 -10 -155.666 -54 -216.999 -132c-44 -56 -74 -119.333 -90 -190h687c-16 70.667 -46 134 -90 190c-66 84.667 -145.333 129.334 -238 134.001v263c179.333 -6 333.333 -76 462 -210c134 -140.667 201 -310.334 201 -509.001s-67 -368 -201 -508
c-128.667 -134.667 -282.667 -205 -462 -211v259c92.667 4.66699 172 49.667 238 135c44.667 56.667 75 121 91 193h-689z" />
    <glyph glyph-name="Iota" unicode="&#x399;" horiz-adv-x="427" 
d="M326 0h-326v1437h326v-1437z" />
    <glyph glyph-name="Kappa" unicode="&#x39a;" horiz-adv-x="1299" 
d="M330 1434l-3 -1434h-328v1434h331zM828 1434h417v-5l-651 -646l681 -778v-5h-391l-509 595v356z" />
    <glyph glyph-name="Lambda" unicode="&#x39b;" horiz-adv-x="1389" 
d="M632 871l-318 -872h-310l523 1434h105v-562zM693 1434h109l522 -1432h-310l-321 881v551z" />
    <glyph glyph-name="Mu" unicode="&#x39c;" horiz-adv-x="1774" 
d="M326 0h-326v1348l326 -544v-804zM1334 804l326 544v-1348h-326v804zM874 621l484 813h310l-794 -1334v521zM798 99l-794 1334h310l484 -813v-521z" />
    <glyph glyph-name="Nu" unicode="&#x39d;" horiz-adv-x="1273" 
d="M326 0h-326v1348l326 -544v-804zM856 1l-852 1432h310l853 -1433zM843 1434h326v-1348l-326 544v804z" />
    <glyph glyph-name="Xi" unicode="&#x39e;" horiz-adv-x="888" 
d="M2 263h799v-264h-799v264zM94 853h616v-265h-616v265zM2 1437h799v-264h-799v264z" />
    <glyph glyph-name="Omicron" unicode="&#x39f;" horiz-adv-x="1471" 
d="M656 1173c-83.333 -10 -155.666 -54.002 -216.999 -132.002c-70 -89.333 -105 -197.333 -105 -324c0 -126 35 -233.667 105 -323c61.333 -78.667 133.666 -123 216.999 -133v-260c-176.667 6.66699 -328.334 76.667 -455.001 210c-134 140 -201 309.333 -201 508
s67 368.334 201 509.001c126.667 132.667 278.334 202.334 455.001 209.001v-264zM708 258.998c92.667 4.66699 172 49.667 238 135c70 89.333 105 197 105 323c0 126.667 -35 234.667 -105 324c-66 84.667 -145.333 129.334 -238 134.001v263
c179.333 -6 333.333 -76 462 -210c134 -140.667 201 -310.334 201 -509.001s-67 -368 -201 -508c-128.667 -134.667 -282.667 -205 -462 -211v259z" />
    <glyph glyph-name="Pi" unicode="&#x3a0;" 
d="M326 3h-326v1111h326v-1111zM1068 1431v-264h-1068v264h1068zM1068 3h-326v1111h326v-1111z" />
    <glyph glyph-name="Rho" unicode="&#x3a1;" horiz-adv-x="1218" 
d="M608 1441c192.667 0 332.333 -54.335 419 -163.002c61.333 -93.333 92 -190.666 92 -291.999v-20c0 -116.667 -32.333 -219 -97 -307c-86.667 -117.333 -258.667 -171.666 -516 -162.999h-128v270h261c102 37.333 153 107.333 153 210v26c-22.667 112 -84 170 -184 174
h-230v265h230zM325.999 -0.00195312h-326v1437h326v-1437z" />
    <glyph glyph-name="Sigma" unicode="&#x3a3;" horiz-adv-x="896" 
d="M2 263h799v-264h-799v264zM801 1173h-799v264h799v-264zM802 569l-800 -291v310l267 97h533v-116zM801 746h-520l-279 102v310l799 -292v-120z" />
    <glyph glyph-name="Tau" unicode="&#x3a4;" 
d="M702 3h-326v1111h326v-1111zM1065 1431v-264h-1068v264h1068z" />
    <glyph glyph-name="Upsilon" unicode="&#x3a5;" horiz-adv-x="1294" 
d="M-3 1435h359l212 -363l-181 -304zM403 696l432 739h359l-464 -794v-638h-326z" />
    <glyph glyph-name="Phi" unicode="&#x3a6;" horiz-adv-x="1819" 
d="M1031 1654v-1900h-326v1900h326zM656 1173c-83.333 -10 -155.666 -54.002 -216.999 -132.002c-70 -89.333 -105 -197.333 -105 -324c0 -126 35 -233.667 105 -323c61.333 -78.667 133.666 -123 216.999 -133v-260c-176.667 6.66699 -328.334 76.667 -455.001 210
c-134 140 -201 309.333 -201 508s67 368.334 201 509.001c126.667 132.667 278.334 202.334 455.001 209.001v-264zM1078 258.998c92.667 4.66699 172 49.667 238 135c70 89.333 105 197 105 323c0 126.667 -35 234.667 -105 324c-66 84.667 -145.333 129.334 -238 134.001
v263c179.333 -6 333.333 -76 462 -210c134 -140.667 201 -310.334 201 -509.001s-67 -368 -201 -508c-128.667 -134.667 -282.667 -205 -462 -211v259z" />
    <glyph glyph-name="Chi" unicode="&#x3a7;" horiz-adv-x="1304" 
d="M1194 1435l-841 -1438h-359l841 1438h359zM1197 -3h-359l-215 365l177 313zM-3 1435h359l212 -363l-181 -304z" />
    <glyph glyph-name="Psi" unicode="&#x3a8;" horiz-adv-x="1565" 
d="M327 1258c2 -67.333 31.332 -116.334 87.999 -147.001c16.667 -10 47.334 -16.667 92.001 -20v-318c-90 0 -157.667 6 -203 18c-196 60.667 -297 205.334 -303 434.001v211h326v-178zM905.999 -0.000976562h-326v1437h326v-1437zM1151 1436l325.999 0.000976562v-211
c-6 -228.667 -107 -373.334 -303 -434.001c-45.333 -12 -113 -18 -203 -18v318c44.667 3.33301 75.334 10 92.001 20c56.667 30.667 86 79.667 88 147v178z" />
    <glyph glyph-name="uni03A9" unicode="&#x3a9;" horiz-adv-x="1749" 
d="M0 259h621v-259h-621v259zM1030 259h621v-259h-621v259zM237 331c-71.333 114 -107.002 243.331 -107.002 387.998c0 198.667 67 368.334 201 509.001c126.667 132.667 278.334 202.334 455.001 209.001v-264c-83.333 -10 -155.666 -54 -216.999 -132
c-70 -89.333 -105 -197.333 -105 -324c0 -126 35 -233.667 105 -323c19.333 -24.667 39.333 -45.667 60 -63h-392zM1016 329.998c21.333 18 41.333 39.333 60 64c70 89.333 105 197 105 323c0 126.667 -35 234.667 -105 324c-66 84.667 -145.333 129.334 -238 134.001v263
c179.333 -6 333.333 -76 462 -210c134 -140.667 201 -310.334 201 -509.001c0 -145.333 -36 -275 -108 -389h-377z" />
    <glyph glyph-name="Iotadieresis" unicode="&#x3aa;" horiz-adv-x="427" 
d="M327 0h-326v1437h326v-1437zM-84 1578v188h215v-188h-215zM196 1578v188h215v-188h-215z" />
    <glyph glyph-name="Upsilondieresis" unicode="&#x3ab;" horiz-adv-x="1294" 
d="M-3 1435h359l212 -363l-181 -304zM403 696l432 739h359l-464 -794v-638h-326zM348 1588v188h215v-188h-215zM628 1588v188h215v-188h-215z" />
    <glyph glyph-name="alphatonos" unicode="&#x3ac;" horiz-adv-x="1359" 
d="M112 1435h-102l87 264h221zM788 1434l507 -1434h-370l-96 305h-397l77 265h244v5l-148 528h-5l-310 -1103h-290v208l417 1226h371z" />
    <glyph glyph-name="epsilontonos" unicode="&#x3ad;" horiz-adv-x="1401" 
d="M112 1435h-102l87 264h221zM619 0h-326v1437h326v-1437zM1347 1434v-264h-672v264h672zM1294 891v-264h-617v264h617zM1350 266v-264h-672v264h672z" />
    <glyph glyph-name="etatonos" unicode="&#x3ae;" horiz-adv-x="1653" 
d="M112 1435h-102l87 264h221zM619 0h-326v1437h326v-1437zM1580 0h-326v1437h326v-1437zM1194 888v-264h-520v264h520z" />
    <glyph glyph-name="iotatonos" unicode="&#x3af;" horiz-adv-x="692" 
d="M112 1435h-102l87 264h221zM619 0h-326v1437h326v-1437z" />
    <glyph glyph-name="alpha" unicode="&#x3b1;" horiz-adv-x="1359" 
d="M788 1434l507 -1434h-370l-96 305h-397l77 265h244v5l-148 528h-5l-310 -1103h-290v208l417 1226h371z" />
    <glyph glyph-name="beta" unicode="&#x3b2;" horiz-adv-x="1282" 
d="M326 0h-326v1437h326v-1437zM685 1437c230.667 0 376.334 -82.001 437.001 -246.001c14 -32.667 21 -70.334 21 -113.001v-25c0 -90 -44 -172 -132 -246l-46 -26l-24 -8c26 -14 47.333 -25 64 -33c101.333 -60.667 159 -151 173 -271c3.33301 -13.333 5 -29 5 -47
c-5.33301 -85.333 -13.666 -134.666 -24.999 -147.999c-6.66699 -36 -30.334 -78.667 -71.001 -128c-48 -68 -134.667 -116 -260 -144c-33.333 -2 -82 -3 -146 -3h-300v260h300c109.333 28 165 80.667 167 158v42c5.33301 52 -18.334 94.667 -71.001 128
c-10.667 16.667 -42.667 27.334 -96 32.001h-299v271h299l50 4c60.667 26 91 73.667 91 143l-5 36l-10 25c-30 38.667 -72 60.667 -126 66h-303v273h307z" />
    <glyph glyph-name="gamma" unicode="&#x3b3;" 
d="M326 3h-326v1111h326v-1111zM1068 1431v-264h-1068v264h1068z" />
    <glyph glyph-name="delta" unicode="&#x3b4;" horiz-adv-x="1223" 
d="M18 312l409 1121h105v-562l-204 -559h-310zM801 312l-208 571v551h109l409 -1122h-310zM1128 264v-264h-1128v264h1128z" />
    <glyph glyph-name="epsilon" unicode="&#x3b5;" horiz-adv-x="1154" 
d="M326 0h-326v1437h326v-1437zM1054 1434v-264h-672v264h672zM1001 891v-264h-617v264h617zM1057 266v-264h-672v264h672z" />
    <glyph glyph-name="zeta" unicode="&#x3b6;" horiz-adv-x="1108" 
d="M1010 1123l-654 -816h-359l654 816h359zM1011 1173h-1009v264h1009v-264zM1008 1h-1009v264h1009v-264z" />
    <glyph glyph-name="eta" unicode="&#x3b7;" horiz-adv-x="1392" 
d="M326 0h-326v1437h326v-1437zM1287 0h-326v1437h326v-1437zM901 888v-264h-520v264h520z" />
    <glyph glyph-name="theta" unicode="&#x3b8;" horiz-adv-x="1437" 
d="M348 587c16 -72 46.333 -136.335 91 -193.002c61.333 -78.667 133.666 -123 216.999 -133v-260c-176.667 6.66699 -328.334 76.667 -455.001 210c-134 140 -201 309.333 -201 508s67 368.334 201 509.001c126.667 132.667 278.334 202.334 455.001 209.001v-264
c-83.333 -10 -155.666 -54 -216.999 -132c-44 -56 -74 -119.333 -90 -190h687c-16 70.667 -46 134 -90 190c-66 84.667 -145.333 129.334 -238 134.001v263c179.333 -6 333.333 -76 462 -210c134 -140.667 201 -310.334 201 -509.001s-67 -368 -201 -508
c-128.667 -134.667 -282.667 -205 -462 -211v259c92.667 4.66699 172 49.667 238 135c44.667 56.667 75 121 91 193h-689z" />
    <glyph glyph-name="iota" unicode="&#x3b9;" horiz-adv-x="427" 
d="M326 0h-326v1437h326v-1437z" />
    <glyph glyph-name="kappa" unicode="&#x3ba;" horiz-adv-x="1299" 
d="M330 1434l-3 -1434h-328v1434h331zM828 1434h417v-5l-651 -646l681 -778v-5h-391l-509 595v356z" />
    <glyph glyph-name="lambda" unicode="&#x3bb;" horiz-adv-x="1389" 
d="M632 871l-318 -872h-310l523 1434h105v-562zM693 1434h109l522 -1432h-310l-321 881v551z" />
    <glyph glyph-name="uni03BC" unicode="&#x3bc;" horiz-adv-x="1774" 
d="M326 0h-326v1348l326 -544v-804zM1334 804l326 544v-1348h-326v804zM874 621l484 813h310l-794 -1334v521zM798 99l-794 1334h310l484 -813v-521z" />
    <glyph glyph-name="nu" unicode="&#x3bd;" horiz-adv-x="1273" 
d="M326 0h-326v1348l326 -544v-804zM856 1l-852 1432h310l853 -1433zM843 1434h326v-1348l-326 544v804z" />
    <glyph glyph-name="xi" unicode="&#x3be;" horiz-adv-x="888" 
d="M2 263h799v-264h-799v264zM94 853h616v-265h-616v265zM2 1437h799v-264h-799v264z" />
    <glyph glyph-name="omicron" unicode="&#x3bf;" horiz-adv-x="1471" 
d="M656 1173c-83.333 -10 -155.666 -54.002 -216.999 -132.002c-70 -89.333 -105 -197.333 -105 -324c0 -126 35 -233.667 105 -323c61.333 -78.667 133.666 -123 216.999 -133v-260c-176.667 6.66699 -328.334 76.667 -455.001 210c-134 140 -201 309.333 -201 508
s67 368.334 201 509.001c126.667 132.667 278.334 202.334 455.001 209.001v-264zM708 258.998c92.667 4.66699 172 49.667 238 135c70 89.333 105 197 105 323c0 126.667 -35 234.667 -105 324c-66 84.667 -145.333 129.334 -238 134.001v263
c179.333 -6 333.333 -76 462 -210c134 -140.667 201 -310.334 201 -509.001s-67 -368 -201 -508c-128.667 -134.667 -282.667 -205 -462 -211v259z" />
    <glyph glyph-name="pi" unicode="&#x3c0;" 
d="M326 3h-326v1111h326v-1111zM1068 1431v-264h-1068v264h1068zM1068 3h-326v1111h326v-1111z" />
    <glyph glyph-name="rho" unicode="&#x3c1;" horiz-adv-x="1218" 
d="M608 1441c192.667 0 332.333 -54.335 419 -163.002c61.333 -93.333 92 -190.666 92 -291.999v-20c0 -116.667 -32.333 -219 -97 -307c-86.667 -117.333 -258.667 -171.666 -516 -162.999h-128v270h261c102 37.333 153 107.333 153 210v26c-22.667 112 -84 170 -184 174
h-230v265h230zM325.999 -0.00195312h-326v1437h326v-1437z" />
    <glyph glyph-name="sigma" unicode="&#x3c3;" horiz-adv-x="896" 
d="M2 263h799v-264h-799v264zM801 1173h-799v264h799v-264zM802 569l-800 -291v310l267 97h533v-116zM801 746h-520l-279 102v310l799 -292v-120z" />
    <glyph glyph-name="tau" unicode="&#x3c4;" 
d="M702 3h-326v1111h326v-1111zM1065 1431v-264h-1068v264h1068z" />
    <glyph glyph-name="upsilon" unicode="&#x3c5;" horiz-adv-x="1294" 
d="M-3 1435h359l212 -363l-181 -304zM403 696l432 739h359l-464 -794v-638h-326z" />
    <glyph glyph-name="phi" unicode="&#x3c6;" horiz-adv-x="1819" 
d="M1031 1654v-1900h-326v1900h326zM656 1173c-83.333 -10 -155.666 -54.002 -216.999 -132.002c-70 -89.333 -105 -197.333 -105 -324c0 -126 35 -233.667 105 -323c61.333 -78.667 133.666 -123 216.999 -133v-260c-176.667 6.66699 -328.334 76.667 -455.001 210
c-134 140 -201 309.333 -201 508s67 368.334 201 509.001c126.667 132.667 278.334 202.334 455.001 209.001v-264zM1078 258.998c92.667 4.66699 172 49.667 238 135c70 89.333 105 197 105 323c0 126.667 -35 234.667 -105 324c-66 84.667 -145.333 129.334 -238 134.001
v263c179.333 -6 333.333 -76 462 -210c134 -140.667 201 -310.334 201 -509.001s-67 -368 -201 -508c-128.667 -134.667 -282.667 -205 -462 -211v259z" />
    <glyph glyph-name="chi" unicode="&#x3c7;" horiz-adv-x="1304" 
d="M1194 1435l-841 -1438h-359l841 1438h359zM1197 -3h-359l-215 365l177 313zM-3 1435h359l212 -363l-181 -304z" />
    <glyph glyph-name="psi" unicode="&#x3c8;" horiz-adv-x="1565" 
d="M327 1258c2 -67.333 31.332 -116.334 87.999 -147.001c16.667 -10 47.334 -16.667 92.001 -20v-318c-90 0 -157.667 6 -203 18c-196 60.667 -297 205.334 -303 434.001v211h326v-178zM905.999 -0.000976562h-326v1437h326v-1437zM1151 1436l325.999 0.000976562v-211
c-6 -228.667 -107 -373.334 -303 -434.001c-45.333 -12 -113 -18 -203 -18v318c44.667 3.33301 75.334 10 92.001 20c56.667 30.667 86 79.667 88 147v178z" />
    <glyph glyph-name="omega" unicode="&#x3c9;" horiz-adv-x="1749" 
d="M0 259h621v-259h-621v259zM1030 259h621v-259h-621v259zM237 331c-71.333 114 -107.002 243.331 -107.002 387.998c0 198.667 67 368.334 201 509.001c126.667 132.667 278.334 202.334 455.001 209.001v-264c-83.333 -10 -155.666 -54 -216.999 -132
c-70 -89.333 -105 -197.333 -105 -324c0 -126 35 -233.667 105 -323c19.333 -24.667 39.333 -45.667 60 -63h-392zM1016 329.998c21.333 18 41.333 39.333 60 64c70 89.333 105 197 105 323c0 126.667 -35 234.667 -105 324c-66 84.667 -145.333 129.334 -238 134.001v263
c179.333 -6 333.333 -76 462 -210c134 -140.667 201 -310.334 201 -509.001c0 -145.333 -36 -275 -108 -389h-377z" />
    <glyph glyph-name="iotadieresis" unicode="&#x3ca;" horiz-adv-x="427" 
d="M327 0h-326v1437h326v-1437zM-84 1578v188h215v-188h-215zM196 1578v188h215v-188h-215z" />
    <glyph glyph-name="upsilondieresis" unicode="&#x3cb;" horiz-adv-x="1294" 
d="M-3 1435h359l212 -363l-181 -304zM403 696l432 739h359l-464 -794v-638h-326zM348 1588v188h215v-188h-215zM628 1588v188h215v-188h-215z" />
    <glyph glyph-name="omicrontonos" unicode="&#x3cc;" horiz-adv-x="1418" 
d="M111 1435h-102l87 264h221zM660 1173c-83.333 -10 -155.666 -54.002 -216.999 -132.002c-70 -89.333 -105 -197.333 -105 -324c0 -126 35 -233.667 105 -323c61.333 -78.667 133.666 -123 216.999 -133v-260c-176.667 6.66699 -328.334 76.667 -455.001 210
c-134 140 -201 309.333 -201 508s67 368.334 201 509.001c126.667 132.667 278.334 202.334 455.001 209.001v-264zM712 258.998c92.667 4.66699 172 49.667 238 135c70 89.333 105 197 105 323c0 126.667 -35 234.667 -105 324c-66 84.667 -145.333 129.334 -238 134.001
v263c179.333 -6 333.333 -76 462 -210c134 -140.667 201 -310.334 201 -509.001s-67 -368 -201 -508c-128.667 -134.667 -282.667 -205 -462 -211v259z" />
    <glyph glyph-name="upsilontonos" unicode="&#x3cd;" horiz-adv-x="1354" 
d="M112 1435h-102l87 264h221zM290 1435h359l212 -363l-181 -304zM696 696l432 739h359l-464 -794v-638h-326z" />
    <glyph glyph-name="omegatonos" unicode="&#x3ce;" horiz-adv-x="1704" 
d="M114 1435h-102l87 264h221zM-3 259h621v-259h-621v259zM1027 259h621v-259h-621v259zM234 331c-71.333 114 -107.002 243.331 -107.002 387.998c0 198.667 67 368.334 201 509.001c126.667 132.667 278.334 202.334 455.001 209.001v-264
c-83.333 -10 -155.666 -54 -216.999 -132c-70 -89.333 -105 -197.333 -105 -324c0 -126 35 -233.667 105 -323c19.333 -24.667 39.333 -45.667 60 -63h-392zM1013 329.998c21.333 18 41.333 39.333 60 64c70 89.333 105 197 105 323c0 126.667 -35 234.667 -105 324
c-66 84.667 -145.333 129.334 -238 134.001v263c179.333 -6 333.333 -76 462 -210c134 -140.667 201 -310.334 201 -509.001c0 -145.333 -36 -275 -108 -389h-377z" />
    <glyph glyph-name="afii10023" unicode="&#x401;" horiz-adv-x="1154" 
d="M326 0h-326v1437h326v-1437zM1054 1434v-264h-672v264h672zM1001 891v-264h-617v264h617zM1057 266v-264h-672v264h672zM281 1578v188h215v-188h-215zM561 1578v188h215v-188h-215z" />
    <glyph glyph-name="afii10051" unicode="&#x402;" horiz-adv-x="1649" 
d="M702 3h-326v1111h326v-1111zM1065 1431v-264h-1068v264h1068zM1399 780c84.667 -82.667 134.001 -184.002 148.001 -304.002c3.33301 -13.333 5 -29 5 -47c-5.33301 -85.333 -13.666 -134.666 -24.999 -147.999c-6.66699 -36 -30.334 -78.667 -71.001 -128
c-48 -68 -134.667 -116 -260 -144l-86 -5h-5c-6.66699 0 -24.667 0.333008 -54 1l-1 261c109.333 28 165 80.667 167 158v42c5.33301 52 -18.334 94.667 -71.001 128c-10.667 16.667 -42.667 27.334 -96 32.001l-299 -1l1 272h298c134.667 -2 251 -41 349 -117z" />
    <glyph glyph-name="afii10052" unicode="&#x403;" horiz-adv-x="1178" 
d="M326 0h-326v1111h326v-1111zM1069 1431v-264h-1068v264h1068zM584 1577h-102l87 264h221z" />
    <glyph glyph-name="afii10053" unicode="&#x404;" horiz-adv-x="1203" 
d="M649 1437l0.000976562 -264.999h-135c-102 -4 -164.333 -62 -187 -174v-517c0 -102.667 52 -175 156 -217h168l-2 -263h-88c-204.667 0 -359.334 54.333 -464.001 163c-64.667 88 -97 190.333 -97 307v511c0 101.333 30.667 198.666 92 291.999
c87.333 108.667 227 163 419 163h138zM1099 1173h-388v264h388v-264zM1099 0.000976562h-388v264h388v-264zM1004 626.001h-610v264h610v-264z" />
    <glyph glyph-name="afii10054" unicode="&#x405;" horiz-adv-x="1258" 
d="M368 325c61.333 -35.333 119.666 -56.333 174.999 -63l29 -5l-2 -257c-174 -4.66699 -307.333 31 -400 107c-103.333 66.667 -158.666 182.667 -165.999 348l301 29c5.33301 -70 26.333 -121.667 63 -155v-4zM476 612c-288 52 -432 185.667 -432 401v19
c0 224.667 145.333 357 436 397l90 2l2 -239c-65.333 -5.33301 -110.666 -13.333 -135.999 -24c-52.667 -20 -78.334 -65.333 -77.001 -136c0 -66 83.667 -114.333 251 -145c42 -7.33301 76.333 -14.333 103 -21c296.667 -49.333 445 -190.666 445 -423.999v-20
c0 -239.333 -145.333 -380.333 -436 -423l-98 -3v253c69.333 7.33301 116.666 16.666 141.999 27.999c52.667 21.333 78.334 69.666 77.001 144.999c0 70.667 -82.667 125.334 -248 164.001c-37.333 11.333 -78.333 21 -123 29zM619 1434
c143.333 0 269.668 -40.334 379.001 -121.001c64 -53.333 110.667 -152 140 -296v-14l-164 -20l-136 -9c-12.667 78.667 -35.334 130.334 -68.001 155.001c-26.667 22.667 -76.667 43.667 -150 63z" />
    <glyph glyph-name="afii10055" unicode="&#x406;" horiz-adv-x="424" 
d="M326 0h-326v1437h326v-1437z" />
    <glyph glyph-name="afii10056" unicode="&#x407;" horiz-adv-x="427" 
d="M327 0h-326v1437h326v-1437zM-84 1578v188h215v-188h-215zM196 1578v188h215v-188h-215z" />
    <glyph glyph-name="afii10057" unicode="&#x408;" horiz-adv-x="589" 
d="M485 1431l0.999023 -988c-32.667 -247.333 -133.667 -392 -303 -434c-45.333 -14 -106.666 -20 -183.999 -18v318c105.333 14 159 69.667 161 167l-2 955h327z" />
    <glyph glyph-name="afii10058" unicode="&#x409;" horiz-adv-x="2192" 
d="M485 1101l0.999023 -658c-32.667 -247.333 -133.667 -392 -303 -434c-45.333 -14 -106.666 -20 -183.999 -18v318c105.333 14 159 69.667 161 167l-2 625h327zM1221 0h-326v1120h326v-1120zM1224 1437v-264h-1068v264h1068zM1934 774
c84.667 -82.667 134.001 -184.002 148.001 -304.002c3.33301 -13.333 5 -29 5 -47c-5.33301 -85.333 -13.666 -134.666 -24.999 -147.999c-6.66699 -36 -30.334 -78.667 -71.001 -128c-48 -68 -134.667 -116 -260 -144l-145 -4l-297 1l-2 259l298 1
c109.333 28 165 80.667 167 158v42c5.33301 52 -18.334 94.667 -71.001 128c-10.667 16.667 -42.667 27.334 -96 32.001l-296 -1l-2 272h298c134.667 -2 251 -41 349 -117z" />
    <glyph glyph-name="afii10059" unicode="&#x40a;" horiz-adv-x="2192" 
d="M326 0h-326v1437h326v-1437zM1218 0h-326v1437h326v-1437zM827 888v-264h-446v264h446zM1934 780c84.667 -82.667 134.002 -184.002 148.002 -304.002c3.33301 -13.333 5 -29 5 -47c-5.33301 -85.333 -13.666 -134.666 -25 -147.999
c-6.66699 -36 -30.334 -78.667 -71.001 -128c-48 -68 -134.667 -116 -260 -144l-86 -5h-5c-6.66699 0 -24.667 0.333008 -54 1l-297 1l-2 259l298 1c109.333 28 165 80.667 167 158v42c5.33301 52 -18.334 94.667 -71.001 128c-10.667 16.667 -42.667 27.334 -96 32.001
l-296 -1l-2 272h298c134.667 -2 251 -41 349 -117z" />
    <glyph glyph-name="afii10060" unicode="&#x40b;" horiz-adv-x="1340" 
d="M702 0h-326v1111h326v-1111zM1065 1431v-264h-1068v264h1068zM904 0l1.00098 353c-2 97.333 -55.667 153 -161 167v318c77.333 2 138.666 -4 183.999 -18c169.333 -42 270.333 -186.667 303 -434v-386h-327z" />
    <glyph glyph-name="afii10061" unicode="&#x40c;" horiz-adv-x="1365" 
d="M330 1434v-1434h-331v1434h331zM594 783l680.999 -777.999v-5h-391l-509 595v356c84 65.333 142.333 144.666 175 237.999c12.667 28 28 55.667 46 83l-5 5v5l5 -5c86.667 105.333 226.334 158 419.001 158h230v-265h-230c-92 -4 -150.333 -52 -175 -144
c-59.333 -105.333 -141.333 -186.333 -246 -243zM685.999 1577h-102l87 264h221z" />
    <glyph glyph-name="afii10062" unicode="&#x40e;" horiz-adv-x="1291" 
d="M-3 1435h359l212 -363l-181 -304zM403 696l432 739h359l-464 -794v-638h-326zM494 1741c0 -28 9.99805 -51.666 29.998 -70.999c10.667 -10.667 22.334 -18.334 35.001 -23.001l18 -5c5.33301 -0.666992 11 -1 17 -1c28 0 51.833 9.66699 71.5 29s29.5 43 29.5 71h62
c0 -23.333 -4.33301 -44.666 -13 -63.999l-3 -8c-6.66699 -13.333 -15.667 -26 -27 -38l-6 -7c-18.667 -18 -39.334 -30.667 -62.001 -38l-30 -7c-7.33301 -0.666992 -14.666 -1 -21.999 -1s-14.666 0.333008 -21.999 1l-26 6c-24.667 7.33301 -47 21 -67 41
c-17.333 17.333 -30 36.666 -38 57.999l-7 40v17h60z" />
    <glyph glyph-name="afii10145" unicode="&#x40f;" horiz-adv-x="1471" 
d="M333 269h319v-269h-650v1436h331v-1167zM1033 1436h331v-1436h-650v269h319v1167zM852 -49v-264h-327v264h327z" />
    <glyph glyph-name="afii10017" unicode="&#x410;" horiz-adv-x="1351" 
d="M-12 0l492.001 1431h366l507 -1431h-363l-93 304h-400l76 260h245l-103 341l-15 61.5l-11 46l-10.5 44.5c-3.66699 15.333 -7.83398 35 -12.501 59l-12 -58l-9.5 -43.5l-10 -43.5c-3.66699 -15.333 -8.5 -34.333 -14.5 -57l-270 -914h-362z" />
    <glyph glyph-name="afii10018" unicode="&#x411;" horiz-adv-x="1285" 
d="M326 0h-326v1111h326v-1111zM1069 1431v-264h-1068v264h1068zM1031 774c84.667 -82.667 134.001 -184.002 148.001 -304.002c3.33301 -13.333 5 -29 5 -47c-5.33301 -85.333 -13.666 -134.666 -24.999 -147.999c-6.66699 -36 -30.334 -78.667 -71.001 -128
c-48 -68 -134.667 -116 -260 -144l-145 -4l-297 1l-2 259l298 1c109.333 28 165 80.667 167 158v42c5.33301 52 -16.334 95.667 -65.001 131c-14.667 14.667 -48.667 24.334 -102 29.001l-296 -1l-2 272h298c134.667 -2 251 -41 349 -117z" />
    <glyph glyph-name="afii10019" unicode="&#x412;" horiz-adv-x="1282" 
d="M326 0h-326v1437h326v-1437zM681 1437l3.99902 -0.000976562c230.667 0 376.334 -82 437.001 -246c14 -32.667 21 -70.334 21 -113.001v-25c0.666992 -36.667 -8 -67.667 -26 -93c-21.333 -62.667 -56.666 -113.667 -105.999 -153l-46 -26l-24 -8
c26 -14 47.333 -25 64 -33c101.333 -60.667 159 -151 173 -271c3.33301 -13.333 5 -29 5 -47c-5.33301 -85.333 -13.666 -134.666 -24.999 -147.999c-6.66699 -36 -30.334 -78.667 -71.001 -128c-48 -68 -134.667 -116 -260 -144l-86 -5h-5c-6.66699 0 -25 0.333008 -55 1
h-300v261h300c109.333 28 165 80.667 167 158v42c5.33301 52 -18.334 94.667 -71.001 128c-10.667 16.667 -42.667 27.334 -96 32.001l-299 1l1 270h298c12 2.66699 28.667 4 50 4c60.667 26 91 73.667 91 143l-5 36l-10 25h-5c-26.667 38.667 -67 60.667 -121 66l-302 -1
l-1 275z" />
    <glyph glyph-name="afii10020" unicode="&#x413;" horiz-adv-x="1178" 
d="M326 0h-326v1111h326v-1111zM1069 1431v-264h-1068v264h1068z" />
    <glyph glyph-name="afii10021" unicode="&#x414;" horiz-adv-x="1407" 
d="M1029 -316l-1 315h-749l-1 -319h-277l-2 650h1303l-1 -647zM1141 385h-326v722h326v-722zM493 1101v-273c-32.667 -247.333 -133.667 -392 -303 -434c-45.333 -14 -106.666 -20 -183.999 -18v318c105.333 14 159.666 69.667 162.999 167v240h324zM1136 1434v-264h-974
v264h974z" />
    <glyph glyph-name="afii10022" unicode="&#x415;" horiz-adv-x="1163" 
d="M326 0h-326v1437h326v-1437zM1054 1434v-264h-672v264h672zM1001 891v-264h-617v264h617zM1057 266v-264h-672v264h672z" />
    <glyph glyph-name="afii10024" unicode="&#x416;" horiz-adv-x="2305" 
d="M1289 1434l-2 -1434h-329v1434h331zM1553 783l680.999 -777.999v-5h-391l-509 595v356c84 65.333 142.333 144.666 175 237.999c12.667 28 28 55.667 46 83l-5 5v5l5 -5c86.667 105.333 226.334 158 419.001 158h230v-265h-230c-92 -4 -150.333 -52 -175 -144
c-59.333 -105.333 -141.333 -186.333 -246 -243zM434.999 1026c-24.667 92 -83.001 139.999 -175.001 143.999h-230v265h230c192.667 0 332.334 -52.667 419.001 -158l5 5v-5l-5 -5c18 -27.333 33.333 -55 46 -83c32.667 -93.333 91 -172.666 175 -237.999v-356l-509 -595
h-391v5l681 778c-104.667 56.667 -186.667 137.667 -246 243z" />
    <glyph glyph-name="afii10025" unicode="&#x417;" horiz-adv-x="1203" 
d="M764 425v41c5.33301 52 -18.334 94.333 -71.001 127c-10.667 16.667 -46 27.334 -106 32.001l-116 1l-1 269l117 -1c18.667 2.66699 38.667 4 60 4c60.667 26 91 73.333 91 142l-5 36l-15 25c-26.667 38 -67 59.667 -121 65v1h-10l1 270h73v-2
c196 -13.333 321.667 -94 377 -242c14 -32.667 21 -70 21 -112v-25c0.666992 -36.667 -8 -67.334 -26 -92.001c-21.333 -62.667 -56.666 -113.334 -105.999 -152.001l-46 -26l-24 -8c26 -14 47.333 -25 64 -33c101.333 -60 159 -149.667 173 -269
c3.33301 -12.667 5 -28 5 -46c-5.33301 -84.667 -13.666 -133.667 -24.999 -147c-6.66699 -36 -30.334 -78.333 -71.001 -127c-48 -67.333 -134.667 -115 -260 -143l-70 -4h-85l2 255c116 14.667 174 68.334 174 161.001zM4 1172l-1 265l533 2l2 -267h-534zM348 308
c58 -32.667 121.333 -46.333 190 -41l1 -261c-164.667 -4.66699 -291 28.333 -379 99c-98 62 -150.333 170 -157 324l285 27c5.33301 -65.333 25.333 -113.333 60 -144v-4z" />
    <glyph glyph-name="afii10026" unicode="&#x418;" horiz-adv-x="1279" 
d="M843 804l326 544v-1348h-326v804zM2 0l853 1433h310l-852 -1432zM326 630l-326 -544v1348h326v-804z" />
    <glyph glyph-name="afii10027" unicode="&#x419;" horiz-adv-x="1279" 
d="M843 804l326 544v-1348h-326v804zM2 0l853 1433h310l-852 -1432zM326 630l-326 -544v1348h326v-804zM483 1741c0 -28 9.99805 -51.666 29.998 -70.999c10.667 -10.667 22.334 -18.334 35.001 -23.001l18 -5c5.33301 -0.666992 11 -1 17 -1c28 0 51.833 9.66699 71.5 29
s29.5 43 29.5 71h62c0 -23.333 -4.33301 -44.666 -13 -63.999l-3 -8c-6.66699 -13.333 -15.667 -26 -27 -38l-6 -7c-18.667 -18 -39.334 -30.667 -62.001 -38l-30 -7c-7.33301 -0.666992 -14.666 -1 -21.999 -1s-14.666 0.333008 -21.999 1l-26 6
c-24.667 7.33301 -47 21 -67 41c-17.333 17.333 -30 36.666 -38 57.999l-7 40v17h60z" />
    <glyph glyph-name="afii10028" unicode="&#x41a;" horiz-adv-x="1365" 
d="M330 1434v-1434h-331v1434h331zM594 783l680.999 -777.999v-5h-391l-509 595v356c84 65.333 142.333 144.666 175 237.999c12.667 28 28 55.667 46 83l-5 5v5l5 -5c86.667 105.333 226.334 158 419.001 158h230v-265h-230c-92 -4 -150.333 -52 -175 -144
c-59.333 -105.333 -141.333 -186.333 -246 -243z" />
    <glyph glyph-name="afii10029" unicode="&#x41b;" horiz-adv-x="1331" 
d="M485 1101l0.999023 -658c-32.667 -247.333 -133.667 -392 -303 -434c-45.333 -14 -106.666 -20 -183.999 -18v318c105.333 14 159 69.667 161 167l-2 625h327zM1221 0h-326v1120h326v-1120zM1224 1437v-264h-1068v264h1068z" />
    <glyph glyph-name="afii10030" unicode="&#x41c;" horiz-adv-x="1687" 
d="M114 0v1431h302v-1431h-302zM468 773v657.999h94l86.5 -324.5l88.5 -324.5l27 -98l21 -78c6 -23.333 11.333 -45.166 16 -65.499l14 -60.5c4.66699 -20 9 -41 13 -63l14 -74l22 103.5l22 97.5l28 113.5l40 152.5l79 310.5l81 310.5h106v-643l-215 -788h-323z
M1272 -0.000976562v1431h299v-1431h-299z" />
    <glyph glyph-name="afii10031" unicode="&#x41d;" horiz-adv-x="1394" 
d="M112 0v1433h324v-1433h-324zM489 620v267h467v546h322v-1433h-322v620h-467z" />
    <glyph glyph-name="afii10032" unicode="&#x41e;" horiz-adv-x="1468" 
d="M656 1173c-83.333 -10 -155.666 -54.002 -216.999 -132.002c-70 -89.333 -105 -197.333 -105 -324c0 -126 35 -233.667 105 -323c61.333 -78.667 133.666 -123 216.999 -133v-260c-176.667 6.66699 -328.334 76.667 -455.001 210c-134 140 -201 309.333 -201 508
s67 368.334 201 509.001c126.667 132.667 278.334 202.334 455.001 209.001v-264zM708 258.998c92.667 4.66699 172 49.667 238 135c70 89.333 105 197 105 323c0 126.667 -35 234.667 -105 324c-66 84.667 -145.333 129.334 -238 134.001v263
c179.333 -6 333.333 -76 462 -210c134 -140.667 201 -310.334 201 -509.001s-67 -368 -201 -508c-128.667 -134.667 -282.667 -205 -462 -211v259z" />
    <glyph glyph-name="afii10033" unicode="&#x41f;" 
d="M1068 0h-326v1111h326v-1111zM1065 1431v-264h-1068v264h1068zM326 0h-326v1111h326v-1111z" />
    <glyph glyph-name="afii10034" unicode="&#x420;" horiz-adv-x="1212" 
d="M608 1441c192.667 0 332.333 -54.335 419 -163.002c61.333 -93.333 92 -190.666 92 -291.999v-20c0 -116.667 -32.333 -219 -97 -307c-86.667 -117.333 -258.667 -171.666 -516 -162.999h-128v270h261c102 37.333 153 107.333 153 210v26c-22.667 112 -84 170 -184 174
h-230v265h230zM325.999 -0.00195312h-326v1437h326v-1437z" />
    <glyph glyph-name="afii10035" unicode="&#x421;" horiz-adv-x="1401" 
d="M656 1173c-83.333 -10 -155.666 -54.002 -216.999 -132.002c-70 -89.333 -105 -197.333 -105 -324c0 -126 35 -233.667 105 -323c61.333 -78.667 133.666 -123 216.999 -133v-260c-176.667 6.66699 -328.334 76.667 -455.001 210c-134 140 -201 309.333 -201 508
s67 368.334 201 509.001c126.667 132.667 278.334 202.334 455.001 209.001v-264zM1319 974.998c-17.333 98.667 -53.333 182.167 -108 250.5s-131 121.166 -229 158.499c-27.333 10.667 -52.833 19 -76.5 25s-46.5 10.667 -68.5 14s-43.333 5.5 -64 6.5
s-41.667 2.16699 -63 3.5v-257c35.333 -3.33301 68 -8.66602 98 -15.999s57.167 -19 81.5 -35s46 -37.333 65 -64s35.5 -61 49.5 -103zM1004 475.998c-14 -42 -30.5 -76.333 -49.5 -103s-40.667 -48 -65 -64s-51.5 -27.667 -81.5 -35s-62.667 -12.666 -98 -15.999v-257
c21.333 0.666992 42.333 1.66699 63 3s42 3.66602 64 6.99902s44.833 8 68.5 14s49.167 14.333 76.5 25c98 37.333 174.333 90 229 158s90.667 151.667 108 251z" />
    <glyph glyph-name="afii10036" unicode="&#x422;" horiz-adv-x="1166" 
d="M702 3h-326v1111h326v-1111zM1065 1431v-264h-1068v264h1068z" />
    <glyph glyph-name="afii10037" unicode="&#x423;" horiz-adv-x="1266" 
d="M-10 1431h358l444 -896v-535h-322v535zM662 916l258 515h356l-451 -842z" />
    <glyph glyph-name="afii10038" unicode="&#x424;" horiz-adv-x="1862" 
d="M1037 1656v-1897h-326v1897h326zM656 1173c-83.333 -10 -155.666 -54.002 -216.999 -132.002c-70 -89.333 -105 -197.333 -105 -324c0 -126 35 -233.667 105 -323c61.333 -78.667 133.666 -123 216.999 -133v-260c-176.667 6.66699 -328.334 76.667 -455.001 210
c-134 140 -201 309.333 -201 508s67 368.334 201 509.001c126.667 132.667 278.334 202.334 455.001 209.001v-264zM1096 261.998c92.667 4.66699 172 49.667 238 135c70 89.333 105 197 105 323c0 126.667 -35 234.667 -105 324c-66 84.667 -145.333 129.334 -238 134.001
v263c179.333 -6 333.333 -76 462 -210c134 -140.667 201 -310.334 201 -509.001s-67 -368 -201 -508c-128.667 -134.667 -282.667 -205 -462 -211v259z" />
    <glyph glyph-name="afii10039" unicode="&#x425;" horiz-adv-x="1309" 
d="M-6 0l446 694l182 -282l-264 -412h-364zM33 1431h362l918 -1431h-366zM686 1078l226 353h362l-407 -637z" />
    <glyph glyph-name="afii10040" unicode="&#x426;" horiz-adv-x="1465" 
d="M333 270l319 -1v-270l-650 1l2 1436l329 -1v-1165zM1033 1435l332 1l-1 -1436l-650 -1v270l319 1v1165zM1362 -46v-264h-327v264h327z" />
    <glyph glyph-name="afii10041" unicode="&#x427;" horiz-adv-x="983" 
d="M877 0h-326v1437h326v-1437zM324 1433l-1.00098 -353c2 -97.333 55.667 -153 161 -167v-318c-77.333 -2 -138.666 4 -183.999 18c-169.333 42 -270.333 186.667 -303 434v386h327z" />
    <glyph glyph-name="afii10042" unicode="&#x428;" horiz-adv-x="1865" 
d="M333 270l319 -1v-270l-650 1l2 1436l329 -1v-1165zM1433 1435l332 1l-1 -1436l-650 -1v270l319 1v1165zM1051 0h-326v1437h326v-1437z" />
    <glyph glyph-name="afii10043" unicode="&#x429;" horiz-adv-x="1862" 
d="M333 270l319 -1v-270l-650 1l2 1436l329 -1v-1165zM1433 1435l332 1l-1 -1436l-650 -1v270l319 1v1165zM1051 0h-326v1437h326v-1437zM1762 -53v-264h-327v264h327z" />
    <glyph glyph-name="afii10044" unicode="&#x42a;" horiz-adv-x="2024" 
d="M1061 0h-326v1120h326v-1120zM1064 1437v-264h-1068v264h1068zM1774 774c84.667 -82.667 134.001 -184.002 148.001 -304.002c3.33301 -13.333 5 -29 5 -47c-5.33301 -85.333 -13.666 -134.666 -24.999 -147.999c-6.66699 -36 -30.334 -78.667 -71.001 -128
c-48 -68 -134.667 -116 -260 -144l-145 -4l-297 1l-2 259l298 1c109.333 28 165 80.667 167 158v42c5.33301 52 -18.334 94.667 -71.001 128c-10.667 16.667 -42.667 27.334 -96 32.001l-296 -1l-2 272h298c134.667 -2 251 -41 349 -117z" />
    <glyph glyph-name="afii10045" unicode="&#x42b;" horiz-adv-x="1697" 
d="M1597 -6h-326v1437h326v-1437zM327 -3h-326v1437h326v-1437zM1043 774c84.667 -82.667 134.001 -184.002 148.001 -304.002c3.33301 -13.333 5 -29 5 -47c-5.33301 -85.333 -13.666 -134.666 -24.999 -147.999c-6.66699 -36 -30.334 -78.667 -71.001 -128
c-48 -68 -134.667 -116 -260 -144l-145 -4l-297 1l-2 259l298 1c109.333 28 165 80.667 167 158v42c5.33301 52 -18.334 94.667 -71.001 128c-10.667 16.667 -42.667 27.334 -96 32.001l-296 -1l-2 272h298c134.667 -2 251 -41 349 -117z" />
    <glyph glyph-name="afii10046" unicode="&#x42c;" horiz-adv-x="1297" 
d="M326 0h-326v1437h326v-1437zM1042 774c84.667 -82.667 134.001 -184.002 148.001 -304.002c3.33301 -13.333 5 -29 5 -47c-5.33301 -85.333 -13.666 -134.666 -24.999 -147.999c-6.66699 -36 -30.334 -78.667 -71.001 -128c-48 -68 -134.667 -116 -260 -144l-145 -4
l-300 1l1 259l298 1c109.333 28 165 80.667 167 158v42c5.33301 52 -18.334 94.667 -71.001 128c-10.667 16.667 -42.667 27.334 -96 32.001l-296 -1l1 272h295c134.667 -2 251 -41 349 -117z" />
    <glyph glyph-name="afii10047" unicode="&#x42d;" horiz-adv-x="1203" 
d="M588 1437c192 0 331.668 -54.334 419.001 -163.001c61.333 -93.333 92 -190.666 92 -291.999v-511c0 -116.667 -32.333 -219 -97 -307c-104.667 -108.667 -259.334 -163 -464.001 -163h-88l-2 263h168c104 42 156 114.333 156 217v517c-22.667 112 -85 170 -187 174h-135
v265h138zM0.000976562 1437h388v-264h-388v264zM0.000976562 263.999h388v-264h-388v264zM95.001 889.999h610v-264h-610v264z" />
    <glyph glyph-name="afii10048" unicode="&#x42e;" horiz-adv-x="2235" 
d="M1425 1173c-83.333 -10 -155.666 -54.002 -216.999 -132.002c-70 -89.333 -105 -197.333 -105 -324c0 -126 35 -233.667 105 -323c61.333 -78.667 133.666 -123 216.999 -133v-260c-176.667 6.66699 -328.334 76.667 -455.001 210c-134 140 -201 309.333 -201 508
s67 368.334 201 509.001c126.667 132.667 278.334 202.334 455.001 209.001v-264zM1477 258.998c92.667 4.66699 172 49.667 238 135c70 89.333 105 197 105 323c0 126.667 -35 234.667 -105 324c-66 84.667 -145.333 129.334 -238 134.001v263
c179.333 -6 333.333 -76 462 -210c134 -140.667 201 -310.334 201 -509.001s-67 -368 -201 -508c-128.667 -134.667 -282.667 -205 -462 -211v259zM326 -0.00195312h-326v1437h326v-1437zM705 819.998v-264h-327v264h327z" />
    <glyph glyph-name="afii10049" unicode="&#x42f;" horiz-adv-x="1307" 
d="M881 1437h326v-1437h-326v1437zM185 689c-64.667 84.667 -97.002 182.999 -97.002 294.999v19c0 98 30.667 191.667 92 281c86.667 104.667 226.334 157 419.001 157h230v-255h-230c-100 -4 -161.333 -59.667 -184 -167v-25c0 -98.667 51 -166 153 -202h261v-260
c-156 0 -254 -7 -294 -21c-42.667 -25.333 -70 -59.333 -82 -102c-28 -180 -45 -275 -51 -285c-29.333 -81.333 -49.666 -122 -60.999 -122l-341 2l61 95c10.667 47.333 19.334 79.333 26.001 96l30 158l10 51c7.33301 74.667 16 117.334 26 128.001
c23.333 49.333 47.666 87 72.999 113c-15.333 13.333 -29 28 -41 44z" />
    <glyph glyph-name="afii10065" unicode="&#x430;" horiz-adv-x="1351" 
d="M-12 0l492.001 1431h366l507 -1431h-363l-93 304h-400l76 260h245l-103 341l-15 61.5l-11 46l-10.5 44.5c-3.66699 15.333 -7.83398 35 -12.501 59l-12 -58l-9.5 -43.5l-10 -43.5c-3.66699 -15.333 -8.5 -34.333 -14.5 -57l-270 -914h-362z" />
    <glyph glyph-name="afii10066" unicode="&#x431;" horiz-adv-x="1291" 
d="M326 -3h-326v1120h326v-1120zM1068 1437v-264h-1068v264h1068zM1039 771c84.667 -82.667 134.001 -184.002 148.001 -304.002c3.33301 -13.333 5 -29 5 -47c-5.33301 -85.333 -13.666 -134.666 -24.999 -147.999c-6.66699 -36 -30.334 -78.667 -71.001 -128
c-48 -68 -134.667 -116 -260 -144l-145 -4l-300 1l1 259l298 1c109.333 28 165 80.667 167 158v42c5.33301 52 -18.334 94.667 -71.001 128c-10.667 16.667 -42.667 27.334 -96 32.001l-299 -1l1 272h298c134.667 -2 251 -41 349 -117z" />
    <glyph glyph-name="afii10067" unicode="&#x432;" horiz-adv-x="1282" 
d="M326 0h-326v1437h326v-1437zM681 1437l3.99902 -0.000976562c230.667 0 376.334 -82 437.001 -246c14 -32.667 21 -70.334 21 -113.001v-25c0.666992 -36.667 -8 -67.667 -26 -93c-21.333 -62.667 -56.666 -113.667 -105.999 -153l-46 -26l-24 -8
c26 -14 47.333 -25 64 -33c101.333 -60.667 159 -151 173 -271c3.33301 -13.333 5 -29 5 -47c-5.33301 -85.333 -13.666 -134.666 -24.999 -147.999c-6.66699 -36 -30.334 -78.667 -71.001 -128c-48 -68 -134.667 -116 -260 -144l-86 -5h-5c-6.66699 0 -25 0.333008 -55 1
h-300v261h300c109.333 28 165 80.667 167 158v42c5.33301 52 -18.334 94.667 -71.001 128c-10.667 16.667 -42.667 27.334 -96 32.001l-299 1l1 270h298c12 2.66699 28.667 4 50 4c60.667 26 91 73.667 91 143l-5 36l-10 25h-5c-26.667 38.667 -67 60.667 -121 66l-302 -1
l-1 275z" />
    <glyph glyph-name="afii10068" unicode="&#x433;" horiz-adv-x="1169" 
d="M326 0h-326v1111h326v-1111zM1069 1431v-264h-1068v264h1068z" />
    <glyph glyph-name="afii10069" unicode="&#x434;" horiz-adv-x="1401" 
d="M1029 -316l-1 315h-749l-1 -319h-277l-2 650l1303 1l-1 -648zM1141 385h-326v722h326v-722zM493 1101l-0.000976562 -273c-32.667 -247.333 -133.667 -392 -303 -434c-45.333 -14 -106.666 -20 -183.999 -18v318c105.333 14 159 69.667 161 167l2 240h324zM1136 1434
v-264h-974v264h974z" />
    <glyph glyph-name="afii10070" unicode="&#x435;" horiz-adv-x="1157" 
d="M326 0h-326v1437h326v-1437zM1054 1434v-264h-672v264h672zM1001 891v-264h-617v264h617zM1057 266v-264h-672v264h672z" />
    <glyph glyph-name="afii10072" unicode="&#x436;" horiz-adv-x="2314" 
d="M1289 1434l-2 -1434h-329v1434h331zM1553 783l680.999 -777.999v-5h-391l-509 595v356c84 65.333 142.333 144.666 175 237.999c12.667 28 28 55.667 46 83l-5 5v5l5 -5c86.667 105.333 226.334 158 419.001 158h230v-265h-230c-92 -4 -150.333 -52 -175 -144
c-59.333 -105.333 -141.333 -186.333 -246 -243zM434.999 1026c-24.667 92 -83.001 139.999 -175.001 143.999h-230v265h230c192.667 0 332.334 -52.667 419.001 -158l5 5v-5l-5 -5c18 -27.333 33.333 -55 46 -83c32.667 -93.333 91 -172.666 175 -237.999v-356l-509 -595
h-391v5l681 778c-104.667 56.667 -186.667 137.667 -246 243z" />
    <glyph glyph-name="afii10073" unicode="&#x437;" horiz-adv-x="1203" 
d="M764 425v41c5.33301 52 -18.334 94.333 -71.001 127c-10.667 16.667 -46 27.334 -106 32.001l-116 1l-1 269l117 -1c18.667 2.66699 38.667 4 60 4c60.667 26 91 73.333 91 142l-5 36l-15 25c-26.667 38 -67 59.667 -121 65v1h-10l1 270h73v-2
c196 -13.333 321.667 -94 377 -242c14 -32.667 21 -70 21 -112v-25c0.666992 -36.667 -8 -67.334 -26 -92.001c-21.333 -62.667 -56.666 -113.334 -105.999 -152.001l-46 -26l-24 -8c26 -14 47.333 -25 64 -33c101.333 -60 159 -149.667 173 -269
c3.33301 -12.667 5 -28 5 -46c-5.33301 -84.667 -13.666 -133.667 -24.999 -147c-6.66699 -36 -30.334 -78.333 -71.001 -127c-48 -67.333 -134.667 -115 -260 -143l-70 -4h-85l2 255c116 14.667 174 68.334 174 161.001zM4 1172l-1 265l533 2l2 -267h-534zM348 308
c58 -32.667 121.333 -46.333 190 -41l1 -261c-164.667 -4.66699 -291 28.333 -379 99c-98 62 -150.333 170 -157 324l285 27c5.33301 -65.333 25.333 -113.333 60 -144v-4z" />
    <glyph glyph-name="afii10074" unicode="&#x438;" horiz-adv-x="1282" 
d="M843 804l326 544v-1348h-326v804zM2 0l853 1433h310l-852 -1432zM326 630l-326 -544v1348h326v-804z" />
    <glyph glyph-name="afii10075" unicode="&#x439;" horiz-adv-x="1282" 
d="M843 804l326 544v-1348h-326v804zM2 0l853 1433h310l-852 -1432zM326 630l-326 -544v1348h326v-804zM483 1739c0 -28 9.99805 -51.666 29.998 -70.999c10.667 -10.667 22.334 -18.334 35.001 -23.001l18 -5c5.33301 -0.666992 11 -1 17 -1c28 0 51.833 9.66699 71.5 29
s29.5 43 29.5 71h62c0 -23.333 -4.33301 -44.666 -13 -63.999l-3 -8c-6.66699 -13.333 -15.667 -26 -27 -38l-6 -7c-18.667 -18 -39.334 -30.667 -62.001 -38l-30 -7c-7.33301 -0.666992 -14.666 -1 -21.999 -1s-14.666 0.333008 -21.999 1l-26 6
c-24.667 7.33301 -47 21 -67 41c-17.333 17.333 -30 36.666 -38 57.999l-7 40v17h60z" />
    <glyph glyph-name="afii10076" unicode="&#x43a;" horiz-adv-x="1365" 
d="M330 1434v-1434h-331v1434h331zM594 783l680.999 -777.999v-5h-391l-509 595v356c84 65.333 142.333 144.666 175 237.999c12.667 28 28 55.667 46 83l-5 5v5l5 -5c86.667 105.333 226.334 158 419.001 158h230v-265h-230c-92 -4 -150.333 -52 -175 -144
c-59.333 -105.333 -141.333 -186.333 -246 -243z" />
    <glyph glyph-name="afii10077" unicode="&#x43b;" horiz-adv-x="1331" 
d="M485 1101l0.999023 -658c-32.667 -247.333 -133.667 -392 -303 -434c-45.333 -14 -106.666 -20 -183.999 -18v318c105.333 14 159 69.667 161 167l-2 625h327zM1221 0h-326v1120h326v-1120zM1224 1437v-264h-1068v264h1068z" />
    <glyph glyph-name="afii10078" unicode="&#x43c;" horiz-adv-x="1687" 
d="M114 0v1431h302v-1431h-302zM468 773v657.999h94l86.5 -324.5l88.5 -324.5l27 -98l21 -78c6 -23.333 11.333 -45.166 16 -65.499l14 -60.5c4.66699 -20 9 -41 13 -63l14 -74l22 103.5l22 97.5l28 113.5l40 152.5l79 310.5l81 310.5h106v-643l-215 -788h-323z
M1272 -0.000976562v1431h299v-1431h-299z" />
    <glyph glyph-name="afii10079" unicode="&#x43d;" horiz-adv-x="1394" 
d="M112 0v1433h324v-1433h-324zM489 620v267h467v546h322v-1433h-322v620h-467z" />
    <glyph glyph-name="afii10080" unicode="&#x43e;" horiz-adv-x="1468" 
d="M656 1173c-83.333 -10 -155.666 -54.002 -216.999 -132.002c-70 -89.333 -105 -197.333 -105 -324c0 -126 35 -233.667 105 -323c61.333 -78.667 133.666 -123 216.999 -133v-260c-176.667 6.66699 -328.334 76.667 -455.001 210c-134 140 -201 309.333 -201 508
s67 368.334 201 509.001c126.667 132.667 278.334 202.334 455.001 209.001v-264zM708 258.998c92.667 4.66699 172 49.667 238 135c70 89.333 105 197 105 323c0 126.667 -35 234.667 -105 324c-66 84.667 -145.333 129.334 -238 134.001v263
c179.333 -6 333.333 -76 462 -210c134 -140.667 201 -310.334 201 -509.001s-67 -368 -201 -508c-128.667 -134.667 -282.667 -205 -462 -211v259z" />
    <glyph glyph-name="afii10081" unicode="&#x43f;" 
d="M1068 0h-326v1111h326v-1111zM1065 1431v-264h-1068v264h1068zM326 0h-326v1111h326v-1111z" />
    <glyph glyph-name="afii10082" unicode="&#x440;" horiz-adv-x="1215" 
d="M608 1441c192.667 0 332.333 -54.335 419 -163.002c61.333 -93.333 92 -190.666 92 -291.999v-20c0 -116.667 -32.333 -219 -97 -307c-86.667 -117.333 -258.667 -171.666 -516 -162.999h-128v270h261c102 37.333 153 107.333 153 210v26c-22.667 112 -84 170 -184 174
h-230v265h230zM325.999 -0.00195312h-326v1437h326v-1437z" />
    <glyph glyph-name="afii10083" unicode="&#x441;" horiz-adv-x="1401" 
d="M656 1173c-83.333 -10 -155.666 -54.002 -216.999 -132.002c-70 -89.333 -105 -197.333 -105 -324c0 -126 35 -233.667 105 -323c61.333 -78.667 133.666 -123 216.999 -133v-260c-176.667 6.66699 -328.334 76.667 -455.001 210c-134 140 -201 309.333 -201 508
s67 368.334 201 509.001c126.667 132.667 278.334 202.334 455.001 209.001v-264zM1319 974.998c-17.333 98.667 -53.333 182.167 -108 250.5s-131 121.166 -229 158.499c-27.333 10.667 -52.833 19 -76.5 25s-46.5 10.667 -68.5 14s-43.333 5.5 -64 6.5
s-41.667 2.16699 -63 3.5v-257c35.333 -3.33301 68 -8.66602 98 -15.999s57.167 -19 81.5 -35s46 -37.333 65 -64s35.5 -61 49.5 -103zM1004 475.998c-14 -42 -30.5 -76.333 -49.5 -103s-40.667 -48 -65 -64s-51.5 -27.667 -81.5 -35s-62.667 -12.666 -98 -15.999v-257
c21.333 0.666992 42.333 1.66699 63 3s42 3.66602 64 6.99902s44.833 8 68.5 14s49.167 14.333 76.5 25c98 37.333 174.333 90 229 158s90.667 151.667 108 251z" />
    <glyph glyph-name="afii10084" unicode="&#x442;" horiz-adv-x="1169" 
d="M702 3h-326v1111h326v-1111zM1065 1431v-264h-1068v264h1068z" />
    <glyph glyph-name="afii10085" unicode="&#x443;" horiz-adv-x="1266" 
d="M-10 1431h358l444 -896v-535h-322v535zM662 916l258 515h356l-451 -842z" />
    </font>
</defs>
</svg>
